<?xml version="1.0" encoding="UTF-8"?>
<svg data-bbox="0.52 0.461 34.836 11.695" xmlns="http://www.w3.org/2000/svg" viewBox="0 0 36 13" height="13" width="36" data-type="color">
    <g>
        <path fill="#5B4E46" d="M8.613 10.102V12H.753v-1.61L4.425 6.5c.344-.396.618-.745.82-1.047.209-.302.36-.575.454-.82.094-.25.14-.48.14-.688 0-.338-.054-.625-.164-.86a1.173 1.173 0 0 0-.46-.538 1.39 1.39 0 0 0-.743-.188c-.312 0-.58.081-.805.243a1.535 1.535 0 0 0-.515.671c-.12.282-.18.602-.18.961H.52A3.675 3.675 0 0 1 2.417.976c.6-.343 1.3-.515 2.102-.515.823 0 1.513.13 2.07.39.558.261.98.633 1.266 1.118.286.484.43 1.067.43 1.75 0 .385-.063.758-.188 1.117-.12.36-.294.716-.523 1.07-.23.354-.505.716-.828 1.086-.323.365-.688.75-1.094 1.156l-1.719 1.954h4.68zm8.828-4.805V7.32c0 .834-.093 1.555-.281 2.164-.182.61-.448 1.112-.797 1.508-.344.396-.755.69-1.234.883-.474.188-1 .281-1.578.281-.464 0-.896-.06-1.297-.18a3.3 3.3 0 0 1-1.086-.554 3.573 3.573 0 0 1-.82-.953 4.747 4.747 0 0 1-.532-1.36 8.09 8.09 0 0 1-.18-1.789V5.297c0-.844.092-1.568.274-2.172.188-.604.456-1.104.805-1.5.349-.396.76-.688 1.234-.875a4.317 4.317 0 0 1 1.586-.281c.463 0 .893.06 1.29.18a3.3 3.3 0 0 1 1.085.554c.323.25.596.565.82.945.23.38.404.834.524 1.36.125.52.187 1.117.187 1.789zm-2.437 2.328V4.977c0-.391-.024-.73-.07-1.016a3.134 3.134 0 0 0-.188-.742 1.457 1.457 0 0 0-.297-.492 1.086 1.086 0 0 0-.414-.274 1.295 1.295 0 0 0-.5-.094c-.23 0-.435.047-.617.141a1.176 1.176 0 0 0-.461.445c-.125.198-.222.466-.29.805a6.793 6.793 0 0 0-.093 1.227v2.648c0 .39.02.732.063 1.023.046.292.109.542.187.75.083.204.185.37.305.5.12.125.258.217.414.274.156.057.325.086.508.086.229 0 .432-.044.609-.133.177-.094.328-.242.453-.445.13-.209.227-.482.29-.82.067-.34.1-.75.1-1.235zm11.438 2.477V12h-7.86v-1.61l3.672-3.89c.344-.396.617-.745.82-1.047a3.94 3.94 0 0 0 .453-.82c.094-.25.141-.48.141-.688 0-.338-.055-.625-.164-.86a1.173 1.173 0 0 0-.46-.538 1.39 1.39 0 0 0-.743-.188c-.313 0-.58.081-.805.243a1.534 1.534 0 0 0-.515.671c-.12.282-.18.602-.18.961h-2.453A3.674 3.674 0 0 1 20.247.976c.598-.343 1.299-.515 2.1-.515.824 0 1.514.13 2.071.39.557.261.98.633 1.266 1.118.286.484.43 1.067.43 1.75 0 .385-.063.758-.188 1.117a4.72 4.72 0 0 1-.523 1.07c-.23.354-.506.716-.829 1.086-.323.365-.687.75-1.093 1.156l-1.72 1.954h4.68zm8.914 0V12h-7.86v-1.61l3.672-3.89c.344-.396.618-.745.82-1.047.21-.302.36-.575.454-.82.094-.25.14-.48.14-.688 0-.338-.054-.625-.164-.86a1.173 1.173 0 0 0-.46-.538 1.39 1.39 0 0 0-.743-.188c-.312 0-.58.081-.804.243a1.535 1.535 0 0 0-.516.671c-.12.282-.18.602-.18.961h-2.453A3.675 3.675 0 0 1 29.16.976c.6-.343 1.3-.515 2.102-.515.823 0 1.513.13 2.07.39.558.261.98.633 1.266 1.118.287.484.43 1.067.43 1.75 0 .385-.063.758-.188 1.117-.12.36-.294.716-.523 1.07-.23.354-.505.716-.828 1.086-.323.365-.688.75-1.094 1.156l-1.719 1.954h4.68z" data-color="1"/>
    </g>
</svg>
