<?xml version="1.0" encoding="UTF-8"?>
<svg data-bbox="1 1 28 27.586" xmlns="http://www.w3.org/2000/svg" viewBox="0 0 30 30" height="30" width="30" data-type="ugc">
    <g>
        <path stroke-linecap="square" stroke-width="2" stroke="#5B4E46" d="M25 15.5h3a1 1 0 0 0 1-1V2a1 1 0 0 0-1-1h-4M5 15.5H2a1 1 0 0 1-1-1V2a1 1 0 0 1 1-1h4m0 0v25.586c0 .89 1.077 1.337 1.707.707l.586-.586a1 1 0 0 1 1.414 0l1.586 1.586a1 1 0 0 0 1.414 0l1.586-1.586a1 1 0 0 1 1.414 0l1.586 1.586a1 1 0 0 0 1.414 0l1.586-1.586a1 1 0 0 1 1.414 0l.586.586c.63.63 1.707.184 1.707-.707V1M6 1h18" fill="none"/>
        <path fill="#5B4E46" d="M15.861 6.129v2.68h-1.318V6.13h1.318zm-.158 14.352v2.347h-1.31v-2.347h1.31zm1.758-2.777c0-.352-.08-.668-.237-.95-.159-.28-.42-.538-.783-.773-.363-.234-.85-.45-1.459-.65-.738-.229-1.377-.507-1.916-.835a3.64 3.64 0 0 1-1.239-1.222c-.287-.486-.43-1.075-.43-1.766 0-.72.155-1.342.465-1.863a3.09 3.09 0 0 1 1.319-1.205c.568-.28 1.236-.421 2.004-.421.597 0 1.13.09 1.6.272.468.176.863.44 1.186.791.328.352.577.782.747 1.292.176.51.263 1.099.263 1.767h-1.617c0-.393-.047-.753-.14-1.081a2.472 2.472 0 0 0-.422-.853 1.865 1.865 0 0 0-.686-.562 2.057 2.057 0 0 0-.931-.203c-.493 0-.9.085-1.222.255-.316.17-.55.41-.703.721-.153.305-.229.66-.229 1.063 0 .375.076.704.229.985.152.281.41.536.773.764.37.223.876.443 1.52.66.757.24 1.398.524 1.925.852.528.322.93.72 1.205 1.195.275.47.413 1.052.413 1.75 0 .755-.17 1.394-.51 1.915-.34.516-.817.909-1.433 1.178-.615.27-1.336.405-2.162.405-.498 0-.99-.068-1.476-.203a3.77 3.77 0 0 1-1.319-.659 3.298 3.298 0 0 1-.94-1.221c-.235-.51-.352-1.134-.352-1.872h1.635c0 .497.07.91.211 1.239.146.322.34.58.58.773.24.188.504.322.791.404.293.077.583.115.87.115.528 0 .973-.082 1.336-.246.37-.17.65-.41.844-.721.193-.31.29-.674.29-1.09z"/>
    </g>
</svg>
