<svg width="266" height="215" viewBox="0 0 266 215" fill="none" xmlns="http://www.w3.org/2000/svg">
<g filter="url(#filter0_d_27_2)">
<g clip-path="url(#clip0_27_2)">
<rect x="20" y="16" width="226" height="171.05" rx="12" fill="#FDFDFD"/>
<path d="M20 57.8902H246.624" stroke="#60656E" stroke-width="2" stroke-miterlimit="10"/>
<path d="M35.6102 42.5412C38.2423 42.5412 40.3761 40.4054 40.3761 37.7706C40.3761 35.1359 38.2423 33 35.6102 33C32.978 33 30.8442 35.1359 30.8442 37.7706C30.8442 40.4054 32.978 42.5412 35.6102 42.5412Z" fill="#60656E"/>
<path d="M53.0163 42.5412C55.6485 42.5412 57.7822 40.4054 57.7822 37.7706C57.7822 35.1359 55.6485 33 53.0163 33C50.3841 33 48.2504 35.1359 48.2504 37.7706C48.2504 40.4054 50.3841 42.5412 53.0163 42.5412Z" fill="#BCBEC0"/>
<path d="M70.3532 42.5412C72.9854 42.5412 75.1192 40.4054 75.1192 37.7706C75.1192 35.1359 72.9854 33 70.3532 33C67.7211 33 65.5873 35.1359 65.5873 37.7706C65.5873 40.4054 67.7211 42.5412 70.3532 42.5412Z" fill="#A6ACB3"/>
<rect x="20" y="57" width="226" height="130" fill="#323845"/>
<path d="M128.26 130.1C128.067 130.1 127.853 130.087 127.62 130.06C127.387 130.04 127.163 130.007 126.95 129.96C126.743 129.913 126.57 129.863 126.43 129.81V128.86C126.697 128.967 126.97 129.047 127.25 129.1C127.537 129.147 127.823 129.17 128.11 129.17C128.63 129.17 129.017 129.093 129.27 128.94C129.523 128.787 129.65 128.517 129.65 128.13C129.65 127.783 129.533 127.533 129.3 127.38C129.073 127.227 128.747 127.15 128.32 127.15H127.35L127.44 126.34H128.25C129.097 126.34 129.52 126.007 129.52 125.34C129.52 125.013 129.407 124.773 129.18 124.62C128.96 124.467 128.603 124.39 128.11 124.39C127.837 124.39 127.56 124.417 127.28 124.47C127.007 124.523 126.763 124.597 126.55 124.69V123.76C126.75 123.68 127.01 123.61 127.33 123.55C127.65 123.49 127.967 123.46 128.28 123.46C129.067 123.46 129.65 123.627 130.03 123.96C130.417 124.293 130.61 124.72 130.61 125.24C130.61 125.56 130.53 125.86 130.37 126.14C130.217 126.42 129.973 126.62 129.64 126.74C130.027 126.84 130.307 127.02 130.48 127.28C130.66 127.54 130.75 127.847 130.75 128.2C130.75 128.847 130.523 129.327 130.07 129.64C129.617 129.947 129.013 130.1 128.26 130.1ZM131.616 125.41L132.146 123.46H133.096L132.436 125.41H131.616Z" fill="white"/>
<path d="M68.1438 114.975C67.8571 114.975 67.5438 114.951 67.2038 114.905C66.8638 114.858 66.5805 114.785 66.3538 114.685V113.735C66.5871 113.835 66.8538 113.911 67.1538 113.965C67.4538 114.018 67.7371 114.045 68.0038 114.045C68.5171 114.045 68.8938 113.958 69.1338 113.785C69.3805 113.605 69.5038 113.311 69.5038 112.905C69.5038 112.531 69.4171 112.255 69.2438 112.075C69.0705 111.895 68.7305 111.805 68.2238 111.805H66.3238V111.145L66.4938 108.435H70.1538L70.0638 109.275H67.4138L67.3038 110.965H68.3938C69.1605 110.965 69.7205 111.128 70.0738 111.455C70.4271 111.781 70.6038 112.271 70.6038 112.925C70.6038 113.558 70.3971 114.058 69.9838 114.425C69.5705 114.791 68.9571 114.975 68.1438 114.975ZM71.1187 110.285L71.6487 108.335H72.5987L71.9387 110.285H71.1187Z" fill="white"/>
<path d="M95.6915 140.686C95.4049 140.686 95.0915 140.663 94.7515 140.616C94.4115 140.569 94.1282 140.496 93.9015 140.396V139.446C94.1349 139.546 94.4015 139.623 94.7015 139.676C95.0015 139.729 95.2849 139.756 95.5515 139.756C96.0649 139.756 96.4415 139.669 96.6815 139.496C96.9282 139.316 97.0515 139.023 97.0515 138.616C97.0515 138.243 96.9649 137.966 96.7915 137.786C96.6182 137.606 96.2782 137.516 95.7715 137.516H93.8715V136.856L94.0415 134.146H97.7015L97.6115 134.986H94.9615L94.8515 136.676H95.9415C96.7082 136.676 97.2682 136.839 97.6215 137.166C97.9749 137.493 98.1515 137.983 98.1515 138.636C98.1515 139.269 97.9449 139.769 97.5315 140.136C97.1182 140.503 96.5049 140.686 95.6915 140.686ZM98.6665 135.996L99.1965 134.046H100.146L99.4865 135.996H98.6665Z" fill="white"/>
<path d="M33.26 141.1C33.0667 141.1 32.8533 141.087 32.62 141.06C32.3867 141.04 32.1633 141.007 31.95 140.96C31.7433 140.913 31.57 140.863 31.43 140.81V139.86C31.6967 139.967 31.97 140.047 32.25 140.1C32.5367 140.147 32.8233 140.17 33.11 140.17C33.63 140.17 34.0167 140.093 34.27 139.94C34.5233 139.787 34.65 139.517 34.65 139.13C34.65 138.783 34.5333 138.533 34.3 138.38C34.0733 138.227 33.7467 138.15 33.32 138.15H32.35L32.44 137.34H33.25C34.0967 137.34 34.52 137.007 34.52 136.34C34.52 136.013 34.4067 135.773 34.18 135.62C33.96 135.467 33.6033 135.39 33.11 135.39C32.8367 135.39 32.56 135.417 32.28 135.47C32.0067 135.523 31.7633 135.597 31.55 135.69V134.76C31.75 134.68 32.01 134.61 32.33 134.55C32.65 134.49 32.9667 134.46 33.28 134.46C34.0667 134.46 34.65 134.627 35.03 134.96C35.4167 135.293 35.61 135.72 35.61 136.24C35.61 136.56 35.53 136.86 35.37 137.14C35.2167 137.42 34.9733 137.62 34.64 137.74C35.0267 137.84 35.3067 138.02 35.48 138.28C35.66 138.54 35.75 138.847 35.75 139.2C35.75 139.847 35.5233 140.327 35.07 140.64C34.6167 140.947 34.0133 141.1 33.26 141.1ZM36.6155 136.41L37.1455 134.46H38.0955L37.4355 136.41H36.6155Z" fill="white"/>
<path d="M81.1113 95.7336L81.2411 106.562L76.76 110.723" stroke="white" stroke-linecap="round" stroke-linejoin="round"/>
<path d="M75.1484 108.968L77.8971 106.262" stroke="white" stroke-linecap="round" stroke-linejoin="round"/>
<path d="M73.1609 110.875L74.0338 110.018" stroke="white" stroke-linecap="round" stroke-linejoin="round"/>
<path d="M74.7367 112.652L75.6052 111.795" stroke="white" stroke-linecap="round" stroke-linejoin="round"/>
<path d="M83.3765 95.6978L83.4436 106.53L88.0008 110.607" stroke="white" stroke-linecap="round" stroke-linejoin="round"/>
<path d="M89.5766 108.821L86.7832 106.164" stroke="white" stroke-linecap="round" stroke-linejoin="round"/>
<path d="M91.6046 110.692L90.7137 109.848" stroke="white" stroke-linecap="round" stroke-linejoin="round"/>
<path d="M90.0602 112.5L89.1738 111.656" stroke="white" stroke-linecap="round" stroke-linejoin="round"/>
<path d="M105.997 129.302L101.964 133.799C103.074 134.79 104.511 135.335 105.997 135.335C109.314 135.335 112.045 132.611 112.045 129.302C112.045 125.994 109.314 123.27 105.997 123.27C104.547 123.27 103.141 123.792 102.044 124.735L105.997 129.298V129.302Z" fill="white"/>
<path d="M59.4087 118.631L63.5182 114.05C62.3901 113.04 60.9218 112.482 59.4087 112.482C56.0288 112.482 53.2444 115.26 53.2444 118.631C53.2444 122.002 56.0288 124.779 59.4087 124.779C60.886 124.779 62.3185 124.248 63.4377 123.283L59.4087 118.631Z" fill="white"/>
<path d="M59.3639 95.3764H105.585C108.552 95.3764 110.957 92.9774 110.957 90.0182V86.4997C110.957 83.5405 108.552 81.1415 105.585 81.1415H59.3639C56.3971 81.1415 53.992 83.5405 53.992 86.4997V90.0182C53.992 92.9774 56.3971 95.3764 59.3639 95.3764Z" stroke="white" stroke-linecap="round" stroke-linejoin="round"/>
<path d="M133 121.238H70.5779L65.8103 119.6V118.189L70.5779 116.733H133V121.238Z" fill="white"/>
<path d="M31 126.632H93.4892L98.2613 128.271V129.678L93.4892 131.138H31V126.632Z" fill="white"/>
<path d="M89.017 115.001H75.3588C73.868 115.001 72.6594 116.206 72.6594 117.693V131.316C72.6594 132.803 73.868 134.009 75.3588 134.009H89.017C90.5079 134.009 91.7164 132.803 91.7164 131.316V117.693C91.7164 116.206 90.5079 115.001 89.017 115.001Z" fill="white" stroke="#C5C5C5" stroke-miterlimit="10"/>
<path d="M68.3456 89.5527C68.3456 89.127 68.4003 88.7207 68.5096 88.334C68.619 87.9434 68.7733 87.5781 68.9725 87.2383C69.1718 86.8945 69.41 86.584 69.6874 86.3066C69.9686 86.0254 70.2792 85.7852 70.619 85.5859C70.9589 85.3867 71.3221 85.2324 71.7089 85.123C72.0995 85.0137 72.5077 84.959 72.9335 84.959C73.4139 84.959 73.8671 85.0254 74.2928 85.1582C74.7186 85.291 75.119 85.4844 75.494 85.7383C75.5604 85.7773 75.6093 85.8301 75.6405 85.8965C75.6757 85.959 75.6718 86.0332 75.6288 86.1191L74.6151 87.5605C74.5721 87.627 74.5253 87.666 74.4745 87.6777C74.4237 87.6895 74.3612 87.6738 74.287 87.6309C74.0917 87.4824 73.8749 87.3691 73.6366 87.291C73.4022 87.209 73.1542 87.168 72.8925 87.168C72.5643 87.168 72.2616 87.2305 71.9843 87.3555C71.7069 87.4766 71.4686 87.6465 71.2694 87.8652C71.0702 88.0801 70.9139 88.332 70.8007 88.6211C70.6913 88.9062 70.6366 89.2129 70.6366 89.541C70.6366 89.8691 70.6913 90.1777 70.8007 90.4668C70.9139 90.752 71.0702 91.002 71.2694 91.2168C71.4686 91.4277 71.7069 91.5957 71.9843 91.7207C72.2616 91.8457 72.5643 91.9082 72.8925 91.9082C73.1581 91.9082 73.41 91.8672 73.6483 91.7852C73.8866 91.7031 74.1034 91.5879 74.2987 91.4395C74.369 91.3965 74.4276 91.3789 74.4745 91.3867C74.5253 91.3945 74.576 91.4297 74.6268 91.4922L75.6522 92.9688C75.6952 93.0586 75.701 93.1328 75.6698 93.1914C75.6385 93.25 75.5878 93.2988 75.5175 93.3379C75.1425 93.5918 74.7382 93.7891 74.3046 93.9297C73.871 94.0664 73.4139 94.1348 72.9335 94.1348C72.5077 94.1348 72.0995 94.0801 71.7089 93.9707C71.3221 93.8613 70.9589 93.707 70.619 93.5078C70.2792 93.3086 69.9686 93.0703 69.6874 92.793C69.41 92.5117 69.1718 92.2031 68.9725 91.8672C68.7733 91.5273 68.619 91.1641 68.5096 90.7773C68.4003 90.3867 68.3456 89.9785 68.3456 89.5527ZM76.9003 93.5371V88.6562V88.6094V86.8223V86.793V84.5664C76.9003 84.4297 76.9374 84.3203 77.0116 84.2383C77.0897 84.1523 77.2147 84.1094 77.3866 84.1094H78.7401C78.8339 84.1094 78.9354 84.1426 79.0448 84.209C79.0956 84.2441 79.1346 84.2969 79.162 84.3672C79.1893 84.4336 79.203 84.4961 79.203 84.5547V87.1797C79.2772 87.0664 79.369 86.9551 79.4784 86.8457C79.5878 86.7363 79.7147 86.6387 79.8593 86.5527C80.0077 86.4668 80.1737 86.3965 80.3573 86.3418C80.5448 86.2871 80.7557 86.2598 80.9901 86.2598C81.4471 86.2598 81.8534 86.3477 82.2089 86.5234C82.5682 86.6992 82.8729 86.9395 83.1229 87.2441C83.3729 87.5488 83.5624 87.9043 83.6913 88.3105C83.8241 88.7168 83.8905 89.1484 83.8905 89.6055V93.5371C83.8905 93.6895 83.8573 93.8047 83.7909 93.8828C83.7245 93.9609 83.619 94 83.4745 94H82.0917C81.9198 94 81.8007 93.9707 81.7343 93.9121C81.6718 93.8535 81.6405 93.7402 81.6405 93.5723V89.6055C81.6405 89.4336 81.6073 89.2754 81.5409 89.1309C81.4745 88.9824 81.3846 88.8535 81.2714 88.7441C81.162 88.6309 81.0311 88.5449 80.8788 88.4863C80.7303 88.4238 80.5721 88.3926 80.4042 88.3926C80.2596 88.3926 80.1171 88.4219 79.9764 88.4805C79.8397 88.5352 79.7167 88.6172 79.6073 88.7266C79.4979 88.832 79.4061 88.959 79.3319 89.1074C79.2577 89.252 79.2147 89.4141 79.203 89.5938V93.5547C79.203 93.6211 79.1893 93.6895 79.162 93.7598C79.1385 93.8262 79.0995 93.8789 79.0448 93.918C78.994 93.9492 78.9452 93.9707 78.8983 93.9824C78.8553 93.9941 78.8026 94 78.7401 94H77.3866C77.2147 94 77.0897 93.959 77.0116 93.877C76.9374 93.791 76.9003 93.6777 76.9003 93.5371ZM85.5956 93.7363V85.3516C85.5956 85.2812 85.6171 85.2207 85.66 85.1699C85.703 85.1152 85.7694 85.0879 85.8593 85.0879H87.6229C87.6815 85.0879 87.744 85.1133 87.8104 85.1641C87.8807 85.2109 87.9159 85.2734 87.9159 85.3516V93.7363C87.9159 93.9121 87.8182 94 87.6229 94H85.8593C85.6835 94 85.5956 93.9121 85.5956 93.7363ZM89.7323 93.7422V85.3633C89.7323 85.2773 89.7538 85.2109 89.7968 85.1641C89.8436 85.1133 89.91 85.0879 89.996 85.0879H93.8339C94.1112 85.0879 94.371 85.127 94.6132 85.2051C94.8553 85.2793 95.078 85.3848 95.2811 85.5215C95.4882 85.6543 95.6737 85.8145 95.8378 86.002C96.0018 86.1855 96.1405 86.3867 96.2538 86.6055C96.3671 86.8203 96.453 87.0469 96.5116 87.2852C96.5741 87.5234 96.6053 87.7637 96.6053 88.0059C96.6053 88.3652 96.5389 88.7168 96.4061 89.0605C96.2772 89.4043 96.0917 89.7109 95.8495 89.9805C95.6112 90.25 95.3241 90.4688 94.9882 90.6367C94.6522 90.8008 94.2811 90.8848 93.8749 90.8887H92.0585V93.7422C92.0585 93.9141 91.9667 94 91.7831 94H89.996C89.9178 94 89.8534 93.9785 89.8026 93.9355C89.7557 93.8926 89.7323 93.8281 89.7323 93.7422ZM92.0585 88.9961H93.33C93.4745 88.9961 93.6034 88.9668 93.7167 88.9082C93.8339 88.8496 93.9315 88.7754 94.0096 88.6855C94.0878 88.5918 94.1464 88.4863 94.1854 88.3691C94.2284 88.248 94.2499 88.123 94.2499 87.9941C94.2499 87.873 94.2284 87.7539 94.1854 87.6367C94.1464 87.5156 94.0858 87.4082 94.0038 87.3145C93.9257 87.2207 93.83 87.1445 93.7167 87.0859C93.6034 87.0234 93.4745 86.9922 93.33 86.9922H92.0585V88.9961Z" fill="white"/>
<path d="M153.482 119.728C153.482 119.728 157.619 117.924 160.505 113.871C163.479 109.694 164.448 106.012 165.184 101.571C166.942 91.03 170.458 84 172.793 84C175.128 84 175.718 88.6837 178.644 101.571C179.789 106.616 182.741 112.698 186.834 119.728" stroke="white" stroke-width="2" stroke-linecap="round" stroke-linejoin="round"/>
<path d="M229.413 119.913C229.413 119.913 225.139 121.792 222.161 126.012C219.09 130.361 218.09 134.198 217.327 138.82C215.512 149.797 211.882 157.118 209.472 157.118C207.062 157.118 206.449 152.24 203.427 138.82C202.246 133.567 199.197 127.23 194.963 119.913" stroke="white" stroke-width="2" stroke-linecap="round" stroke-linejoin="round"/>
<path d="M162.932 114.753H162.183C161.843 114.753 161.567 115.029 161.567 115.37V119.018C161.567 119.359 161.843 119.635 162.183 119.635H162.932C163.273 119.635 163.549 119.359 163.549 119.018V115.37C163.549 115.029 163.273 114.753 162.932 114.753Z" fill="white"/>
<path d="M172.467 88.4676H171.718C171.377 88.4676 171.101 88.744 171.101 89.085V119.031C171.101 119.372 171.377 119.648 171.718 119.648H172.467C172.807 119.648 173.084 119.372 173.084 119.031V89.085C173.084 88.744 172.807 88.4676 172.467 88.4676Z" fill="white"/>
<path d="M167.625 105.147H166.876C166.535 105.147 166.259 105.424 166.259 105.765V119.031C166.259 119.372 166.535 119.648 166.876 119.648H167.625C167.965 119.648 168.242 119.372 168.242 119.031V105.765C168.242 105.424 167.965 105.147 167.625 105.147Z" fill="white"/>
<path d="M177.56 105.147H176.811C176.47 105.147 176.194 105.424 176.194 105.765V119.031C176.194 119.372 176.47 119.648 176.811 119.648H177.56C177.901 119.648 178.177 119.372 178.177 119.031V105.765C178.177 105.424 177.901 105.147 177.56 105.147Z" fill="white"/>
<path d="M218.68 124.945H219.429C219.769 124.945 220.046 124.669 220.046 124.328V120.213C220.046 119.872 219.769 119.595 219.429 119.595H218.68C218.339 119.595 218.063 119.872 218.063 120.213V124.328C218.063 124.669 218.339 124.945 218.68 124.945Z" fill="white"/>
<path d="M209.15 151.689H209.899C210.24 151.689 210.516 151.412 210.516 151.071V120.217C210.516 119.876 210.24 119.6 209.899 119.6H209.15C208.809 119.6 208.533 119.876 208.533 120.217V151.071C208.533 151.412 208.809 151.689 209.15 151.689Z" fill="white"/>
<path d="M213.988 133.351H214.737C215.077 133.351 215.354 133.075 215.354 132.734V120.217C215.354 119.876 215.077 119.6 214.737 119.6H213.988C213.647 119.6 213.371 119.876 213.371 120.217V132.734C213.371 133.075 213.647 133.351 213.988 133.351Z" fill="white"/>
<path d="M204.057 133.351H204.806C205.146 133.351 205.423 133.075 205.423 132.734V120.217C205.423 119.876 205.146 119.6 204.806 119.6H204.057C203.716 119.6 203.44 119.876 203.44 120.217V132.734C203.44 133.075 203.716 133.351 204.057 133.351Z" fill="white"/>
<path d="M140 119.723H240.119" stroke="white" stroke-width="2" stroke-linecap="round" stroke-linejoin="round"/>
<path d="M215.146 115.106H174.696V122.921H215.146V115.106Z" fill="white" stroke="white" stroke-linecap="round" stroke-linejoin="round"/>
<path d="M175.483 116.509V115.727H180.938V116.509H178.651V123H177.77V116.509H175.483ZM181.899 116.509V115.727H187.354V116.509H185.067V123H184.186V116.509H181.899ZM188.161 123H187.238L189.909 115.727H190.818L193.488 123H192.565L190.392 116.878H190.335L188.161 123ZM188.502 120.159H192.224V120.94H188.502V120.159ZM200.131 118H199.251C199.199 117.747 199.107 117.524 198.977 117.332C198.849 117.141 198.693 116.98 198.509 116.849C198.326 116.717 198.124 116.617 197.901 116.551C197.679 116.485 197.447 116.452 197.205 116.452C196.765 116.452 196.366 116.563 196.009 116.786C195.653 117.008 195.371 117.336 195.16 117.769C194.951 118.202 194.847 118.734 194.847 119.364C194.847 119.993 194.951 120.525 195.16 120.958C195.371 121.391 195.653 121.719 196.009 121.942C196.366 122.164 196.765 122.276 197.205 122.276C197.447 122.276 197.679 122.242 197.901 122.176C198.124 122.11 198.326 122.012 198.509 121.881C198.693 121.749 198.849 121.587 198.977 121.395C199.107 121.201 199.199 120.978 199.251 120.727H200.131C200.065 121.099 199.944 121.432 199.769 121.725C199.594 122.019 199.376 122.268 199.116 122.474C198.855 122.678 198.563 122.833 198.239 122.94C197.917 123.046 197.572 123.099 197.205 123.099C196.585 123.099 196.033 122.948 195.55 122.645C195.067 122.342 194.688 121.911 194.411 121.352C194.134 120.794 193.995 120.131 193.995 119.364C193.995 118.597 194.134 117.934 194.411 117.375C194.688 116.816 195.067 116.385 195.55 116.082C196.033 115.779 196.585 115.628 197.205 115.628C197.572 115.628 197.917 115.681 198.239 115.788C198.563 115.894 198.855 116.05 199.116 116.256C199.376 116.46 199.594 116.709 199.769 117.002C199.944 117.293 200.065 117.626 200.131 118ZM207.407 118H206.526C206.474 117.747 206.383 117.524 206.253 117.332C206.125 117.141 205.969 116.98 205.784 116.849C205.602 116.717 205.399 116.617 205.177 116.551C204.954 116.485 204.722 116.452 204.481 116.452C204.04 116.452 203.641 116.563 203.284 116.786C202.929 117.008 202.646 117.336 202.435 117.769C202.227 118.202 202.123 118.734 202.123 119.364C202.123 119.993 202.227 120.525 202.435 120.958C202.646 121.391 202.929 121.719 203.284 121.942C203.641 122.164 204.04 122.276 204.481 122.276C204.722 122.276 204.954 122.242 205.177 122.176C205.399 122.11 205.602 122.012 205.784 121.881C205.969 121.749 206.125 121.587 206.253 121.395C206.383 121.201 206.474 120.978 206.526 120.727H207.407C207.34 121.099 207.22 121.432 207.045 121.725C206.869 122.019 206.652 122.268 206.391 122.474C206.131 122.678 205.838 122.833 205.514 122.94C205.192 123.046 204.848 123.099 204.481 123.099C203.86 123.099 203.309 122.948 202.826 122.645C202.343 122.342 201.963 121.911 201.686 121.352C201.409 120.794 201.27 120.131 201.27 119.364C201.27 118.597 201.409 117.934 201.686 117.375C201.963 116.816 202.343 116.385 202.826 116.082C203.309 115.779 203.86 115.628 204.481 115.628C204.848 115.628 205.192 115.681 205.514 115.788C205.838 115.894 206.131 116.05 206.391 116.256C206.652 116.46 206.869 116.709 207.045 117.002C207.22 117.293 207.34 117.626 207.407 118ZM214.682 118H213.801C213.749 117.747 213.658 117.524 213.528 117.332C213.4 117.141 213.244 116.98 213.059 116.849C212.877 116.717 212.675 116.617 212.452 116.551C212.23 116.485 211.998 116.452 211.756 116.452C211.316 116.452 210.917 116.563 210.559 116.786C210.204 117.008 209.921 117.336 209.711 117.769C209.502 118.202 209.398 118.734 209.398 119.364C209.398 119.993 209.502 120.525 209.711 120.958C209.921 121.391 210.204 121.719 210.559 121.942C210.917 122.164 211.316 122.276 211.756 122.276C211.998 122.276 212.23 122.242 212.452 122.176C212.675 122.11 212.877 122.012 213.059 121.881C213.244 121.749 213.4 121.587 213.528 121.395C213.658 121.201 213.749 120.978 213.801 120.727H214.682C214.616 121.099 214.495 121.432 214.32 121.725C214.145 122.019 213.927 122.268 213.667 122.474C213.406 122.678 213.114 122.833 212.789 122.94C212.467 123.046 212.123 123.099 211.756 123.099C211.136 123.099 210.584 122.948 210.101 122.645C209.618 122.342 209.238 121.911 208.961 121.352C208.684 120.794 208.546 120.131 208.546 119.364C208.546 118.597 208.684 117.934 208.961 117.375C209.238 116.816 209.618 116.385 210.101 116.082C210.584 115.779 211.136 115.628 211.756 115.628C212.123 115.628 212.467 115.681 212.789 115.788C213.114 115.894 213.406 116.05 213.667 116.256C213.927 116.46 214.145 116.709 214.32 117.002C214.495 117.293 214.616 117.626 214.682 118Z" fill="#7D7D7D"/>
</g>
</g>
<g filter="url(#filter1_d_27_2)">
<path d="M204.497 186.995C222.997 186.995 237.995 171.997 237.995 153.497C237.995 134.997 222.997 120 204.497 120C185.997 120 171 134.997 171 153.497C171 171.997 185.997 186.995 204.497 186.995Z" stroke="white" stroke-width="8" stroke-miterlimit="10"/>
<path d="M229.79 176.657L256 202.853" stroke="white" stroke-width="8" stroke-linecap="round" stroke-linejoin="round"/>
</g>
<defs>
<filter id="filter0_d_27_2" x="0" y="0" width="266" height="211.05" filterUnits="userSpaceOnUse" color-interpolation-filters="sRGB">
<feFlood flood-opacity="0" result="BackgroundImageFix"/>
<feColorMatrix in="SourceAlpha" type="matrix" values="0 0 0 0 0 0 0 0 0 0 0 0 0 0 0 0 0 0 127 0" result="hardAlpha"/>
<feOffset dy="4"/>
<feGaussianBlur stdDeviation="10"/>
<feComposite in2="hardAlpha" operator="out"/>
<feColorMatrix type="matrix" values="0 0 0 0 0 0 0 0 0 0 0 0 0 0 0 0 0 0 0.25 0"/>
<feBlend mode="normal" in2="BackgroundImageFix" result="effect1_dropShadow_27_2"/>
<feBlend mode="normal" in="SourceGraphic" in2="effect1_dropShadow_27_2" result="shape"/>
</filter>
<filter id="filter1_d_27_2" x="163" y="116" width="101" height="98.8534" filterUnits="userSpaceOnUse" color-interpolation-filters="sRGB">
<feFlood flood-opacity="0" result="BackgroundImageFix"/>
<feColorMatrix in="SourceAlpha" type="matrix" values="0 0 0 0 0 0 0 0 0 0 0 0 0 0 0 0 0 0 127 0" result="hardAlpha"/>
<feOffset dy="4"/>
<feGaussianBlur stdDeviation="2"/>
<feComposite in2="hardAlpha" operator="out"/>
<feColorMatrix type="matrix" values="0 0 0 0 0 0 0 0 0 0 0 0 0 0 0 0 0 0 0.25 0"/>
<feBlend mode="normal" in2="BackgroundImageFix" result="effect1_dropShadow_27_2"/>
<feBlend mode="normal" in="SourceGraphic" in2="effect1_dropShadow_27_2" result="shape"/>
</filter>
<clipPath id="clip0_27_2">
<rect x="20" y="16" width="226" height="171.05" rx="12" fill="white"/>
</clipPath>
</defs>
</svg>
