<svg width="266" height="239" viewBox="0 0 266 239" fill="none" xmlns="http://www.w3.org/2000/svg">
<g filter="url(#filter0_d_47_25)">
<g clip-path="url(#clip0_47_25)">
<rect x="20" y="16" width="226" height="171.05" rx="12" fill="#FDFDFD"/>
<path d="M20 57.8901H246.624" stroke="#60656E" stroke-width="2" stroke-miterlimit="10"/>
<rect x="20" y="16" width="226" height="171" fill="#323845"/>
<g opacity="0.25">
<path d="M154.482 103.728C154.482 103.728 158.619 101.924 161.505 97.8708C164.479 93.6943 165.448 90.0117 166.184 85.5705C167.942 75.03 171.458 68 173.793 68C176.128 68 176.718 72.6837 179.644 85.5705C180.789 90.6159 183.741 96.6977 187.834 103.728" stroke="white" stroke-width="2" stroke-linecap="round" stroke-linejoin="round"/>
<path d="M230.413 103.913C230.413 103.913 226.139 105.792 223.161 110.012C220.09 114.361 219.09 118.198 218.327 122.82C216.512 133.797 212.882 141.118 210.472 141.118C208.062 141.118 207.449 136.24 204.427 122.82C203.246 117.567 200.197 111.229 195.963 103.913" stroke="white" stroke-width="2" stroke-linecap="round" stroke-linejoin="round"/>
<path d="M163.932 98.7529H163.183C162.843 98.7529 162.567 99.0294 162.567 99.3704V103.018C162.567 103.359 162.843 103.635 163.183 103.635H163.932C164.273 103.635 164.549 103.359 164.549 103.018V99.3704C164.549 99.0294 164.273 98.7529 163.932 98.7529Z" fill="white"/>
<path d="M173.467 72.4675H172.718C172.377 72.4675 172.101 72.744 172.101 73.085V103.031C172.101 103.372 172.377 103.648 172.718 103.648H173.467C173.807 103.648 174.084 103.372 174.084 103.031V73.085C174.084 72.744 173.807 72.4675 173.467 72.4675Z" fill="white"/>
<path d="M168.625 89.1472H167.876C167.535 89.1472 167.259 89.4237 167.259 89.7647V103.031C167.259 103.372 167.535 103.648 167.876 103.648H168.625C168.965 103.648 169.242 103.372 169.242 103.031V89.7647C169.242 89.4237 168.965 89.1472 168.625 89.1472Z" fill="white"/>
<path d="M178.56 89.1472H177.811C177.47 89.1472 177.194 89.4237 177.194 89.7647V103.031C177.194 103.372 177.47 103.648 177.811 103.648H178.56C178.901 103.648 179.177 103.372 179.177 103.031V89.7647C179.177 89.4237 178.901 89.1472 178.56 89.1472Z" fill="white"/>
<path d="M219.68 108.945H220.429C220.769 108.945 221.046 108.669 221.046 108.328V104.213C221.046 103.872 220.769 103.595 220.429 103.595H219.68C219.339 103.595 219.063 103.872 219.063 104.213V108.328C219.063 108.669 219.339 108.945 219.68 108.945Z" fill="white"/>
<path d="M210.15 135.689H210.899C211.24 135.689 211.516 135.413 211.516 135.072V104.217C211.516 103.876 211.24 103.6 210.899 103.6H210.15C209.809 103.6 209.533 103.876 209.533 104.217V135.072C209.533 135.413 209.809 135.689 210.15 135.689Z" fill="white"/>
<path d="M214.988 117.351H215.737C216.077 117.351 216.354 117.075 216.354 116.734V104.217C216.354 103.876 216.077 103.6 215.737 103.6H214.988C214.647 103.6 214.371 103.876 214.371 104.217V116.734C214.371 117.075 214.647 117.351 214.988 117.351Z" fill="white"/>
<path d="M205.057 117.351H205.806C206.146 117.351 206.423 117.075 206.423 116.734V104.217C206.423 103.876 206.146 103.6 205.806 103.6H205.057C204.716 103.6 204.44 103.876 204.44 104.217V116.734C204.44 117.075 204.716 117.351 205.057 117.351Z" fill="white"/>
<path d="M141 103.723H241.119" stroke="white" stroke-width="2" stroke-linecap="round" stroke-linejoin="round"/>
<path d="M216.146 99.1057H175.696V106.921H216.146V99.1057Z" fill="white" stroke="white" stroke-linecap="round" stroke-linejoin="round"/>
<path d="M176.483 100.509V99.7273H181.938V100.509H179.651V107H178.77V100.509H176.483ZM182.899 100.509V99.7273H188.354V100.509H186.067V107H185.186V100.509H182.899ZM189.161 107H188.238L190.909 99.7273H191.818L194.488 107H193.565L191.392 100.878H191.335L189.161 107ZM189.502 104.159H193.224V104.94H189.502V104.159ZM201.131 102H200.251C200.199 101.747 200.107 101.524 199.977 101.332C199.849 101.141 199.693 100.98 199.509 100.849C199.326 100.717 199.124 100.617 198.901 100.551C198.679 100.485 198.447 100.452 198.205 100.452C197.765 100.452 197.366 100.563 197.009 100.786C196.653 101.008 196.371 101.336 196.16 101.769C195.951 102.202 195.847 102.734 195.847 103.364C195.847 103.993 195.951 104.525 196.16 104.958C196.371 105.391 196.653 105.719 197.009 105.942C197.366 106.164 197.765 106.276 198.205 106.276C198.447 106.276 198.679 106.242 198.901 106.176C199.124 106.11 199.326 106.012 199.509 105.881C199.693 105.749 199.849 105.587 199.977 105.395C200.107 105.201 200.199 104.978 200.251 104.727H201.131C201.065 105.099 200.944 105.432 200.769 105.725C200.594 106.019 200.376 106.268 200.116 106.474C199.855 106.678 199.563 106.833 199.239 106.94C198.917 107.046 198.572 107.099 198.205 107.099C197.585 107.099 197.033 106.948 196.55 106.645C196.067 106.342 195.688 105.911 195.411 105.352C195.134 104.794 194.995 104.131 194.995 103.364C194.995 102.597 195.134 101.934 195.411 101.375C195.688 100.816 196.067 100.385 196.55 100.082C197.033 99.7794 197.585 99.6278 198.205 99.6278C198.572 99.6278 198.917 99.6811 199.239 99.7876C199.563 99.8942 199.855 100.05 200.116 100.256C200.376 100.46 200.594 100.709 200.769 101.002C200.944 101.293 201.065 101.626 201.131 102ZM208.407 102H207.526C207.474 101.747 207.383 101.524 207.253 101.332C207.125 101.141 206.969 100.98 206.784 100.849C206.602 100.717 206.399 100.617 206.177 100.551C205.954 100.485 205.722 100.452 205.481 100.452C205.04 100.452 204.641 100.563 204.284 100.786C203.929 101.008 203.646 101.336 203.435 101.769C203.227 102.202 203.123 102.734 203.123 103.364C203.123 103.993 203.227 104.525 203.435 104.958C203.646 105.391 203.929 105.719 204.284 105.942C204.641 106.164 205.04 106.276 205.481 106.276C205.722 106.276 205.954 106.242 206.177 106.176C206.399 106.11 206.602 106.012 206.784 105.881C206.969 105.749 207.125 105.587 207.253 105.395C207.383 105.201 207.474 104.978 207.526 104.727H208.407C208.34 105.099 208.22 105.432 208.045 105.725C207.869 106.019 207.652 106.268 207.391 106.474C207.131 106.678 206.838 106.833 206.514 106.94C206.192 107.046 205.848 107.099 205.481 107.099C204.86 107.099 204.309 106.948 203.826 106.645C203.343 106.342 202.963 105.911 202.686 105.352C202.409 104.794 202.27 104.131 202.27 103.364C202.27 102.597 202.409 101.934 202.686 101.375C202.963 100.816 203.343 100.385 203.826 100.082C204.309 99.7794 204.86 99.6278 205.481 99.6278C205.848 99.6278 206.192 99.6811 206.514 99.7876C206.838 99.8942 207.131 100.05 207.391 100.256C207.652 100.46 207.869 100.709 208.045 101.002C208.22 101.293 208.34 101.626 208.407 102ZM215.682 102H214.801C214.749 101.747 214.658 101.524 214.528 101.332C214.4 101.141 214.244 100.98 214.059 100.849C213.877 100.717 213.675 100.617 213.452 100.551C213.23 100.485 212.998 100.452 212.756 100.452C212.316 100.452 211.917 100.563 211.559 100.786C211.204 101.008 210.921 101.336 210.711 101.769C210.502 102.202 210.398 102.734 210.398 103.364C210.398 103.993 210.502 104.525 210.711 104.958C210.921 105.391 211.204 105.719 211.559 105.942C211.917 106.164 212.316 106.276 212.756 106.276C212.998 106.276 213.23 106.242 213.452 106.176C213.675 106.11 213.877 106.012 214.059 105.881C214.244 105.749 214.4 105.587 214.528 105.395C214.658 105.201 214.749 104.978 214.801 104.727H215.682C215.616 105.099 215.495 105.432 215.32 105.725C215.145 106.019 214.927 106.268 214.667 106.474C214.406 106.678 214.114 106.833 213.789 106.94C213.467 107.046 213.123 107.099 212.756 107.099C212.136 107.099 211.584 106.948 211.101 106.645C210.618 106.342 210.238 105.911 209.961 105.352C209.684 104.794 209.546 104.131 209.546 103.364C209.546 102.597 209.684 101.934 209.961 101.375C210.238 100.816 210.618 100.385 211.101 100.082C211.584 99.7794 212.136 99.6278 212.756 99.6278C213.123 99.6278 213.467 99.6811 213.789 99.7876C214.114 99.8942 214.406 100.05 214.667 100.256C214.927 100.46 215.145 100.709 215.32 101.002C215.495 101.293 215.616 101.626 215.682 102Z" fill="#7D7D7D"/>
</g>
<g opacity="0.25">
<path d="M123.26 112.1C123.067 112.1 122.853 112.087 122.62 112.06C122.387 112.04 122.163 112.007 121.95 111.96C121.743 111.913 121.57 111.863 121.43 111.81V110.86C121.697 110.967 121.97 111.047 122.25 111.1C122.537 111.147 122.823 111.17 123.11 111.17C123.63 111.17 124.017 111.093 124.27 110.94C124.523 110.787 124.65 110.517 124.65 110.13C124.65 109.783 124.533 109.533 124.3 109.38C124.073 109.227 123.747 109.15 123.32 109.15H122.35L122.44 108.34H123.25C124.097 108.34 124.52 108.007 124.52 107.34C124.52 107.013 124.407 106.773 124.18 106.62C123.96 106.467 123.603 106.39 123.11 106.39C122.837 106.39 122.56 106.417 122.28 106.47C122.007 106.523 121.763 106.597 121.55 106.69V105.76C121.75 105.68 122.01 105.61 122.33 105.55C122.65 105.49 122.967 105.46 123.28 105.46C124.067 105.46 124.65 105.627 125.03 105.96C125.417 106.293 125.61 106.72 125.61 107.24C125.61 107.56 125.53 107.86 125.37 108.14C125.217 108.42 124.973 108.62 124.64 108.74C125.027 108.84 125.307 109.02 125.48 109.28C125.66 109.54 125.75 109.847 125.75 110.2C125.75 110.847 125.523 111.327 125.07 111.64C124.617 111.947 124.013 112.1 123.26 112.1ZM126.616 107.41L127.146 105.46H128.096L127.436 107.41H126.616Z" fill="white"/>
<path d="M63.1438 96.9748C62.8571 96.9748 62.5438 96.9514 62.2038 96.9048C61.8638 96.8581 61.5805 96.7848 61.3538 96.6848V95.7348C61.5871 95.8348 61.8538 95.9114 62.1538 95.9648C62.4538 96.0181 62.7371 96.0448 63.0038 96.0448C63.5171 96.0448 63.8938 95.9581 64.1338 95.7848C64.3805 95.6048 64.5038 95.3114 64.5038 94.9048C64.5038 94.5314 64.4171 94.2548 64.2438 94.0748C64.0705 93.8948 63.7305 93.8048 63.2238 93.8048H61.3238V93.1448L61.4938 90.4348H65.1538L65.0638 91.2748H62.4138L62.3038 92.9648H63.3938C64.1605 92.9648 64.7205 93.1281 65.0738 93.4548C65.4271 93.7814 65.6038 94.2714 65.6038 94.9248C65.6038 95.5581 65.3971 96.0581 64.9838 96.4248C64.5705 96.7914 63.9571 96.9748 63.1438 96.9748ZM66.1187 92.2848L66.6487 90.3348H67.5987L66.9387 92.2848H66.1187Z" fill="white"/>
<path d="M90.6915 122.686C90.4049 122.686 90.0915 122.663 89.7515 122.616C89.4115 122.569 89.1282 122.496 88.9015 122.396V121.446C89.1349 121.546 89.4015 121.623 89.7015 121.676C90.0015 121.729 90.2849 121.756 90.5515 121.756C91.0649 121.756 91.4415 121.669 91.6815 121.496C91.9282 121.316 92.0515 121.023 92.0515 120.616C92.0515 120.243 91.9649 119.966 91.7915 119.786C91.6182 119.606 91.2782 119.516 90.7715 119.516H88.8715V118.856L89.0415 116.146H92.7015L92.6115 116.986H89.9615L89.8515 118.676H90.9415C91.7082 118.676 92.2682 118.839 92.6215 119.166C92.9749 119.493 93.1515 119.983 93.1515 120.636C93.1515 121.269 92.9449 121.769 92.5315 122.136C92.1182 122.503 91.5049 122.686 90.6915 122.686ZM93.6665 117.996L94.1965 116.046H95.1465L94.4865 117.996H93.6665Z" fill="white"/>
<path d="M28.26 123.1C28.0667 123.1 27.8533 123.087 27.62 123.06C27.3867 123.04 27.1633 123.007 26.95 122.96C26.7433 122.913 26.57 122.863 26.43 122.81V121.86C26.6967 121.967 26.97 122.047 27.25 122.1C27.5367 122.147 27.8233 122.17 28.11 122.17C28.63 122.17 29.0167 122.093 29.27 121.94C29.5233 121.787 29.65 121.517 29.65 121.13C29.65 120.783 29.5333 120.533 29.3 120.38C29.0733 120.227 28.7467 120.15 28.32 120.15H27.35L27.44 119.34H28.25C29.0967 119.34 29.52 119.007 29.52 118.34C29.52 118.013 29.4067 117.773 29.18 117.62C28.96 117.467 28.6033 117.39 28.11 117.39C27.8367 117.39 27.56 117.417 27.28 117.47C27.0067 117.523 26.7633 117.597 26.55 117.69V116.76C26.75 116.68 27.01 116.61 27.33 116.55C27.65 116.49 27.9667 116.46 28.28 116.46C29.0667 116.46 29.65 116.627 30.03 116.96C30.4167 117.293 30.61 117.72 30.61 118.24C30.61 118.56 30.53 118.86 30.37 119.14C30.2167 119.42 29.9733 119.62 29.64 119.74C30.0267 119.84 30.3067 120.02 30.48 120.28C30.66 120.54 30.75 120.847 30.75 121.2C30.75 121.847 30.5233 122.327 30.07 122.64C29.6167 122.947 29.0133 123.1 28.26 123.1ZM31.6155 118.41L32.1455 116.46H33.0955L32.4355 118.41H31.6155Z" fill="white"/>
<path d="M76.1113 77.7336L76.2411 88.5616L71.76 92.7231" stroke="white" stroke-linecap="round" stroke-linejoin="round"/>
<path d="M70.1484 90.9683L72.8971 88.2625" stroke="white" stroke-linecap="round" stroke-linejoin="round"/>
<path d="M68.1609 92.8749L69.0338 92.0176" stroke="white" stroke-linecap="round" stroke-linejoin="round"/>
<path d="M69.7367 94.652L70.6052 93.7947" stroke="white" stroke-linecap="round" stroke-linejoin="round"/>
<path d="M78.3765 77.6979L78.4436 88.5303L83.0008 92.607" stroke="white" stroke-linecap="round" stroke-linejoin="round"/>
<path d="M84.5766 90.8209L81.7832 88.1642" stroke="white" stroke-linecap="round" stroke-linejoin="round"/>
<path d="M86.6046 92.6918L85.7137 91.8479" stroke="white" stroke-linecap="round" stroke-linejoin="round"/>
<path d="M85.0602 94.5002L84.1738 93.6562" stroke="white" stroke-linecap="round" stroke-linejoin="round"/>
<path d="M100.997 111.302L96.9635 115.799C98.0737 116.79 99.5107 117.335 100.997 117.335C104.314 117.335 107.045 114.611 107.045 111.302C107.045 107.994 104.314 105.27 100.997 105.27C99.5465 105.27 98.1409 105.792 97.0441 106.735L100.997 111.298V111.302Z" fill="white"/>
<path d="M54.4087 100.631L58.5182 96.0496C57.3901 95.0404 55.9218 94.4823 54.4087 94.4823C51.0288 94.4823 48.2444 97.2596 48.2444 100.631C48.2444 104.002 51.0288 106.779 54.4087 106.779C55.886 106.779 57.3185 106.248 58.4377 105.283L54.4087 100.631V100.631Z" fill="white"/>
<path d="M54.3639 77.3763H100.585C103.552 77.3763 105.957 74.9774 105.957 72.0182V68.4997C105.957 65.5404 103.552 63.1415 100.585 63.1415L54.3639 63.1415C51.3971 63.1415 48.992 65.5404 48.992 68.4997V72.0182C48.992 74.9774 51.3971 77.3763 54.3639 77.3763Z" stroke="white" stroke-linecap="round" stroke-linejoin="round"/>
<path d="M128 103.238H65.5779L60.8103 101.6V100.189L65.5779 98.7332H128V103.238Z" fill="white"/>
<path d="M26 108.632H88.4892L93.2613 110.271V111.678L88.4892 113.138H26V108.632Z" fill="white"/>
<path d="M84.017 97.0006H70.3588C68.868 97.0006 67.6594 98.2061 67.6594 99.6931V113.316C67.6594 114.803 68.868 116.009 70.3588 116.009H84.017C85.5079 116.009 86.7164 114.803 86.7164 113.316V99.6931C86.7164 98.2061 85.5079 97.0006 84.017 97.0006Z" fill="white" stroke="#C5C5C5" stroke-miterlimit="10"/>
<path d="M63.3456 71.5527C63.3456 71.127 63.4003 70.7207 63.5096 70.334C63.619 69.9434 63.7733 69.5781 63.9725 69.2383C64.1718 68.8945 64.41 68.584 64.6874 68.3066C64.9686 68.0254 65.2792 67.7852 65.619 67.5859C65.9589 67.3867 66.3221 67.2324 66.7089 67.123C67.0995 67.0137 67.5077 66.959 67.9335 66.959C68.4139 66.959 68.8671 67.0254 69.2928 67.1582C69.7186 67.291 70.119 67.4844 70.494 67.7383C70.5604 67.7773 70.6093 67.8301 70.6405 67.8965C70.6757 67.959 70.6718 68.0332 70.6288 68.1191L69.6151 69.5605C69.5721 69.627 69.5253 69.666 69.4745 69.6777C69.4237 69.6895 69.3612 69.6738 69.287 69.6309C69.0917 69.4824 68.8749 69.3691 68.6366 69.291C68.4022 69.209 68.1542 69.168 67.8925 69.168C67.5643 69.168 67.2616 69.2305 66.9843 69.3555C66.7069 69.4766 66.4686 69.6465 66.2694 69.8652C66.0702 70.0801 65.9139 70.332 65.8007 70.6211C65.6913 70.9062 65.6366 71.2129 65.6366 71.541C65.6366 71.8691 65.6913 72.1777 65.8007 72.4668C65.9139 72.752 66.0702 73.002 66.2694 73.2168C66.4686 73.4277 66.7069 73.5957 66.9843 73.7207C67.2616 73.8457 67.5643 73.9082 67.8925 73.9082C68.1581 73.9082 68.41 73.8672 68.6483 73.7852C68.8866 73.7031 69.1034 73.5879 69.2987 73.4395C69.369 73.3965 69.4276 73.3789 69.4745 73.3867C69.5253 73.3945 69.576 73.4297 69.6268 73.4922L70.6522 74.9688C70.6952 75.0586 70.701 75.1328 70.6698 75.1914C70.6385 75.25 70.5878 75.2988 70.5175 75.3379C70.1425 75.5918 69.7382 75.7891 69.3046 75.9297C68.871 76.0664 68.4139 76.1348 67.9335 76.1348C67.5077 76.1348 67.0995 76.0801 66.7089 75.9707C66.3221 75.8613 65.9589 75.707 65.619 75.5078C65.2792 75.3086 64.9686 75.0703 64.6874 74.793C64.41 74.5117 64.1718 74.2031 63.9725 73.8672C63.7733 73.5273 63.619 73.1641 63.5096 72.7773C63.4003 72.3867 63.3456 71.9785 63.3456 71.5527ZM71.9003 75.5371V70.6562V70.6094V68.8223V68.793V66.5664C71.9003 66.4297 71.9374 66.3203 72.0116 66.2383C72.0897 66.1523 72.2147 66.1094 72.3866 66.1094H73.7401C73.8339 66.1094 73.9354 66.1426 74.0448 66.209C74.0956 66.2441 74.1346 66.2969 74.162 66.3672C74.1893 66.4336 74.203 66.4961 74.203 66.5547V69.1797C74.2772 69.0664 74.369 68.9551 74.4784 68.8457C74.5878 68.7363 74.7147 68.6387 74.8593 68.5527C75.0077 68.4668 75.1737 68.3965 75.3573 68.3418C75.5448 68.2871 75.7557 68.2598 75.9901 68.2598C76.4471 68.2598 76.8534 68.3477 77.2089 68.5234C77.5682 68.6992 77.8729 68.9395 78.1229 69.2441C78.3729 69.5488 78.5624 69.9043 78.6913 70.3105C78.8241 70.7168 78.8905 71.1484 78.8905 71.6055V75.5371C78.8905 75.6895 78.8573 75.8047 78.7909 75.8828C78.7245 75.9609 78.619 76 78.4745 76H77.0917C76.9198 76 76.8007 75.9707 76.7343 75.9121C76.6718 75.8535 76.6405 75.7402 76.6405 75.5723V71.6055C76.6405 71.4336 76.6073 71.2754 76.5409 71.1309C76.4745 70.9824 76.3846 70.8535 76.2714 70.7441C76.162 70.6309 76.0311 70.5449 75.8788 70.4863C75.7303 70.4238 75.5721 70.3926 75.4042 70.3926C75.2596 70.3926 75.1171 70.4219 74.9764 70.4805C74.8397 70.5352 74.7167 70.6172 74.6073 70.7266C74.4979 70.832 74.4061 70.959 74.3319 71.1074C74.2577 71.252 74.2147 71.4141 74.203 71.5938V75.5547C74.203 75.6211 74.1893 75.6895 74.162 75.7598C74.1385 75.8262 74.0995 75.8789 74.0448 75.918C73.994 75.9492 73.9452 75.9707 73.8983 75.9824C73.8553 75.9941 73.8026 76 73.7401 76H72.3866C72.2147 76 72.0897 75.959 72.0116 75.877C71.9374 75.791 71.9003 75.6777 71.9003 75.5371ZM80.5956 75.7363V67.3516C80.5956 67.2812 80.6171 67.2207 80.66 67.1699C80.703 67.1152 80.7694 67.0879 80.8593 67.0879H82.6229C82.6815 67.0879 82.744 67.1133 82.8104 67.1641C82.8807 67.2109 82.9159 67.2734 82.9159 67.3516V75.7363C82.9159 75.9121 82.8182 76 82.6229 76H80.8593C80.6835 76 80.5956 75.9121 80.5956 75.7363ZM84.7323 75.7422V67.3633C84.7323 67.2773 84.7538 67.2109 84.7968 67.1641C84.8436 67.1133 84.91 67.0879 84.996 67.0879H88.8339C89.1112 67.0879 89.371 67.127 89.6132 67.2051C89.8553 67.2793 90.078 67.3848 90.2811 67.5215C90.4882 67.6543 90.6737 67.8145 90.8378 68.002C91.0018 68.1855 91.1405 68.3867 91.2538 68.6055C91.3671 68.8203 91.453 69.0469 91.5116 69.2852C91.5741 69.5234 91.6053 69.7637 91.6053 70.0059C91.6053 70.3652 91.5389 70.7168 91.4061 71.0605C91.2772 71.4043 91.0917 71.7109 90.8495 71.9805C90.6112 72.25 90.3241 72.4688 89.9882 72.6367C89.6522 72.8008 89.2811 72.8848 88.8749 72.8887H87.0585V75.7422C87.0585 75.9141 86.9667 76 86.7831 76H84.996C84.9178 76 84.8534 75.9785 84.8026 75.9355C84.7557 75.8926 84.7323 75.8281 84.7323 75.7422ZM87.0585 70.9961H88.33C88.4745 70.9961 88.6034 70.9668 88.7167 70.9082C88.8339 70.8496 88.9315 70.7754 89.0096 70.6855C89.0878 70.5918 89.1464 70.4863 89.1854 70.3691C89.2284 70.248 89.2499 70.123 89.2499 69.9941C89.2499 69.873 89.2284 69.7539 89.1854 69.6367C89.1464 69.5156 89.0858 69.4082 89.0038 69.3145C88.9257 69.2207 88.83 69.1445 88.7167 69.0859C88.6034 69.0234 88.4745 68.9922 88.33 68.9922H87.0585V70.9961Z" fill="white"/>
</g>
<path d="M53.8305 105.482C53.602 105.253 53.292 105.125 52.9688 105.125C52.6455 105.125 52.3355 105.253 52.107 105.482C51.8784 105.711 51.75 106.021 51.75 106.344V111.187C51.75 112.282 52.1846 113.331 52.9582 114.104C53.7318 114.878 54.781 115.312 55.875 115.312H79.125C80.219 115.312 81.2682 114.878 82.0418 114.104C82.8154 113.331 83.25 112.282 83.25 111.187V106.344C83.25 106.021 83.1216 105.711 82.893 105.482C82.6645 105.253 82.3545 105.125 82.0312 105.125C81.708 105.125 81.398 105.253 81.1695 105.482C80.9409 105.711 80.8125 106.021 80.8125 106.344V111.187C80.8125 111.635 80.6347 112.064 80.3182 112.381C80.0018 112.697 79.5726 112.875 79.125 112.875H55.875C55.4274 112.875 54.9982 112.697 54.6818 112.381C54.3653 112.064 54.1875 111.635 54.1875 111.187V106.344C54.1875 106.021 54.0591 105.711 53.8305 105.482Z" fill="white" stroke="white" stroke-width="0.5"/>
<path d="M68.7188 105.533V89.1C68.7188 88.7767 68.5904 88.4667 68.3618 88.2382C68.1332 88.0096 67.8232 87.8812 67.5 87.8812C67.1768 87.8812 66.8668 88.0096 66.6382 88.2382C66.4097 88.4667 66.2813 88.7767 66.2813 89.1V105.533L62.5502 101.8L62.5502 101.8C62.3214 101.571 62.0111 101.443 61.6875 101.443C61.3639 101.443 61.0536 101.571 60.8249 101.8C60.5961 102.029 60.4675 102.339 60.4675 102.662C60.4675 102.986 60.5961 103.296 60.8249 103.525L66.6371 109.337C66.7503 109.451 66.8848 109.541 67.0329 109.602C67.181 109.664 67.3397 109.695 67.5 109.695C67.6603 109.695 67.819 109.664 67.9671 109.602C68.1152 109.541 68.2497 109.451 68.3629 109.337L74.1752 103.525C74.4039 103.296 74.5325 102.986 74.5325 102.662C74.5325 102.339 74.4039 102.029 74.1752 101.8C73.9464 101.571 73.6361 101.443 73.3125 101.443C72.9889 101.443 72.6786 101.571 72.4499 101.8L72.4498 101.8L68.7188 105.533Z" fill="white" stroke="white" stroke-width="0.5"/>
<path d="M98.636 115.42C97.46 115.42 96.34 115.336 95.276 115.168C94.212 115.028 93.19 114.79 92.21 114.454V107.902C92.882 108.182 93.638 108.392 94.478 108.532C95.318 108.672 96.158 108.742 96.998 108.742C98.51 108.742 99.588 108.434 100.232 107.818C100.876 107.202 101.198 106.18 101.198 104.752V87.952H109.094V106.012C109.094 108.952 108.198 111.262 106.406 112.942C104.642 114.594 102.052 115.42 98.636 115.42ZM117.499 115L127.873 87.952H136.231L146.605 115H138.373L136.105 109.246H127.957L125.731 115H117.499ZM129.007 103.576H135.055L132.031 95.638L129.007 103.576ZM161.386 115L151.012 87.952H159.244L165.544 105.844L171.844 87.952H180.118L169.744 115H161.386ZM183.704 115L194.078 87.952H202.436L212.81 115H204.578L202.31 109.246H194.162L191.936 115H183.704ZM195.212 103.576H201.26L198.236 95.638L195.212 103.576Z" fill="white"/>
</g>
</g>
<g filter="url(#filter1_d_47_25)">
<path d="M40.8198 139.283L40.823 139.28C41.3152 138.794 42.1068 138.796 42.5977 139.283C42.5977 139.284 42.5978 139.284 42.5978 139.284L55.0629 151.749C55.5556 152.242 55.5555 153.041 55.0629 153.533C54.5703 154.026 53.7715 154.026 53.279 153.533C53.279 153.533 53.279 153.533 53.2789 153.533L40.82 141.068C40.5833 140.831 40.4499 140.51 40.4499 140.176C40.4499 139.841 40.5833 139.52 40.8198 139.283Z" fill="white" stroke="black" stroke-width="0.3"/>
<path d="M80.8325 128.653V146.056C80.8325 146.753 80.2679 147.317 79.5716 147.317C78.8753 147.317 78.3106 146.753 78.3106 146.056V128.653C78.3106 127.956 78.8752 127.392 79.5716 127.392C80.2679 127.392 80.8325 127.956 80.8325 128.653Z" fill="white" stroke="black" stroke-width="0.3"/>
<path d="M57.4218 120.191L57.4219 120.19C58.0974 120.016 58.7863 120.422 58.9605 121.098C58.9605 121.098 58.9606 121.098 58.9606 121.098L63.1931 138.028L63.1934 138.029C63.2768 138.354 63.2283 138.698 63.0577 138.987L63.0577 138.987C62.8876 139.275 62.6095 139.485 62.2853 139.568L62.2853 139.568C61.6097 139.742 60.9207 139.336 60.7466 138.66C60.7465 138.66 60.7465 138.66 60.7464 138.66L56.5139 121.73L56.5139 121.73L56.5136 121.729C56.3396 121.053 56.7461 120.364 57.4218 120.191Z" fill="white" stroke="black" stroke-width="0.3"/>
<path d="M65.1887 148.906L65.2669 148.894L65.3019 148.823L66.5567 146.275L67.8116 148.823L67.8465 148.894L67.9247 148.906L70.7423 149.313L68.7025 151.302L68.646 151.357L68.6595 151.435L69.1436 154.239L66.6266 152.913L66.5567 152.876L66.4868 152.913L63.9698 154.239L64.454 151.435L64.4674 151.357L64.4109 151.302L62.3712 149.313L65.1887 148.906Z" fill="white" stroke="black" stroke-width="0.3"/>
<path d="M69.8387 131.73L69.8067 131.658L69.7291 131.644L67.7142 131.269L69.2373 129.899L69.2959 129.846L69.2858 129.768L69.0219 127.734L70.7974 128.76L70.8656 128.8L70.9368 128.766L72.7859 127.888L72.3559 129.89L72.3394 129.968L72.3936 130.025L73.7994 131.511L71.7674 131.72L71.689 131.728L71.6511 131.797L70.6679 133.597L69.8387 131.73Z" fill="white" stroke="black" stroke-width="0.3"/>
<path d="M50.8272 130.955L50.8842 131.009L50.9612 130.993L52.9636 130.575L52.079 132.417L52.0447 132.489L52.0844 132.557L53.1103 134.332L51.0776 134.062L50.9992 134.051L50.9463 134.11L49.5763 135.634L49.2017 133.619L49.1873 133.541L49.1155 133.509L47.2478 132.674L49.0482 131.697L49.1173 131.659L49.1258 131.581L49.3468 129.548L50.8272 130.955Z" fill="white" stroke="black" stroke-width="0.3"/>
<path d="M102.458 187.238C103.249 188.031 103.682 189.108 103.664 190.241C103.645 191.356 103.192 192.432 102.401 193.207L99.7817 196.096C99.0845 196.436 98.293 196.531 97.5393 196.399C96.7667 196.266 96.0694 195.908 95.523 195.36L95.3722 195.209C94.6938 194.548 94.2981 193.66 94.2416 192.716C94.185 191.771 94.4677 190.846 95.0707 190.09L99.1975 185.954L99.5367 186.01C100.63 186.01 101.685 186.445 102.458 187.238Z" fill="white"/>
<path d="M98.048 180.911C98.0857 181.78 97.803 182.611 97.2377 183.272C97.1623 183.328 97.1058 183.404 97.0493 183.479L92.3194 188.22C91.6411 188.466 90.925 188.522 90.2278 188.371C89.5305 188.22 88.8898 187.88 88.3811 187.389L88.1926 187.2C87.5519 186.52 87.1562 185.633 87.1185 184.707C87.0808 183.763 87.3823 182.856 87.9665 182.12C88.626 181.61 91.3961 179.419 92.8471 178.153C93.5066 177.756 94.2604 177.586 95.033 177.681C95.7867 177.775 96.5028 178.115 97.0493 178.644H97.0681C97.6523 179.23 98.0103 180.042 98.048 180.911Z" fill="white"/>
<path d="M91.2831 169.106C92.0745 169.88 92.508 170.957 92.508 172.052C92.3949 173.393 91.773 174.64 90.7743 175.547C89.7756 176.415 87.6085 178.172 86.0068 179.419C85.3284 179.607 84.6123 179.626 83.9151 179.437C83.2367 179.267 82.596 178.89 82.1061 178.399L81.993 178.285C81.2393 177.53 80.8247 176.51 80.8247 175.452C80.8247 174.394 81.2393 173.374 81.993 172.619L85.8749 168.728C86.6663 168.124 87.6462 167.821 88.6449 167.897C89.6248 167.973 90.567 168.407 91.2831 169.106Z" fill="white"/>
<path d="M96.4275 147.574C97.2189 148.348 97.6523 149.425 97.6523 150.52C97.6523 151.635 97.2189 152.692 96.4275 153.467L79.6375 170.258C78.2619 171.637 77.4893 173.507 77.4893 175.452C77.4893 177.397 78.2619 179.267 79.6375 180.646L79.7317 180.741C80.8624 181.874 82.351 182.611 83.9528 182.818C83.3686 185.236 84.0847 187.805 85.8372 189.561L85.9125 189.618L85.9691 189.693C87.307 191.016 89.0972 191.752 90.9816 191.752H91.0004C90.7743 193.886 91.528 196.021 93.0356 197.532L93.1675 197.664C94.1285 198.627 95.3157 199.288 96.6347 199.591L94.1662 202.329L94.0908 202.405C88.6072 208.336 80.9001 211.66 72.8914 211.66C72.1753 211.66 71.4781 211.641 70.762 211.584C66.5221 211.207 62.433 209.79 58.8526 207.448H59.6441H60.3413C64.4681 207.183 68.2369 204.671 71.5911 200.006C72.0999 199.27 71.9115 198.25 71.1954 197.721C70.4605 197.192 69.4618 197.362 68.9153 198.08C66.1641 201.914 63.2244 203.954 60.1529 204.161C55.8753 204.445 52.5776 201.007 52.5399 200.969C52.4645 200.894 52.3892 200.818 52.2949 200.762C49.7133 196.682 47.942 191.072 48.0174 183.328C48.0739 178.946 47.6782 174.999 42.3265 167.33C41.0828 165.574 40.7436 163.043 42.7599 161.437C44.3428 160.191 45.9257 160.229 47.6216 161.588C49.7133 163.421 51.4658 165.63 52.7849 168.086C53.5575 169.521 54.5185 170.843 55.6303 172.014C55.668 172.052 55.6868 172.109 55.7245 172.147C55.8564 172.298 59.0222 175.754 55.7999 180.797C55.3477 181.572 55.5926 182.554 56.3275 183.026C57.0813 183.498 58.0612 183.309 58.57 182.573C60.4167 179.928 60.9632 176.585 60.0963 173.488C60.9066 173.374 61.7169 173.148 62.4707 172.827C68.9907 170.163 84.1977 154.354 90.4351 147.668C91.2077 146.837 92.2818 146.365 93.4124 146.346C94.5431 146.327 95.636 146.762 96.4275 147.574Z" fill="white"/>
<path d="M105.51 185.689C106.584 187.125 107.112 188.919 106.98 190.713C106.848 192.508 106.076 194.208 104.813 195.473L102.137 198.438L102.043 198.552L96.6536 204.52C93.6386 207.863 89.9452 210.508 85.8183 212.302C81.6915 214.096 77.2443 215.003 72.7406 214.946C72.0246 214.946 71.3085 214.927 70.5547 214.871C60.8313 214.285 44.4747 206.976 44.7197 183.309C44.7574 180.061 44.7951 176.699 39.613 169.257C37.1067 165.649 37.559 161.381 40.7059 158.888C43.476 156.678 46.8302 156.753 49.6945 159.076C52.0877 161.154 54.0851 163.647 55.5926 166.424C57.7597 169.994 58.4381 170.881 61.2458 169.729C66.051 167.765 78.2431 155.847 88.0419 145.345C89.4175 143.891 91.3208 143.041 93.3182 143.003C95.3157 142.946 97.2566 143.702 98.6888 145.1C100.121 146.497 100.95 148.405 100.95 150.426C100.969 152.428 100.177 154.355 98.7641 155.771L89.8133 164.762C91.5092 165.102 93.0167 166.008 94.1097 167.349C95.2026 168.69 95.7868 170.352 95.7868 172.071C95.7868 172.864 95.636 173.639 95.3722 174.376C97.332 174.602 99.0845 175.66 100.196 177.284C101.289 178.909 101.628 180.948 101.12 182.837C102.872 183.253 104.436 184.254 105.51 185.689ZM103.682 190.222C103.701 189.108 103.268 188.031 102.476 187.219C101.704 186.426 100.63 185.991 99.5367 185.991L99.1975 185.935L95.0707 190.071C94.4866 190.808 94.1851 191.752 94.2416 192.697C94.2981 193.641 94.7127 194.529 95.3722 195.19L95.523 195.341C96.0694 195.889 96.7855 196.248 97.5393 196.38C98.293 196.512 99.0845 196.399 99.7817 196.078L102.401 193.188C103.211 192.413 103.664 191.356 103.682 190.222ZM97.2378 183.272C97.7842 182.611 98.0857 181.78 98.0481 180.911C98.0104 180.042 97.6523 179.23 97.0493 178.625H97.0305C96.484 178.096 95.7868 177.756 95.0142 177.662C94.2604 177.568 93.4878 177.738 92.8283 178.134C91.3585 179.4 88.6072 181.591 87.9477 182.101C87.3635 182.837 87.062 183.744 87.0997 184.688C87.1374 185.633 87.5143 186.52 88.1738 187.181L88.3623 187.37C88.8711 187.861 89.5118 188.201 90.209 188.352C90.9062 188.504 91.6223 188.447 92.3007 188.201L97.0305 183.461C97.1059 183.404 97.1812 183.328 97.2378 183.272ZM97.6523 150.52C97.6523 149.406 97.2189 148.348 96.4275 147.574C95.636 146.781 94.5431 146.327 93.4125 146.346C92.2818 146.365 91.2077 146.837 90.4351 147.668C84.1789 154.355 68.9719 170.182 62.4895 172.846C61.7358 173.167 60.9255 173.393 60.1152 173.507C61.0009 176.604 60.4355 179.947 58.5888 182.592C58.0801 183.328 57.1002 183.517 56.3464 183.045C55.5926 182.573 55.3665 181.572 55.8188 180.816C59.0411 175.792 55.8753 172.317 55.7434 172.166C55.7057 172.128 55.668 172.09 55.6492 172.033C54.5185 170.862 53.5575 169.54 52.8037 168.105C51.4847 165.649 49.7322 163.44 47.6405 161.607C45.9634 160.247 44.3617 160.191 42.7788 161.456C40.7625 163.081 41.1017 165.612 42.3454 167.349C47.697 175.018 48.0928 178.965 48.0362 183.347C47.9609 191.091 49.7322 196.701 52.3138 200.781C52.408 200.837 52.4834 200.913 52.5588 200.988C52.6153 201.045 55.8942 204.464 60.1717 204.18C63.2433 203.973 66.1829 201.933 68.9342 198.099C69.4806 197.381 70.4794 197.23 71.2143 197.74C71.9492 198.269 72.1188 199.27 71.61 200.025C68.2369 204.69 64.4681 207.202 60.3602 207.467H59.6441H58.8527C62.4142 209.809 66.5033 211.225 70.762 211.603C71.4781 211.66 72.1753 211.679 72.8914 211.679C80.9001 211.679 88.5884 208.355 94.0908 202.424L94.1662 202.348L96.6348 199.61C95.3157 199.307 94.1097 198.646 93.1675 197.683L93.0356 197.551C91.5092 196.04 90.7555 193.905 91.0004 191.771H90.9816C89.0972 191.771 87.307 191.034 85.9691 189.712L85.9126 189.637L85.8372 189.58C84.0847 187.805 83.3686 185.255 83.9528 182.837C82.3511 182.629 80.8812 181.912 79.7317 180.76L79.6375 180.665C78.2619 179.286 77.4893 177.416 77.4893 175.471C77.4893 173.526 78.2619 171.656 79.6375 170.277L96.4275 153.486C97.2189 152.692 97.6523 151.635 97.6523 150.52ZM92.4891 172.071C92.4891 170.957 92.0557 169.899 91.2642 169.125C90.567 168.426 89.6248 167.991 88.6261 167.916C87.6274 167.84 86.6475 168.143 85.856 168.747L81.9742 172.638C81.2204 173.393 80.8059 174.413 80.8059 175.471C80.8059 176.529 81.2204 177.549 81.9742 178.304L82.0872 178.417C82.5772 178.927 83.2179 179.286 83.8963 179.456C84.5746 179.645 85.3096 179.626 85.9879 179.437C87.5897 178.172 89.7567 176.434 90.7555 175.565C91.773 174.659 92.3949 173.412 92.4891 172.071Z" fill="black"/>
</g>
<defs>
<filter id="filter0_d_47_25" x="0" y="0" width="266" height="211.05" filterUnits="userSpaceOnUse" color-interpolation-filters="sRGB">
<feFlood flood-opacity="0" result="BackgroundImageFix"/>
<feColorMatrix in="SourceAlpha" type="matrix" values="0 0 0 0 0 0 0 0 0 0 0 0 0 0 0 0 0 0 127 0" result="hardAlpha"/>
<feOffset dy="4"/>
<feGaussianBlur stdDeviation="10"/>
<feComposite in2="hardAlpha" operator="out"/>
<feColorMatrix type="matrix" values="0 0 0 0 0 0 0 0 0 0 0 0 0 0 0 0 0 0 0.25 0"/>
<feBlend mode="normal" in2="BackgroundImageFix" result="effect1_dropShadow_47_25"/>
<feBlend mode="normal" in="SourceGraphic" in2="effect1_dropShadow_47_25" result="shape"/>
</filter>
<filter id="filter1_d_47_25" x="18" y="104" width="109" height="134.949" filterUnits="userSpaceOnUse" color-interpolation-filters="sRGB">
<feFlood flood-opacity="0" result="BackgroundImageFix"/>
<feColorMatrix in="SourceAlpha" type="matrix" values="0 0 0 0 0 0 0 0 0 0 0 0 0 0 0 0 0 0 127 0" result="hardAlpha"/>
<feOffset dy="4"/>
<feGaussianBlur stdDeviation="10"/>
<feComposite in2="hardAlpha" operator="out"/>
<feColorMatrix type="matrix" values="0 0 0 0 0 0 0 0 0 0 0 0 0 0 0 0 0 0 0.25 0"/>
<feBlend mode="normal" in2="BackgroundImageFix" result="effect1_dropShadow_47_25"/>
<feBlend mode="normal" in="SourceGraphic" in2="effect1_dropShadow_47_25" result="shape"/>
</filter>
<clipPath id="clip0_47_25">
<rect x="20" y="16" width="226" height="171.05" rx="12" fill="white"/>
</clipPath>
</defs>
</svg>
