<svg width="266" height="212" viewBox="0 0 266 212" fill="none" xmlns="http://www.w3.org/2000/svg">
<g filter="url(#filter0_d_21_23)">
<g clip-path="url(#clip0_21_23)">
<rect x="20" y="16" width="226" height="171.05" rx="12" fill="#FDFDFD"/>
<path d="M20 57.8902H246.624" stroke="#60656E" stroke-width="2" stroke-miterlimit="10"/>
<path d="M85.3418 57.821V187.25" stroke="#60656E" stroke-width="2" stroke-miterlimit="10"/>
<path d="M35.6102 42.5412C38.2423 42.5412 40.3761 40.4054 40.3761 37.7706C40.3761 35.1359 38.2423 33 35.6102 33C32.978 33 30.8442 35.1359 30.8442 37.7706C30.8442 40.4054 32.978 42.5412 35.6102 42.5412Z" fill="#60656E"/>
<path d="M53.0163 42.5412C55.6485 42.5412 57.7822 40.4054 57.7822 37.7706C57.7822 35.1359 55.6485 33 53.0163 33C50.3841 33 48.2504 35.1359 48.2504 37.7706C48.2504 40.4054 50.3841 42.5412 53.0163 42.5412Z" fill="#BCBEC0"/>
<path d="M70.3532 42.5412C72.9854 42.5412 75.1192 40.4054 75.1192 37.7706C75.1192 35.1359 72.9854 33 70.3532 33C67.7211 33 65.5873 35.1359 65.5873 37.7706C65.5873 40.4054 67.7211 42.5412 70.3532 42.5412Z" fill="#A6ACB3"/>
<path d="M59.5781 65.6338H28.634V67.0166H59.5781V65.6338Z" fill="#BCBEC0"/>
<path d="M76.4315 98.8898H56.4698V100.273H76.4315V98.8898Z" fill="#BCBEC0"/>
<path d="M76.4315 93.7735H56.4698V95.1563H76.4315V93.7735Z" fill="#BCBEC0"/>
<path d="M42.8628 71.6489H28.634V73.0317H42.8628V71.6489Z" fill="#BCBEC0"/>
<path d="M66.0708 87.4818H56.4698V88.8646H66.0708V87.4818Z" fill="#BCBEC0"/>
<path d="M234.536 87.4818H125.61V88.8646H234.536V87.4818Z" fill="#BCBEC0"/>
<path d="M234.536 82.3655H125.61V83.7483H234.536V82.3655Z" fill="#BCBEC0"/>
<path d="M178.174 76.0738H125.61V77.4566H178.174V76.0738Z" fill="#BCBEC0"/>
<path d="M50.6679 106.357H29.1175C28.3577 106.357 27.7361 105.735 27.7361 104.974V83.4026C27.7361 82.6421 28.3577 82.0198 29.1175 82.0198H50.6679C51.4276 82.0198 52.0493 82.6421 52.0493 83.4026V104.974C52.0493 105.735 51.4276 106.357 50.6679 106.357Z" fill="#A6ACB3"/>
<path d="M119.67 94.4649H98.3963C97.6365 94.4649 97.0149 93.8426 97.0149 93.0821V71.7872C97.0149 71.0266 97.6365 70.4044 98.3963 70.4044H119.67C120.43 70.4044 121.052 71.0266 121.052 71.7872V93.0821C121.052 93.8426 120.43 94.4649 119.67 94.4649Z" fill="#A6ACB3"/>
<path d="M120.016 172.661H98.7417C97.9819 172.661 97.3602 172.039 97.3602 171.279V164.918C97.3602 164.157 97.9819 163.535 98.7417 163.535H120.016C120.776 163.535 121.397 164.157 121.397 164.918V171.279C121.397 172.039 120.776 172.661 120.016 172.661Z" stroke="#60656E" stroke-miterlimit="10"/>
<path d="M149.924 172.661H128.65C127.89 172.661 127.268 172.039 127.268 171.279V164.918C127.268 164.157 127.89 163.535 128.65 163.535H149.924C150.683 163.535 151.305 164.157 151.305 164.918V171.279C151.305 172.039 150.683 172.661 149.924 172.661Z" stroke="#60656E" stroke-miterlimit="10"/>
<path d="M76.4315 135.672H56.4698V137.055H76.4315V135.672Z" fill="#BCBEC0"/>
<path d="M76.4315 130.556H56.4698V131.938H76.4315V130.556Z" fill="#BCBEC0"/>
<path d="M66.0708 124.264H56.4698V125.647H66.0708V124.264Z" fill="#BCBEC0"/>
<path d="M50.6679 143.139H29.1175C28.3577 143.139 27.7361 142.517 27.7361 141.756V120.185C27.7361 119.424 28.3577 118.802 29.1175 118.802H50.6679C51.4276 118.802 52.0493 119.424 52.0493 120.185V141.756C52.0493 142.517 51.4276 143.139 50.6679 143.139Z" fill="#A6ACB3"/>
<path d="M76.4315 170.587H56.4698V171.97H76.4315V170.587Z" fill="#BCBEC0"/>
<path d="M76.4315 165.471H56.4698V166.854H76.4315V165.471Z" fill="#BCBEC0"/>
<path d="M66.0708 159.179H56.4698V160.562H66.0708V159.179Z" fill="#BCBEC0"/>
<path d="M50.6679 178.123H29.1175C28.3577 178.123 27.7361 177.501 27.7361 176.741V155.169C27.7361 154.409 28.3577 153.786 29.1175 153.786H50.6679C51.4276 153.786 52.0493 154.409 52.0493 155.169V176.741C52.0493 177.501 51.4276 178.123 50.6679 178.123Z" fill="#A6ACB3"/>
<path d="M235.987 157.797H99.087C97.9128 157.797 97.0149 156.898 97.0149 155.722V102.485C97.0149 101.31 97.9128 100.411 99.087 100.411H235.987C237.161 100.411 238.059 101.31 238.059 102.485V155.722C238.059 156.898 237.092 157.797 235.987 157.797Z" stroke="#60656E" stroke-miterlimit="10"/>
</g>
</g>
<defs>
<filter id="filter0_d_21_23" x="0" y="0" width="266" height="211.05" filterUnits="userSpaceOnUse" color-interpolation-filters="sRGB">
<feFlood flood-opacity="0" result="BackgroundImageFix"/>
<feColorMatrix in="SourceAlpha" type="matrix" values="0 0 0 0 0 0 0 0 0 0 0 0 0 0 0 0 0 0 127 0" result="hardAlpha"/>
<feOffset dy="4"/>
<feGaussianBlur stdDeviation="10"/>
<feComposite in2="hardAlpha" operator="out"/>
<feColorMatrix type="matrix" values="0 0 0 0 0 0 0 0 0 0 0 0 0 0 0 0 0 0 0.25 0"/>
<feBlend mode="normal" in2="BackgroundImageFix" result="effect1_dropShadow_21_23"/>
<feBlend mode="normal" in="SourceGraphic" in2="effect1_dropShadow_21_23" result="shape"/>
</filter>
<clipPath id="clip0_21_23">
<rect x="20" y="16" width="226" height="171.05" rx="12" fill="white"/>
</clipPath>
</defs>
</svg>
