<svg width="270" height="238" viewBox="0 0 270 238" fill="none" xmlns="http://www.w3.org/2000/svg">
<g filter="url(#filter0_d_47_26)">
<g clip-path="url(#clip0_47_26)">
<rect x="20" y="16" width="226" height="171.05" rx="12" fill="#FDFDFD"/>
<path d="M20 57.8901H246.624" stroke="#60656E" stroke-width="2" stroke-miterlimit="10"/>
<path d="M85.3418 57.821V187.25" stroke="#60656E" stroke-width="2" stroke-miterlimit="10"/>
<path d="M35.6102 42.5412C38.2423 42.5412 40.3761 40.4054 40.3761 37.7706C40.3761 35.1359 38.2423 33 35.6102 33C32.978 33 30.8442 35.1359 30.8442 37.7706C30.8442 40.4054 32.978 42.5412 35.6102 42.5412Z" fill="#60656E"/>
<path d="M53.0163 42.5412C55.6485 42.5412 57.7822 40.4054 57.7822 37.7706C57.7822 35.1359 55.6485 33 53.0163 33C50.3841 33 48.2504 35.1359 48.2504 37.7706C48.2504 40.4054 50.3841 42.5412 53.0163 42.5412Z" fill="#BCBEC0"/>
<path d="M70.3532 42.5412C72.9854 42.5412 75.1192 40.4054 75.1192 37.7706C75.1192 35.1359 72.9854 33 70.3532 33C67.7211 33 65.5873 35.1359 65.5873 37.7706C65.5873 40.4054 67.7211 42.5412 70.3532 42.5412Z" fill="#A6ACB3"/>
<path d="M59.5781 65.6338H28.634V67.0166H59.5781V65.6338Z" fill="#BCBEC0"/>
<path d="M76.4315 98.8898H56.4698V100.273H76.4315V98.8898Z" fill="#BCBEC0"/>
<path d="M76.4315 93.7734H56.4698V95.1562H76.4315V93.7734Z" fill="#BCBEC0"/>
<path d="M42.8628 71.6489H28.634V73.0317H42.8628V71.6489Z" fill="#BCBEC0"/>
<path d="M66.0708 87.4818H56.4698V88.8646H66.0708V87.4818Z" fill="#BCBEC0"/>
<path d="M234.536 87.4818H125.61V88.8646H234.536V87.4818Z" fill="#BCBEC0"/>
<path d="M234.536 82.3655H125.61V83.7483H234.536V82.3655Z" fill="#BCBEC0"/>
<path d="M178.174 76.0739H125.61V77.4566H178.174V76.0739Z" fill="#BCBEC0"/>
<path d="M50.6679 106.357H29.1175C28.3577 106.357 27.7361 105.735 27.7361 104.974V83.4026C27.7361 82.642 28.3577 82.0198 29.1175 82.0198H50.6679C51.4276 82.0198 52.0493 82.642 52.0493 83.4026V104.974C52.0493 105.735 51.4276 106.357 50.6679 106.357Z" fill="#A6ACB3"/>
<path d="M119.67 94.4649H98.3963C97.6365 94.4649 97.0149 93.8427 97.0149 93.0821V71.7872C97.0149 71.0267 97.6365 70.4044 98.3963 70.4044H119.67C120.43 70.4044 121.052 71.0267 121.052 71.7872V93.0821C121.052 93.8427 120.43 94.4649 119.67 94.4649Z" fill="#A6ACB3"/>
<path d="M120.016 172.662H98.7417C97.9819 172.662 97.3602 172.039 97.3602 171.279V164.918C97.3602 164.157 97.9819 163.535 98.7417 163.535H120.016C120.776 163.535 121.397 164.157 121.397 164.918V171.279C121.397 172.039 120.776 172.662 120.016 172.662Z" stroke="#60656E" stroke-miterlimit="10"/>
<path d="M149.924 172.662H128.65C127.89 172.662 127.268 172.039 127.268 171.279V164.918C127.268 164.157 127.89 163.535 128.65 163.535H149.924C150.683 163.535 151.305 164.157 151.305 164.918V171.279C151.305 172.039 150.683 172.662 149.924 172.662Z" stroke="#60656E" stroke-miterlimit="10"/>
<path d="M76.4315 135.672H56.4698V137.055H76.4315V135.672Z" fill="#BCBEC0"/>
<path d="M76.4315 130.556H56.4698V131.938H76.4315V130.556Z" fill="#BCBEC0"/>
<path d="M66.0708 124.264H56.4698V125.647H66.0708V124.264Z" fill="#BCBEC0"/>
<path d="M50.6679 143.139H29.1175C28.3577 143.139 27.7361 142.517 27.7361 141.756V120.185C27.7361 119.424 28.3577 118.802 29.1175 118.802H50.6679C51.4276 118.802 52.0493 119.424 52.0493 120.185V141.756C52.0493 142.517 51.4276 143.139 50.6679 143.139Z" fill="#A6ACB3"/>
<path d="M76.4315 170.587H56.4698V171.97H76.4315V170.587Z" fill="#BCBEC0"/>
<path d="M76.4315 165.471H56.4698V166.854H76.4315V165.471Z" fill="#BCBEC0"/>
<path d="M66.0708 159.179H56.4698V160.562H66.0708V159.179Z" fill="#BCBEC0"/>
<path d="M50.6679 178.123H29.1175C28.3577 178.123 27.7361 177.501 27.7361 176.741V155.169C27.7361 154.409 28.3577 153.786 29.1175 153.786H50.6679C51.4276 153.786 52.0493 154.409 52.0493 155.169V176.741C52.0493 177.501 51.4276 178.123 50.6679 178.123Z" fill="#A6ACB3"/>
<path d="M235.987 157.797H99.087C97.9128 157.797 97.0149 156.898 97.0149 155.722V102.485C97.0149 101.31 97.9128 100.411 99.087 100.411H235.987C237.161 100.411 238.059 101.31 238.059 102.485V155.722C238.059 156.898 237.092 157.797 235.987 157.797Z" stroke="#60656E" stroke-miterlimit="10"/>
<path d="M205.156 130.243C204.449 130.091 203.754 130.542 203.603 131.249L201.139 142.765C200.988 143.472 201.438 144.167 202.145 144.319C202.852 144.47 203.547 144.019 203.698 143.313L206.162 131.796C206.313 131.089 205.862 130.394 205.156 130.243ZM190.876 132.876C190.548 132.806 190.178 132.862 189.875 133.059C189.268 133.452 189.097 134.252 189.49 134.858L195.18 143.645C195.573 144.252 196.393 144.427 197 144.034C197.606 143.641 197.777 142.841 197.384 142.235L191.694 133.448C191.498 133.145 191.203 132.946 190.876 132.876ZM217.109 138.487C216.782 138.417 216.432 138.478 216.128 138.674L207.341 144.364C206.735 144.757 206.564 145.557 206.957 146.164C207.349 146.771 208.149 146.942 208.756 146.549L217.542 140.859C218.149 140.466 218.32 139.666 217.927 139.059C217.731 138.756 217.437 138.557 217.109 138.487ZM182.632 144.829C181.925 144.678 181.229 145.128 181.078 145.835C180.927 146.542 181.378 147.237 182.084 147.388L193.601 149.851C194.308 150.003 195.003 149.552 195.154 148.846C195.306 148.139 194.855 147.443 194.149 147.292L182.632 144.829ZM194.05 153.419C193.723 153.348 193.353 153.405 193.049 153.602L184.263 159.292C183.656 159.684 183.485 160.484 183.878 161.091C184.27 161.698 185.091 161.873 185.697 161.48L194.484 155.79C195.09 155.397 195.262 154.598 194.869 153.991C194.673 153.687 194.378 153.489 194.05 153.419Z" fill="black"/>
</g>
</g>
<g filter="url(#filter1_d_47_26)">
<path d="M199.828 148L210.17 204.698L223.029 189.841L239.287 213.305L247.109 207.886L230.851 184.421L249.279 177.602L199.828 148Z" fill="black"/>
</g>
<defs>
<filter id="filter0_d_47_26" x="0" y="0" width="266" height="211.05" filterUnits="userSpaceOnUse" color-interpolation-filters="sRGB">
<feFlood flood-opacity="0" result="BackgroundImageFix"/>
<feColorMatrix in="SourceAlpha" type="matrix" values="0 0 0 0 0 0 0 0 0 0 0 0 0 0 0 0 0 0 127 0" result="hardAlpha"/>
<feOffset dy="4"/>
<feGaussianBlur stdDeviation="10"/>
<feComposite in2="hardAlpha" operator="out"/>
<feColorMatrix type="matrix" values="0 0 0 0 0 0 0 0 0 0 0 0 0 0 0 0 0 0 0.25 0"/>
<feBlend mode="normal" in2="BackgroundImageFix" result="effect1_dropShadow_47_26"/>
<feBlend mode="normal" in="SourceGraphic" in2="effect1_dropShadow_47_26" result="shape"/>
</filter>
<filter id="filter1_d_47_26" x="179.828" y="132" width="89.4515" height="105.305" filterUnits="userSpaceOnUse" color-interpolation-filters="sRGB">
<feFlood flood-opacity="0" result="BackgroundImageFix"/>
<feColorMatrix in="SourceAlpha" type="matrix" values="0 0 0 0 0 0 0 0 0 0 0 0 0 0 0 0 0 0 127 0" result="hardAlpha"/>
<feOffset dy="4"/>
<feGaussianBlur stdDeviation="10"/>
<feComposite in2="hardAlpha" operator="out"/>
<feColorMatrix type="matrix" values="0 0 0 0 0 0 0 0 0 0 0 0 0 0 0 0 0 0 0.25 0"/>
<feBlend mode="normal" in2="BackgroundImageFix" result="effect1_dropShadow_47_26"/>
<feBlend mode="normal" in="SourceGraphic" in2="effect1_dropShadow_47_26" result="shape"/>
</filter>
<clipPath id="clip0_47_26">
<rect x="20" y="16" width="226" height="171.05" rx="12" fill="white"/>
</clipPath>
</defs>
</svg>
