<?xml version="1.0" encoding="UTF-8"?><svg id="_层_2" xmlns="http://www.w3.org/2000/svg" viewBox="0 0 165.92 103.23"><defs><style>.cls-1{fill:#b32025;font-family:FreightSansProSemibold-Regular, 'FreightSans Pro';font-size:68px;}.cls-1,.cls-2,.cls-3,.cls-4,.cls-5{stroke:#000;}.cls-1,.cls-3,.cls-4,.cls-6,.cls-5,.cls-7{stroke-miterlimit:10;}.cls-8{letter-spacing:0em;}.cls-2{fill:#fff;stroke-linecap:round;stroke-linejoin:round;}.cls-9{letter-spacing:0em;}.cls-3{stroke-width:3px;}.cls-3,.cls-4,.cls-6,.cls-5,.cls-7{fill:none;}.cls-4,.cls-7{stroke-width:2px;}.cls-6,.cls-5{stroke-width:5px;}.cls-6,.cls-7{stroke:#cecccb;}</style></defs><g id="reference"><line class="cls-7" x1="47.51" y1="43.29" x2="19.56" y2="43.29"/><line class="cls-7" x1="47.51" y1="56.84" x2="19.56" y2="56.84"/><line class="cls-7" x1="47.51" y1="62.83" x2="19.56" y2="62.83"/><line class="cls-7" x1="47.51" y1="49.94" x2="19.56" y2="49.94"/><path class="cls-5" d="M53.6,103.09c-.15-2.64-.72-6.49-2.88-10.42-1.56-2.83-4.21-5.38-14.19-11.14-11.91-6.88-14.92-6.83-23.06-13.03-6.33-4.82-8.3-8.25-9.31-10.64-.42-1-1.38-3.78-1.67-6.75"/><path class="cls-5" d="M30.58,24.97c-7.29,3.81-10.52,4.74-17.1,9.75-6.33,4.82-8.3,8.25-9.31,10.64-.42,1-1.37,3.32-1.66,6.3"/><path class="cls-6" d="M22.02,77.99c7.02-3.64,10.25-4.62,16.72-9.55,6.33-4.82,8.3-8.25,9.31-10.64,.42-1,1.39-3.91,1.68-6.89"/><path class="cls-6" d="M25.27,26.6c4.82,2.37,7.95,3.76,13.24,7.79,6.33,4.82,8.3,8.25,9.31,10.64,.42,1,1.64,3.41,1.93,6.38"/><path class="cls-5" d="M2.5,.14c.15,2.64,.72,6.49,2.88,10.42,1.56,2.83,4.21,5.38,14.19,11.14,4.16,2.4,7.23,3.96,9.82,5.23"/><line class="cls-4" x1="26.11" y1="101.65" x2="52.38" y2="101.65"/><line class="cls-4" x1="26.11" y1="95" x2="50.88" y2="95"/><line class="cls-4" x1="26.11" y1="88.85" x2="47.39" y2="88.85"/><line class="cls-3" x1="26.11" y1="82.36" x2="39.24" y2="82.36"/><line class="cls-4" x1="29.32" y1="1.56" x2="3.05" y2="1.56"/><line class="cls-4" x1="29.32" y1="8.21" x2="4.55" y2="8.21"/><line class="cls-4" x1="29.32" y1="14.36" x2="8.04" y2="14.36"/><line class="cls-4" x1="29.32" y1="20.84" x2="16.19" y2="20.84"/><line class="cls-4" x1="32.21" y1="49.94" x2="3.05" y2="49.94"/><line class="cls-4" x1="32.21" y1="43.29" x2="4.71" y2="43.29"/><line class="cls-7" x1="43.19" y1="37.14" x2="19.56" y2="37.14"/><line class="cls-4" x1="32.21" y1="37.14" x2="8.59" y2="37.14"/><line class="cls-3" x1="29.32" y1="30.65" x2="16.19" y2="30.65"/><line class="cls-4" x1="32.21" y1="56.76" x2="4.71" y2="56.76"/><line class="cls-4" x1="32.21" y1="62.91" x2="8.59" y2="62.91"/><line class="cls-4" x1="29.32" y1="69.39" x2="16.19" y2="69.39"/></g><g id="Layer_5"><g><ellipse class="cls-2" cx="27.26" cy="28.48" rx="11.01" ry="7.37"/><path class="cls-2" d="M33.19,30.83c.84-.47,1.33-1.04,1.33-1.66,0-1.56-3.17-2.83-7.07-2.83s-7.07,1.27-7.07,2.83c0,.67,.59,1.29,1.56,1.78"/><path class="cls-2" d="M27.51,26.52c-3.83,0-6.94,1.25-6.94,2.79,0,.64,.98,1.76,1.85,1.61,1.23-.21,2.64-2.12,4.88-2.12s4.16,1.65,5.46,1.86c.91,.15,1.67-.72,1.67-1.36,0-1.54-3.1-2.79-6.94-2.79Z"/></g><g><ellipse class="cls-2" cx="27.26" cy="78.49" rx="11.01" ry="7.37"/><path class="cls-2" d="M21.32,76.14c-.84,.47-1.33,1.04-1.33,1.66,0,1.56,3.17,2.83,7.07,2.83s7.07-1.27,7.07-2.83c0-.67-.59-1.29-1.56-1.78"/><path class="cls-2" d="M27,80.45c3.83,0,6.94-1.25,6.94-2.79,0-.64-.98-1.76-1.85-1.61-1.23,.21-2.64,2.12-4.88,2.12s-4.16-1.65-5.46-1.86c-.91-.15-1.67,.72-1.67,1.36,0,1.54,3.1,2.79,6.94,2.79Z"/></g></g><g id="text"><text class="cls-1" transform="translate(19.1 75.31)"><tspan class="cls-9" x="0" y="0">E</tspan><tspan x="36.45" y="0">G</tspan><tspan class="cls-8" x="81.12" y="0">C</tspan></text></g></svg>