<?xml version="1.0" encoding="UTF-8"?>
<svg data-bbox="4.873 5.551 27.891 27.391" xmlns="http://www.w3.org/2000/svg" viewBox="0 0 38 38" height="38" width="38" data-type="ugc">
    <g>
        <path stroke="#5B4E46" fill="none" d="M23.98 18.995a5.161 5.161 0 1 1-10.322 0 5.161 5.161 0 0 1 10.322 0z"/>
        <path stroke="#5B4E46" d="m23.772 10.15-1.685-.842a1 1 0 0 1-.534-.699l-.45-2.254a1 1 0 0 0-.981-.804h-2.606a1 1 0 0 0-.98.804l-.452 2.254a1 1 0 0 1-.533.699l-1.685.842" fill="none"/>
        <path fill="#5B4E46" d="M23.443 9.774a.5.5 0 0 0 .658.753l-.658-.753zm2.456-1.484-.33-.377.33.377zm1.365.045.354-.353-.354.353zm2.264 2.263-.354.354.354-.354zm.092 1.307-.4-.3.4.3zm-1.288 1.718-.4-.3.4.3zm-.148.916.474-.158-.474.158zm.358 1.075-.474.159.474-.159zm.753.665.098-.49-.098.49zm2.165.433.098-.49-.098.49zm.804.98h-.5.5zm0 2.607h.5-.5zm-.804.98.098.49-.098-.49zm-2.165.433-.098-.49.098.49zm-.753.665.474.158-.474-.158zm-.358 1.075-.475-.158.475.158zm.148.916.4-.3-.4.3zm1.288 1.718.4-.3-.4.3zm-.092 1.307-.354-.354.354.354zm-2.312 2.311.354.354-.354-.354zm-1.307.093.3-.4-.3.4zM24.19 28.51l.3-.4-.3.4zm-.916-.149.158.475-.158-.475zm-1.075.359-.158-.475.158.475zm-.665.752-.49-.098.49.098zm-.433 2.166-.49-.099.49.099zm-.98.803v.5-.5zm-2.606 0v-.5.5zm-.98-.803-.491.098.49-.098zm-.452-2.255.49-.098-.49.098zm-.533-.698.223-.448-.223.448zm-1.133-.567.224-.447-.224.447zm-1.047.095-.3-.4.3.4zm-1.642 1.231.3.4-.3-.4zm-1.307-.093-.354.354.354-.354zm-2.009-2.008-.353.354.353-.354zm-.14-1.237-.425-.265.424.265zm1.097-1.757.424.265-.424-.265zm.1-.846-.474.158.475-.158zm-.374-1.125.474-.159-.474.159zm-.753-.665.098-.49-.098.49zm-2.165-.433-.098.49.098-.49zm-.804-.98h-.5.5zm0-2.607h.5-.5zm.804-.98.098.49-.098-.49zm2.165-.433-.098-.49.098.49zm.753-.665-.475-.158.475.159zm.375-1.125.474.158-.474-.158zm-.101-.846.424-.265-.424.265zm-1.098-1.757.424-.265-.424.265zm.141-1.237.354.354-.354-.354zm2.009-2.008.353.353-.353-.353zm1.307-.093-.3.4.3-.4zm1.836 2.002a.5.5 0 0 0 .6-.8l-.6.8zm10.536-.024 2.127-1.86-.659-.753-2.126 1.86.658.754zm2.81-1.837 2.263 2.263.707-.707-2.263-2.263-.707.707zm2.31 2.916-1.289 1.718.8.6 1.288-1.717-.8-.6zm-1.512 3.092.359 1.076.948-.317-.358-1.075-.949.316zm1.488 2.072 2.165.433.196-.98-2.165-.433-.196.98zm2.567.924V20.3h1v-2.607h-1zm-.402 3.096-2.165.433.196.98 2.165-.433-.196-.98zm-3.294 1.43-.359 1.075.949.316.358-1.075-.948-.317zm-.136 2.45 1.288 1.717.8-.6-1.288-1.718-.8.6zm1.242 2.37-2.312 2.312.708.707 2.311-2.312-.707-.707zm-2.965 2.358L24.49 28.11l-.6.8 1.718 1.288.6-.8zm-3.092-1.511-1.075.358.316.95 1.075-.36-.316-.948zm-2.072 1.487-.433 2.165.98.197.434-2.166-.98-.196zm-.923 2.567h-2.606v1h2.606v-1zm-3.097-.402-.45-2.254-.981.196.45 2.255.981-.197zm-1.25-3.302-1.133-.566-.447.894 1.132.567.447-.895zm-2.704-.424-1.642 1.231.6.8 1.642-1.231-.6-.8zm-2.296 1.185-2.008-2.009-.707.707 2.008 2.01.707-.708zM8.696 26.37l1.098-1.757-.848-.53-1.098 1.757.848.53zm1.25-3.026-.376-1.126-.949.317.375 1.125.95-.316zM8.44 21.222l-2.165-.433-.196.98 2.165.434.196-.981zm-2.567-.923v-2.607h-1V20.3h1zm.402-3.097 2.165-.433-.196-.98-2.165.433.196.98zm3.294-1.43.375-1.125-.949-.316-.375 1.125.949.317zm.224-2.394L8.696 11.62l-.848.53 1.098 1.757.848-.53zm-1.027-2.375 2.008-2.009-.707-.707-2.008 2.009.707.707zm2.662-2.055 2.136 1.602.6-.8-2.136-1.602-.6.8zm-.654.046a.5.5 0 0 1 .654-.046l.6-.8a1.5 1.5 0 0 0-1.96.14l.706.706zm-2.079 2.627a.5.5 0 0 1 .07-.618l-.706-.707a1.5 1.5 0 0 0-.212 1.855l.848-.53zm1.25 3.026a1.5 1.5 0 0 0-.152-1.27l-.848.53a.5.5 0 0 1 .05.424l.95.316zM8.44 16.77a1.5 1.5 0 0 0 1.129-.996l-.949-.317a.5.5 0 0 1-.376.333l.196.98zm-2.567.924a.5.5 0 0 1 .402-.49l-.196-.981a1.5 1.5 0 0 0-1.206 1.47h1zm.402 3.096a.5.5 0 0 1-.402-.49h-1a1.5 1.5 0 0 0 1.206 1.47l.196-.98zm3.294 1.43a1.5 1.5 0 0 0-1.129-.997l-.196.98a.5.5 0 0 1 .376.333l.949-.317zm.224 2.394a1.5 1.5 0 0 0 .151-1.269l-.949.316a.5.5 0 0 1-.05.423l.848.53zm-1.027 2.375a.5.5 0 0 1-.07-.618l-.849-.53a1.5 1.5 0 0 0 .212 1.855l.707-.707zm2.662 2.055a.5.5 0 0 1-.654-.046l-.707.707a1.5 1.5 0 0 0 1.96.14l-.6-.8zm3.213-1.373a1.5 1.5 0 0 0-1.571.142l.6.8a.5.5 0 0 1 .524-.047l.447-.895zm1.933 1.614a1.5 1.5 0 0 0-.8-1.048l-.448.895a.5.5 0 0 1 .267.349l.98-.196zm.94 2.657a.5.5 0 0 1-.49-.402l-.98.196a1.5 1.5 0 0 0 1.47 1.206v-1zm3.097-.402a.5.5 0 0 1-.49.401v1a1.5 1.5 0 0 0 1.47-1.205l-.98-.197zm1.43-3.295a1.5 1.5 0 0 0-.997 1.13l.98.195a.5.5 0 0 1 .333-.376l-.316-.949zm2.45-.135a1.5 1.5 0 0 0-1.375-.223l.316.949a.5.5 0 0 1 .458.074l.6-.8zm2.37 1.242a.5.5 0 0 1-.653.046l-.6.8a1.5 1.5 0 0 0 1.96-.14l-.707-.706zm2.358-2.965a.5.5 0 0 1-.046.653l.707.707a1.5 1.5 0 0 0 .14-1.96l-.8.6zm-1.51-3.092a1.5 1.5 0 0 0 .222 1.374l.8-.6a.5.5 0 0 1-.074-.458l-.949-.316zm1.487-2.072a1.5 1.5 0 0 0-1.13.996l.95.317a.5.5 0 0 1 .376-.332l-.196-.981zm2.567-.923a.5.5 0 0 1-.402.49l.196.98a1.5 1.5 0 0 0 1.206-1.47h-1zm-.402-3.097a.5.5 0 0 1 .402.49h1a1.5 1.5 0 0 0-1.206-1.47l-.196.98zm-3.294-1.43a1.5 1.5 0 0 0 1.129.997l.196-.98a.5.5 0 0 1-.377-.333l-.948.317zm-.136-2.449a1.5 1.5 0 0 0-.223 1.374l.949-.316a.5.5 0 0 1 .074-.458l-.8-.6zm1.242-2.371a.5.5 0 0 1 .046.653l.8.6a1.5 1.5 0 0 0-.139-1.96l-.707.707zm-2.946-2.286a.5.5 0 0 1 .683.023l.707-.707a1.5 1.5 0 0 0-2.049-.069l.659.753z"/>
    </g>
</svg>
