<?xml version="1.0" encoding="UTF-8"?>
<svg data-bbox="0 0 54 22" xmlns="http://www.w3.org/2000/svg" viewBox="0 0 54 22" height="22" width="54" data-type="color">
    <g>
        <path fill="#DF927E" d="M54 4v14a4 4 0 0 1-4 4H4a4 4 0 0 1-4-4V4a4 4 0 0 1 4-4h46a4 4 0 0 1 4 4z" data-color="1"/>
        <path fill="#ffffff" d="M15.351 13.375c0-.169-.025-.319-.075-.451a.916.916 0 0 0-.274-.376 2.502 2.502 0 0 0-.56-.342 6.909 6.909 0 0 0-.95-.362c-.447-.146-.873-.31-1.279-.492a5.508 5.508 0 0 1-1.073-.65 2.841 2.841 0 0 1-.745-.861c-.178-.328-.267-.711-.267-1.149 0-.423.094-.806.28-1.148.188-.342.45-.634.787-.875a3.68 3.68 0 0 1 1.19-.56 5.386 5.386 0 0 1 1.503-.199c.73 0 1.37.13 1.921.39.556.255.989.615 1.299 1.08.31.46.465.996.465 1.606h-2.215a1.44 1.44 0 0 0-.171-.71 1.15 1.15 0 0 0-.506-.493c-.223-.118-.503-.178-.84-.178-.329 0-.605.05-.828.15a1.128 1.128 0 0 0-.499.397.997.997 0 0 0-.164.554c0 .16.041.305.123.438.087.127.21.248.37.362.163.11.364.214.6.314.238.1.509.196.814.287a9.736 9.736 0 0 1 1.415.561 4.45 4.45 0 0 1 1.046.697c.283.26.495.554.636.882.146.328.219.7.219 1.114 0 .442-.087.834-.26 1.176a2.42 2.42 0 0 1-.738.875 3.433 3.433 0 0 1-1.149.54 5.632 5.632 0 0 1-1.497.185c-.501 0-.996-.064-1.483-.192a4.39 4.39 0 0 1-1.326-.601 3.081 3.081 0 0 1-.944-1.026c-.232-.419-.348-.916-.348-1.49h2.228c0 .3.043.556.13.766.087.205.21.371.37.499.163.127.361.219.594.273.232.055.492.082.78.082.332 0 .6-.045.806-.136a1.02 1.02 0 0 0 .465-.39c.1-.164.15-.347.15-.547zm6.905-4.771V10.1h-4.39V8.604h4.39zM18.872 6.77h2.14v6.912c0 .205.024.362.075.471a.44.44 0 0 0 .246.233c.114.04.26.061.437.061a3.372 3.372 0 0 0 .581-.048v1.545a3.73 3.73 0 0 1-.58.137 3.829 3.829 0 0 1-.67.055c-.461 0-.86-.076-1.197-.226a1.61 1.61 0 0 1-.766-.71c-.177-.329-.266-.755-.266-1.28V6.77zm8.47 7.445V8.604h2.146V16h-2.01l-.136-1.784zm.225-1.51.588-.015c0 .497-.059.955-.178 1.374a3.2 3.2 0 0 1-.519 1.094c-.228.31-.513.552-.854.725-.338.168-.732.253-1.183.253-.365 0-.7-.05-1.005-.15a2.05 2.05 0 0 1-.78-.486 2.23 2.23 0 0 1-.505-.854c-.119-.351-.178-.77-.178-1.258V8.604h2.133v4.798c0 .192.023.356.068.493a.97.97 0 0 0 .198.328c.087.086.192.15.315.191.128.041.267.062.417.062.378 0 .675-.078.889-.233.218-.16.371-.371.458-.636a2.8 2.8 0 0 0 .136-.902zm7.336 1.64V5.5h2.146V16h-1.928l-.218-1.654zm-4.608-1.955v-.144c0-.56.062-1.07.185-1.531.127-.465.312-.864.553-1.196a2.54 2.54 0 0 1 .91-.78c.36-.182.772-.273 1.237-.273.428 0 .802.095 1.121.287.32.187.59.451.813.793.228.337.413.736.554 1.196.142.456.249.95.322 1.484v.246c-.069.51-.176.986-.322 1.428a4.544 4.544 0 0 1-.553 1.17 2.542 2.542 0 0 1-.82.785c-.32.187-.696.28-1.129.28-.465 0-.877-.093-1.237-.28a2.548 2.548 0 0 1-.895-.786 3.766 3.766 0 0 1-.554-1.19 5.703 5.703 0 0 1-.185-1.49zm2.133-.144v.144c0 .291.02.563.062.813.045.25.118.472.218.663.1.192.233.342.397.451.164.105.364.158.601.158.32 0 .581-.073.786-.22.206-.15.36-.357.465-.621.105-.265.16-.572.164-.923v-.718a3.2 3.2 0 0 0-.089-.786 1.663 1.663 0 0 0-.266-.588 1.101 1.101 0 0 0-.43-.362 1.36 1.36 0 0 0-.616-.13c-.232 0-.43.055-.595.164a1.193 1.193 0 0 0-.403.444c-.1.192-.175.417-.226.677a4.75 4.75 0 0 0-.068.834zm7.992 2.899 1.934-6.542h2.297l-2.974 8.503c-.063.187-.15.388-.26.602-.104.214-.248.42-.43.615a1.999 1.999 0 0 1-.684.479c-.278.123-.62.184-1.025.184a2.57 2.57 0 0 1-.479-.034 5.878 5.878 0 0 1-.437-.096l-.007-1.551h.157c.05.004.1.006.15.006.256 0 .46-.027.616-.082a.777.777 0 0 0 .369-.246 1.17 1.17 0 0 0 .219-.403l.553-1.435zm-.65-6.542 1.531 5.263.26 2.263-1.442.075-2.646-7.601h2.297z" data-color="2"/>
    </g>
</svg>
