<?xml version="1.0" encoding="UTF-8"?><svg id="_层_2" xmlns="http://www.w3.org/2000/svg" xmlns:xlink="http://www.w3.org/1999/xlink" viewBox="0 0 362 361"><defs><style>.cls-1,.cls-2{stroke-width:4px;}.cls-1,.cls-2,.cls-3,.cls-4,.cls-5,.cls-6,.cls-7,.cls-8,.cls-9,.cls-10,.cls-11,.cls-12{stroke:#000;}.cls-1,.cls-2,.cls-4,.cls-7{fill:none;}.cls-1,.cls-3,.cls-5,.cls-6,.cls-7,.cls-8,.cls-9,.cls-10,.cls-11,.cls-12{stroke-miterlimit:10;}.cls-2,.cls-4{stroke-linecap:round;stroke-linejoin:round;}.cls-13{letter-spacing:0em;}.cls-3,.cls-7{stroke-width:.75px;}.cls-3,.cls-14{fill:#fff;}.cls-4{stroke-width:5px;}.cls-5,.cls-9,.cls-10{stroke-width:.25px;}.cls-5,.cls-12{fill:#7d919a;}.cls-6{stroke-width:3px;}.cls-15{letter-spacing:0em;}.cls-8,.cls-10{fill:#a0adbd;}.cls-9,.cls-11{fill:#aab8bb;}.cls-14{filter:url(#drop-shadow-1);}.cls-16{letter-spacing:-.05em;}.cls-17{letter-spacing:0em;}.cls-18{fill:#efede4;}.cls-19{letter-spacing:-.02em;}.cls-20{font-family:COCOGOOSE, COCOGOOSE;font-size:18.74px;}.cls-21{letter-spacing:-.02em;}.cls-22{fill:#dff1f9;}.cls-23{letter-spacing:-.02em;}.cls-24{fill:#fddddd;}</style><filter id="drop-shadow-1" filterUnits="userSpaceOnUse"><feOffset dx="2" dy="5"/><feGaussianBlur result="blur" stdDeviation="5"/><feFlood flood-color="#6d6d6d" flood-opacity=".5"/><feComposite in2="blur" operator="in"/><feComposite in="SourceGraphic"/></filter></defs><g id="outline"><rect class="cls-14" x="13.87" y="10.3" width="330.21" height="330.21" rx="30.04" ry="30.04"/></g><g id="Layer_8"><g><circle class="cls-3" cx="191.2" cy="175.51" r="28.92"/><text class="cls-20" transform="translate(175.16 183.51)"><tspan x="0" y="0">PIC</tspan></text></g><g><rect class="cls-12" x="110.72" y="189.55" width="2.19" height="30.14" rx=".99" ry=".99" transform="translate(-1.2 .66) rotate(-.34)"/><rect class="cls-3" x="117.31" y="194.49" width="2.19" height="13.28" rx=".99" ry=".99" transform="translate(-1.18 .7) rotate(-.34)"/><rect class="cls-12" x="130.52" y="189.94" width="2.19" height="33.69" rx=".99" ry=".99" transform="translate(-1.21 .78) rotate(-.34)"/><rect class="cls-12" x="137.05" y="195.02" width="2.19" height="33.9" rx=".99" ry=".99" transform="translate(-1.24 .82) rotate(-.34)"/><rect class="cls-3" x="150.5" y="212.1" width="2.19" height="12.86" rx=".99" ry=".99" transform="translate(-1.28 .89) rotate(-.34)"/><path class="cls-12" d="M168.12,187.31c-5.82,1.41-8.12,6.63-9.75,9.53-1.63,2.9-6.42,14.66-10.03,22.98-3.61,8.32-8.58,11.41-8.58,11.41l8.34-.05s4.08-2.21,8.16-10.49c4.08-8.28,8.9-22.26,11.63-26.1s4.21-6.38,8.57-7.33l-8.34,.05Z"/><path class="cls-8" d="M103.65,187.69c-5.82,1.41-8.12,6.63-9.75,9.53s-6.42,14.66-10.03,22.98c-3.61,8.32-8.58,11.41-8.58,11.41l8.34-.05s4.08-2.21,8.16-10.49c4.08-8.28,8.9-22.26,11.63-26.1,2.73-3.83,4.21-6.38,8.57-7.33l-8.34,.05Z"/><path class="cls-8" d="M189.34,187.19c-5.82,1.41-8.12,6.63-9.75,9.53-1.63,2.9-6.42,14.66-10.03,22.98s-8.58,11.41-8.58,11.41l8.34-.05s4.08-2.21,8.16-10.49c4.08-8.28,8.9-22.26,11.63-26.1,2.73-3.83,4.21-6.38,8.57-7.33l-8.34,.05Z"/><rect class="cls-12" x="143.53" y="208.74" width="2.19" height="18.62" rx=".99" ry=".99" transform="translate(-1.28 .85) rotate(-.34)"/><rect class="cls-12" x="97.73" y="201.76" width="2.19" height="29.7" rx=".99" ry=".99" transform="translate(-1.27 .58) rotate(-.34)"/><rect class="cls-12" x="104.05" y="191.32" width="2.19" height="37.38" rx=".99" ry=".99" transform="translate(-1.23 .62) rotate(-.34)"/><path class="cls-8" d="M124.25,187.57c-5.82,1.41-8.12,6.63-9.75,9.53s-6.42,14.66-10.03,22.98c-3.61,8.32-8.58,11.41-8.58,11.41l8.34-.05s4.08-2.21,8.16-10.49c4.08-8.28,8.9-22.26,11.63-26.1s4.21-6.38,8.57-7.33l-8.34,.05Z"/><rect class="cls-8" x="157.17" y="201.69" width="2.19" height="27.12" rx=".99" ry=".99" transform="translate(-1.26 .93) rotate(-.34)"/><rect class="cls-12" x="163.74" y="190.75" width="2.19" height="37.59" rx=".99" ry=".99" transform="translate(-1.23 .97) rotate(-.34)"/><rect class="cls-12" x="169.73" y="188.7" width="2.19" height="30.14" rx=".99" ry=".99" transform="translate(-1.19 1.01) rotate(-.34)"/><rect class="cls-12" x="123.98" y="192.82" width="2.19" height="16.7" rx=".99" ry=".99" transform="translate(-1.18 .74) rotate(-.34)"/><path class="cls-11" d="M157.1,231.13c-5.84-1.34-8.19-6.53-9.86-9.41-1.66-2.88-6.6-14.59-10.3-22.86-3.71-8.27-8.71-11.31-8.71-11.31l8.34-.05s4.1,2.17,8.28,10.4,9.17,22.16,11.94,25.96c2.77,3.8,4.29,6.33,8.65,7.22l-8.34,.05Z"/><path class="cls-11" d="M136.31,231.25c-5.84-1.34-8.19-6.53-9.86-9.41s-6.6-14.59-10.3-22.86c-3.71-8.27-8.71-11.31-8.71-11.31l8.34-.05s4.1,2.17,8.28,10.4c4.18,8.23,9.17,22.16,11.94,25.96,2.77,3.8,4.29,6.33,8.65,7.22l-8.34,.05Z"/><rect class="cls-12" x="194.48" y="189.53" width="2.19" height="33.69" rx=".99" ry=".99" transform="translate(-1.21 1.15) rotate(-.34)"/><rect class="cls-12" x="201.02" y="194.61" width="2.19" height="33.9" rx=".99" ry=".99" transform="translate(-1.24 1.19) rotate(-.34)"/><rect class="cls-3" x="214.46" y="211.69" width="2.19" height="12.86" rx=".99" ry=".99" transform="translate(-1.28 1.27) rotate(-.34)"/><path class="cls-12" d="M232.08,186.9c-5.82,1.41-8.12,6.63-9.75,9.53-1.63,2.9-6.42,14.66-10.03,22.98s-8.58,11.41-8.58,11.41l8.34-.05s4.08-2.21,8.16-10.49c4.08-8.28,8.9-22.26,11.63-26.1s4.21-6.38,8.57-7.33l-8.34,.05Z"/><path class="cls-8" d="M253.3,186.78c-5.82,1.41-8.12,6.63-9.75,9.53s-6.42,14.66-10.03,22.98-8.58,11.41-8.58,11.41l8.34-.05s4.08-2.21,8.16-10.49c4.08-8.28,8.9-22.26,11.63-26.1,2.73-3.83,4.21-6.38,8.57-7.33l-8.34,.05Z"/><rect class="cls-12" x="207.49" y="208.33" width="2.19" height="18.62" rx=".99" ry=".99" transform="translate(-1.28 1.23) rotate(-.34)"/><rect class="cls-8" x="221.13" y="201.28" width="2.19" height="27.12" rx=".99" ry=".99" transform="translate(-1.26 1.31) rotate(-.34)"/><rect class="cls-12" x="227.71" y="190.35" width="2.19" height="37.59" rx=".99" ry=".99" transform="translate(-1.22 1.35) rotate(-.34)"/><rect class="cls-12" x="233.69" y="188.29" width="2.19" height="30.14" rx=".99" ry=".99" transform="translate(-1.19 1.38) rotate(-.34)"/><rect class="cls-12" x="187.94" y="192.41" width="2.19" height="16.7" rx=".99" ry=".99" transform="translate(-1.18 1.11) rotate(-.34)"/><path class="cls-11" d="M221.06,230.72c-5.84-1.34-8.19-6.53-9.86-9.41-1.66-2.88-6.6-14.59-10.3-22.86s-8.71-11.31-8.71-11.31l8.34-.05s4.1,2.17,8.28,10.4,9.17,22.16,11.94,25.96,4.29,6.33,8.65,7.22l-8.34,.05Z"/><path class="cls-11" d="M200.27,230.84c-5.84-1.34-8.19-6.53-9.86-9.41-1.66-2.88-6.6-14.59-10.3-22.86-3.71-8.27-8.71-11.31-8.71-11.31l8.34-.05s4.1,2.17,8.28,10.4c4.18,8.23,9.17,22.16,11.94,25.96,2.77,3.8,4.29,6.33,8.65,7.22l-8.34,.05Z"/><rect class="cls-12" x="258.35" y="189.12" width="2.19" height="33.69" rx=".99" ry=".99" transform="translate(-1.21 1.53) rotate(-.34)"/><rect class="cls-12" x="264.89" y="194.2" width="2.19" height="33.9" rx=".99" ry=".99" transform="translate(-1.24 1.57) rotate(-.34)"/><rect class="cls-3" x="278.33" y="211.28" width="2.19" height="12.86" rx=".99" ry=".99" transform="translate(-1.27 1.65) rotate(-.34)"/><path class="cls-12" d="M295.95,186.49c-5.82,1.41-8.12,6.63-9.75,9.53s-6.42,14.66-10.03,22.98c-3.61,8.32-8.58,11.41-8.58,11.41l8.34-.05s4.08-2.21,8.16-10.49,8.9-22.26,11.63-26.1,4.21-6.38,8.57-7.33l-8.34,.05Z"/><path class="cls-8" d="M317.17,186.37c-5.82,1.41-8.12,6.63-9.75,9.53-1.63,2.9-6.42,14.66-10.03,22.98s-8.58,11.41-8.58,11.41l8.34-.05s4.08-2.21,8.16-10.49c4.08-8.28,8.9-22.26,11.63-26.1,2.73-3.83,4.21-6.38,8.57-7.33l-8.34,.05Z"/><rect class="cls-12" x="271.36" y="207.92" width="2.19" height="18.62" rx=".99" ry=".99" transform="translate(-1.27 1.6) rotate(-.34)"/><rect class="cls-8" x="285.01" y="200.87" width="2.19" height="27.12" rx=".99" ry=".99" transform="translate(-1.26 1.69) rotate(-.34)"/><rect class="cls-12" x="291.58" y="189.94" width="2.19" height="37.59" rx=".99" ry=".99" transform="translate(-1.22 1.72) rotate(-.34)"/><rect class="cls-12" x="297.56" y="187.88" width="2.19" height="30.14" rx=".99" ry=".99" transform="translate(-1.19 1.76) rotate(-.34)"/><rect class="cls-12" x="251.81" y="192" width="2.19" height="16.7" rx=".99" ry=".99" transform="translate(-1.17 1.49) rotate(-.34)"/><path class="cls-11" d="M284.93,230.31c-5.84-1.34-8.19-6.53-9.86-9.41-1.66-2.88-6.6-14.59-10.3-22.86-3.71-8.27-8.71-11.31-8.71-11.31l8.34-.05s4.1,2.17,8.28,10.4c4.18,8.23,9.17,22.16,11.94,25.96s4.29,6.33,8.65,7.22l-8.34,.05Z"/><path class="cls-11" d="M264.14,230.43c-5.84-1.34-8.19-6.53-9.86-9.41-1.66-2.88-6.6-14.59-10.3-22.86-3.71-8.27-8.71-11.31-8.71-11.31l8.34-.05s4.1,2.17,8.28,10.4c4.18,8.23,9.17,22.16,11.94,25.96,2.77,3.8,4.29,6.33,8.65,7.22l-8.34,.05Z"/></g><g><rect class="cls-5" x="242.05" y="39.62" width="1.43" height="19.69" rx=".65" ry=".65" transform="translate(233.06 -198.1) rotate(76.24)"/><rect class="cls-5" x="245.28" y="48.79" width="1.43" height="8.67" rx=".65" ry=".65" transform="translate(239.07 -198.44) rotate(76.24)"/><rect class="cls-5" x="243.69" y="51.38" width="1.43" height="22.01" rx=".65" ry=".65" transform="translate(246.84 -189.84) rotate(76.24)"/><rect class="cls-5" x="241.38" y="56.25" width="1.43" height="22.15" rx=".65" ry=".65" transform="translate(249.89 -183.84) rotate(76.24)"/><rect class="cls-5" x="239.25" y="72.66" width="1.43" height="8.4" rx=".65" ry=".65" transform="translate(257.53 -174.5) rotate(76.24)"/><path class="cls-5" d="M262.31,82.62c-1.78-3.48-5.44-4.15-7.53-4.75s-10.29-1.86-16.12-2.89-8.55-3.72-8.55-3.72l1.3,5.29s2.02,2.25,7.91,3.59,15.5,2.28,18.35,3.43c2.85,1.15,4.7,1.71,5.96,4.33l-1.3-5.29Z"/><path class="cls-10" d="M252.29,41.71c-1.78-3.48-5.44-4.15-7.53-4.75-2.09-.6-10.29-1.86-16.12-2.89s-8.55-3.72-8.55-3.72l1.3,5.29s2.02,2.25,7.91,3.59c5.88,1.34,15.5,2.28,18.35,3.43,2.85,1.15,4.7,1.71,5.96,4.33l-1.3-5.29Z"/><rect class="cls-5" x="238.5" y="66.27" width="1.43" height="12.17" rx=".65" ry=".65" transform="translate(252.58 -177.2) rotate(76.24)"/><rect class="cls-5" x="232.46" y="33.33" width="1.43" height="19.41" rx=".65" ry=".65" transform="translate(219.5 -193.69) rotate(76.24)"/><rect class="cls-5" x="237.62" y="33.84" width="1.43" height="24.42" rx=".65" ry=".65" transform="translate(226.36 -196.4) rotate(76.24)"/><rect class="cls-5" x="242.35" y="71.74" width="1.43" height="17.72" rx=".65" ry=".65" transform="translate(263.52 -174.66) rotate(76.24)"/><rect class="cls-5" x="246.97" y="71.63" width="1.43" height="24.56" rx=".65" ry=".65" transform="translate(270.26 -176.62) rotate(76.24)"/><rect class="cls-5" x="251.55" y="76.99" width="1.43" height="19.69" rx=".65" ry=".65" transform="translate(276.59 -178.84) rotate(76.24)"/><rect class="cls-5" x="246.26" y="51.92" width="1.43" height="10.91" rx=".65" ry=".65" transform="translate(243.94 -196.16) rotate(76.24)"/><path class="cls-9" d="M229.57,69.07c-.03-3.91,2.91-6.2,4.48-7.69,1.58-1.49,8.27-6.4,12.96-10.01,4.7-3.61,5.86-7.25,5.86-7.25l1.3,5.29s-.75,2.94-5.35,6.84c-4.6,3.9-12.69,9.19-14.68,11.52-1.99,2.34-3.38,3.68-3.28,6.6l-1.3-5.29Z"/><rect class="cls-5" x="253.65" y="91.96" width="1.43" height="22.01" rx=".65" ry=".65" transform="translate(293.85 -168.59) rotate(76.24)"/><rect class="cls-5" x="251.34" y="96.83" width="1.43" height="22.15" rx=".65" ry=".65" transform="translate(296.9 -162.59) rotate(76.24)"/><rect class="cls-5" x="249.21" y="113.24" width="1.43" height="8.4" rx=".65" ry=".65" transform="translate(304.53 -153.25) rotate(76.24)"/><path class="cls-5" d="M272.27,123.21c-1.78-3.48-5.44-4.15-7.53-4.75s-10.29-1.86-16.12-2.89c-5.83-1.03-8.55-3.72-8.55-3.72l1.3,5.29s2.02,2.25,7.91,3.59c5.88,1.34,15.5,2.28,18.35,3.43,2.85,1.15,4.7,1.71,5.96,4.33l-1.3-5.29Z"/><rect class="cls-5" x="248.46" y="106.85" width="1.43" height="12.17" rx=".65" ry=".65" transform="translate(299.59 -155.95) rotate(76.24)"/><rect class="cls-5" x="252.31" y="112.32" width="1.43" height="17.72" rx=".65" ry=".65" transform="translate(310.53 -153.41) rotate(76.24)"/><rect class="cls-5" x="256.93" y="112.22" width="1.43" height="24.56" rx=".65" ry=".65" transform="translate(317.27 -155.37) rotate(76.24)"/><rect class="cls-5" x="261.51" y="117.58" width="1.43" height="19.69" rx=".65" ry=".65" transform="translate(323.6 -157.59) rotate(76.24)"/><rect class="cls-5" x="256.22" y="92.5" width="1.43" height="10.91" rx=".65" ry=".65" transform="translate(290.95 -174.91) rotate(76.24)"/><path class="cls-9" d="M239.53,109.66c-.03-3.91,2.91-6.2,4.48-7.69,1.58-1.49,8.27-6.4,12.96-10.01,4.7-3.61,5.86-7.25,5.86-7.25l1.3,5.29s-.75,2.94-5.35,6.84c-4.6,3.9-12.69,9.19-14.68,11.52s-3.38,3.68-3.28,6.6l-1.3-5.29Z"/><rect class="cls-5" x="263.6" y="132.48" width="1.43" height="22.01" rx=".65" ry=".65" transform="translate(340.8 -147.37) rotate(76.24)"/><rect class="cls-5" x="261.29" y="137.35" width="1.43" height="22.15" rx=".65" ry=".65" transform="translate(343.84 -141.37) rotate(76.24)"/><rect class="cls-5" x="259.16" y="153.76" width="1.43" height="8.4" rx=".65" ry=".65" transform="translate(351.48 -132.03) rotate(76.24)"/><path class="cls-5" d="M282.22,163.73c-1.78-3.48-5.44-4.15-7.53-4.75s-10.29-1.86-16.12-2.89c-5.83-1.03-8.55-3.72-8.55-3.72l1.3,5.29s2.02,2.25,7.91,3.59c5.88,1.34,15.5,2.28,18.35,3.43,2.85,1.15,4.7,1.71,5.96,4.33l-1.3-5.29Z"/><rect class="cls-5" x="258.41" y="147.38" width="1.43" height="12.17" rx=".65" ry=".65" transform="translate(346.53 -134.73) rotate(76.24)"/><rect class="cls-5" x="262.26" y="152.85" width="1.43" height="17.72" rx=".65" ry=".65" transform="translate(357.48 -132.19) rotate(76.24)"/><rect class="cls-5" x="266.88" y="152.74" width="1.43" height="24.56" rx=".65" ry=".65" transform="translate(364.21 -134.15) rotate(76.24)"/><rect class="cls-5" x="271.46" y="158.1" width="1.43" height="19.69" rx=".65" ry=".65" transform="translate(370.55 -136.37) rotate(76.24)"/><rect class="cls-5" x="266.17" y="133.03" width="1.43" height="10.91" rx=".65" ry=".65" transform="translate(337.9 -153.69) rotate(76.24)"/><path class="cls-9" d="M249.48,150.18c-.03-3.91,2.91-6.2,4.48-7.69,1.58-1.49,8.27-6.4,12.96-10.01,4.7-3.61,5.86-7.25,5.86-7.25l1.3,5.29s-.75,2.94-5.35,6.84-12.69,9.19-14.68,11.52c-1.99,2.34-3.38,3.68-3.28,6.6l-1.3-5.29Z"/></g><g><g><path class="cls-22" d="M111.07,186.12c.2,.28,.19,.58,.16,1.08-.03,.37,0,.58-.22,.99-.12,.21-.24,.35-.39,.45-.37,.26-.79,.18-1.34,.17-.56-.01-.97,.18-1.5,.43-.96,.46-1.51,1.14-1.9,1.63-.39,.48-.55,.81-.93,1.5-.99,1.78-1.06,1.65-1.71,2.85-1.05,1.94-.84,2.2-1.69,3.58-.6,.97-1.18,1.59-1.76,2.22-.1,.11-.21,.22-.33,.35-.82,.85-2.16,2.08-4.04,3.22-.9,.55-2.77,1.41-4.33,1.96,.65-1.12,.66-2.26,.67-2.89,0-.11,0-.27-.01-.46h.01c.39-.15,.9-.37,1.47-.67,.29-.15,.98-.53,2.04-1.29,1.25-.91,2.14-1.55,3.06-2.68,.35-.43,.62-.83,.82-1.14,.22-.35,.35-.59,.39-.67,.36-.7,.42-1.03,.73-1.8,.31-.78,.65-1.38,1.33-2.6,.92-1.64,1.38-2.46,1.94-3.14,.48-.59,1.18-1.44,2.35-2.21,1.16-.77,2.09-1,2.92-1.21,.22-.05,1.3-.32,1.97,.09,.18,.11,.28,.23,.3,.27Z"/><path class="cls-22" d="M102.16,223.31c.08,.88-.2,1.57-.34,1.92-.44,1.06-1.14,1.68-1.78,2.23-.67,.57-1.23,.89-1.95,1.3-.08,.04-.16,.09-.23,.13-.94,.51-1.73,.83-2.69,1.2-.95,.37-1.15,.41-2.76,1.01-.31,.12-1.31,.41-1.48,.48-.03-.53-.13-.93-.19-1.14-.15-.59-.36-1.04-.62-1.49l.06-.03c.49-.13,1.14-.32,1.89-.57,.6-.2,1.53-.5,2.69-1.01,1.46-.64,2.29-1.16,2.75-1.47,.84-.57,1.27-.98,1.51-1.52,.09-.21,.22-.56,.31-.97,.09-.38,.06-1.07,.08-1.32h0c.83-.59,1.29-1.07,1.59-1.48,.17,.23,.64,.96,.82,1.38,.11,.26,.31,.75,.36,1.37Z"/><path class="cls-22" d="M101.82,217.46c.14,1.25-.33,2.2-.51,2.56-.08,.17-.19,.35-.33,.55-.3,.41-.76,.89-1.59,1.48h0c-.24,.18-.51,.36-.82,.55-.88,.55-2.25,1.3-5.37,2.37-1.07,.37-3.22,.9-5.04,1.38-.1-.14-.21-.31-.34-.51-.43-.71-.69-1.4-.86-1.97h.05c.14-.04,.3-.08,.48-.12,.82-.18,1.45-.3,2.3-.54,.59-.17,.27-.06,2.35-.76,1.74-.59,2.29-.83,2.55-.94,.81-.36,1.37-.68,1.82-.94,0,0,.79-.46,1.98-1.53,.13-.12,.38-.35,.45-.72,.04-.22,0-.4-.03-.48-.39-1.45-.85-2.3-.85-2.3-.56-1.19-1.13-2.01-1.29-2.24-.36-.5-1.09-1.33-1.77-2,1.07,.52,2.95,1.47,3.53,1.86,1.1,.75,1.76,1.24,2.32,2,.31,.44,.85,1.19,.97,2.31Z"/><path class="cls-24" d="M99.55,201.46c.02,.59,0,1.41-.17,2.35-.37,2.13-1.23,3.6-1.49,4.01-1.06,1.73-2.35,2.74-3.09,3.27-.06,.04-.12,.08-.17,.12,0,0-2.39,1.69-5.95,2.28-.89,.15-1.73,.16-1.73,.16-.19,0-.36,0-.46,0h-.04c-.04-1.45,.61-2.57,.88-3.02,.28-.46,.57-.79,1.15-1.43,1.53-1.68,1.98-1.66,2.53-2.58,.02-.03,.03-.05,.05-.08,1.56-.55,3.43-1.41,4.33-1.96,1.88-1.14,3.22-2.36,4.04-3.22l.1,.09Z"/><path class="cls-24" d="M99.39,222.05c-.01,.25,.01,.94-.08,1.32-.09,.41-.22,.76-.31,.97-.25,.54-.67,.96-1.51,1.52-.47,.31-1.3,.84-2.75,1.47-1.15,.51-2.08,.81-2.69,1.01-.75,.25-1.4,.44-1.89,.57l-.06,.03c-.11-.19-.22-.39-.35-.59-.74-1.22-1.09-1.32-1.6-2.01,1.82-.47,3.97-1.01,5.04-1.38,3.12-1.07,4.49-1.82,5.37-2.37,.31-.19,.58-.37,.82-.55Z"/><path class="cls-24" d="M99.08,197.36l.06,.04c-.19,.31-.47,.71-.82,1.14-.92,1.13-1.81,1.77-3.06,2.68-1.06,.76-1.75,1.14-2.04,1.29-.58,.31-1.09,.52-1.47,.67h-.01c-.03-.68-.19-1.8-.89-2.95-.92-1.54-2.23-2.2-2.49-2.33-1.18-.58-2.24-.6-2.74-.6-.35,0-1.49,.02-2.82,.6-.54,.23-1.86,.84-2.88,2.28-.1,.14-.27,.39-.45,.71l-.06-.03c-.38-.67-.71-1.16-.9-1.43-2.06-3-4.52-4.5-5.83-5.28-.54-.33-1.25-.75-2.11-1.13,1.06-1.31,2.25-3.07,3.05-3.75,2.34-1.96,4.52-2.95,5.58-3.39,1.39-.57,2.43-.81,2.97-.91,.16-.03,.28-.05,.35-.06,1.59-.23,2.79-.08,3.04-.05,.35,.05,1.47,.22,2.88,.83,1.56,.68,2.52,1.48,3.99,2.72,1.24,1.05,2.6,2.2,4.03,4.06,1.48,1.92,2.07,3.34,2.33,4.03,.13,.34,.22,.63,.28,.83Z"/><path class="cls-24" d="M98.91,217.83c.02,.08,.07,.26,.03,.48-.06,.36-.32,.6-.45,.72-1.19,1.07-1.98,1.53-1.98,1.53-.45,.26-1,.58-1.82,.94-.26,.12-.81,.36-2.55,.94-2.08,.7-1.76,.59-2.35,.76-.85,.24-1.48,.37-2.3,.54-.18,.04-.34,.08-.48,.1h-.05c-.2-.69-.26-1.24-.28-1.47-.03-.39-.02-.72,0-1.38,.06-1.68,.26-1.89,.28-3.18,.01-1.06-.11-1.94-.17-2.39-.18-1.23-.3-1.15-.32-1.77h.04c.1,0,.26,0,.46,0,0,0,.84-.01,1.73-.16,3.55-.59,5.95-2.28,5.95-2.28,.05-.04,.1-.08,.17-.12,.06,.06,.13,.13,.2,.19,.68,.67,1.41,1.49,1.77,2,.16,.23,.74,1.05,1.29,2.24,0,0,.47,.86,.85,2.3Z"/><path class="cls-24" d="M97.85,228.89c-.12,.16-.56,.83-.76,1.07-.12,.14-.58,.67-1.29,1.28-.25,.21-.67,.56-1.25,.93-.71,.46-1.27,.71-1.86,.99-.68,.31-1.07,.44-1.42,.52-.25,.06-.45,.09-.59,.12l-.05-.02c.04-.12,.08-.23,.1-.33,.19-.7,.22-1.35,.19-1.87,.17-.07,1.17-.36,1.48-.48,1.61-.61,1.81-.64,2.76-1.01,.96-.38,1.75-.69,2.69-1.2Z"/><path class="cls-18" d="M83.22,224.61c.21-.5,.44-1.19,.56-2.05,.13-.92,.08-1.67,.04-2.21-.08-1.02-.21-1.07-.28-2.11-.03-.45-.07-1.17,.04-2.08,.1-.87,.22-.89,.35-1.83,.03-.21,.05-.39,.07-.56,.06-.55,.07-.94-.04-1.42-.14-.65-.43-1.07-.87-1.73-.28-.43-.99-1.05-1.56-1.61l-.05-.05h0c2.69-.12,3.45-.74,3.45-.74,.07-.05,.25-.19,.38-.42,.15-.27,.16-.52,.16-.93,0-.37,0-.72-.18-1.09-.06-.13-.19-.37-.41-.4-.12-.02-.22,.04-.24,.05-.59,.32-3.21,.61-5.11,.77-.19-.33-.6-1.25-.72-1.94-.25-1.4,.23-2.61,.65-3.37,.18-.33,.35-.57,.45-.71,1.02-1.45,2.34-2.05,2.88-2.28,1.33-.58,2.47-.6,2.82-.6,.5,0,1.56,.02,2.74,.6,.26,.13,1.56,.79,2.49,2.33,.7,1.15,.86,2.27,.89,2.95,.01,.19,.01,.35,.01,.46,0,.63-.01,1.77-.67,2.89-.02,.03-.03,.05-.05,.08-.56,.92-1.01,.9-2.53,2.58-.58,.65-.88,.97-1.15,1.43-.27,.45-.92,1.58-.88,3.02,.02,.63,.15,.55,.32,1.77,.06,.45,.19,1.32,.17,2.39-.02,1.29-.22,1.5-.28,3.18-.02,.66-.03,.99,0,1.38,.02,.23,.08,.78,.28,1.49,.17,.58,.44,1.26,.86,1.97,.12,.21,.23,.37,.34,.51,.51,.7,.86,.79,1.6,2.01,.12,.2,.24,.39,.35,.59,.26,.45,.47,.9,.62,1.49,.06,.21,.16,.61,.19,1.14,.04,.52,0,1.16-.19,1.87-.03,.1-.06,.21-.1,.33-.25,.73-.79,1.83-1.94,2.67-.28,.21-1.29,.91-2.8,1.04-.64,.05-2.07,.06-3.32-.76-.31-.21-.42-.11-1.36-.96-.26-.23-.57-.83-.82-1.27h0c-.12-.21-.22-.38-.3-.47,.99-.18,2.08-.38,3.33-.61,.56-.1,1.05-.1,2-.36,.08-.02,.26-.07,.41-.22,.21-.21,.23-.48,.28-.9,.03-.32,.01-.58,0-.74-.04-.43-.08-.84-.38-1.06,0,0-.08-.12-.19-.1-2.25,.54-5.35,1.09-5.35,1.09-.19,.04-.36,.07-.52,.1v-.07c-.03-.1-.05-.26-.05-.45,.01-.59,.24-1.03,.38-1.28,.4-.71,.9-1.2,1.33-1.69l.15-.17c.88-1.03,1.32-2.02,1.56-2.56,.05-.12,.11-.25,.17-.4Z"/><path class="cls-22" d="M80.09,234.04c-2.32,.43-4.08,.76-5.95,1.15-2.75,.57-5.23,1.09-8.56,2.02-2.4,.67-4.17,1.26-5.52,1.71-1.41,.47-2.46,.85-3.25,1.15-1.03,.39-1.61,.64-1.9,.77-1.88,.83-3.07,1.52-3.47,1.75-2.37,1.39-3.37,2.41-3.65,2.7-.82,.85-1.58,1.66-1.73,2.71-.19,1.28-.19,1.59-.19,1.59-.01,.58,.04,.84-.15,1.13-.31,.48-.95,.54-1.06,.56-.54,.05-.95-.18-1.13-.29-.18-.11-.37-.22-.51-.43-.26-.4-.17-.86-.12-1.5,.06-.63,.28-1.33,.56-2.12,.32-.95,.79-1.58,1.22-2.14,.63-.84,1.25-1.41,1.84-1.91,1.24-1.07,2.32-1.99,4.06-3.06,1.11-.68,2.16-1.23,3.12-1.66,1.1-.5,2.08-.86,2.89-1.15,4.48-1.6,8.73-2.71,12.86-3.67,8.56-1.99,8.6-1.82,10.23-2.11,.16-.03,.32-.06,.52-.1,0,0,3.09-.54,5.35-1.09,.11-.03,.19,.1,.19,.1,.3,.22,.34,.63,.38,1.06,.01,.16,.03,.41,0,.74-.04,.42-.07,.7-.28,.9-.16,.15-.33,.2-.41,.22-.96,.26-1.44,.26-2,.36-1.25,.23-2.34,.43-3.33,.61Z"/><path class="cls-22" d="M85.3,205.79c.19,.37,.19,.72,.18,1.09,0,.41-.01,.66-.16,.93-.13,.23-.31,.37-.38,.42,0,0-.77,.61-3.45,.73-.23,.01-.48,.02-.74,.02,0,0-2.29,.1-2.54,.16-.05,.01-11.5,.49-11.5,.49-4.27-.07-5.28,.13-8.77-.17-1.65-.14-2.94-.31-3.72-.42-1.71-.23-3.19-.49-4.55-.75-.01,0-.02,0-.03,0-1.49-.29-2.83-.6-4.13-.9-3.91-.9-5.53-1.45-6.33-1.73-1.38-.49-2.6-1-3.68-1.73-.56-.38-1.09-.82-1.58-1.35-1.07-1.16-1.33-2.03-1.42-2.52-.23-1.25,.17-2.41,.21-2.49,.01-.05,.05-.15,.1-.27,.57-1.31,1.61-2.06,2.18-2.45,.44-.31,1.11-.71,2.03-1.02-.4,.82-.63,1.46-.75,1.8-.11,.32-.51,1.51-.75,3.15-.01,.09-.16,.36-.1,.68,.03,.15,.08,.25,.19,.44,.25,.43,.67,.74,.76,.81,.07,.05,1.55,1.03,1.58,1.05,.11,.06,1.73,.95,3.58,1.74,2.27,.98,5.9,1.71,8.37,2.13,1.38,.23,2.41,.37,2.63,.4,8.14,1.07,14.19,.99,15.49,.97,.9-.01,3.77-.21,9.47-.59,0,0,.89-.06,2.05-.16,1.9-.17,4.52-.45,5.11-.77,.02-.01,.12-.07,.24-.05,.21,.03,.34,.27,.41,.4Z"/><path class="cls-24" d="M83.96,212.35c.11,.47,.1,.87,.04,1.42h-.08s-1.6,.1-2.75,.01c-.23-.02-.67-.05-.79-.06l-.11-.05c.31-.62,.52-1.18,.65-1.61,.11-.34,.45-1.46,.54-2.96l.08-.08c.57,.56,1.28,1.19,1.56,1.61,.44,.65,.72,1.08,.87,1.73Z"/><path class="cls-24" d="M83.91,213.76h.08c-.02,.17-.04,.36-.07,.56-.12,.94-.25,.97-.35,1.83-.11,.91-.06,1.63-.04,2.08,.07,1.04,.2,1.09,.28,2.11,.04,.54,.09,1.29-.04,2.21-.12,.87-.35,1.55-.56,2.05-.48,.08-.99,.17-1.51,.25-.33,.05-.66,.1-.99,.14-.11-.34-.27-1.03-.5-1.55-.22-.52-.78-1.71-1.78-3.06-.61-.82-1.41-1.75-1.98-2.28,.56-.38,1.14-.85,1.71-1.44,.98-1.01,1.64-2.07,2.09-2.99l.11,.05c.13,.01,.57,.04,.79,.06,1.15,.09,2.71,0,2.75-.02Z"/><path class="cls-22" d="M35.85,218.23c.05,.08,.21,.32,.34,.5,0,0,.36,.48,.85,.92,1.18,1.06,2.65,1.73,2.65,1.73,1.98,.9,3.85,1.42,5.36,1.83,2.74,.75,4.11,1.12,4.7,1.25,.28,.06,.56,.12,.83,.17,2.78,.53,5.1,.68,8.37,.87,2.36,.14,4.11,.17,5.75,.2,2.69,.04,5.73,.09,9.7-.14,1.28-.07,3.68-.21,6.31-.56,.32-.04,.66-.09,.99-.14,.52-.08,1.03-.16,1.51-.25-.06,.15-.12,.28-.17,.4-.23,.54-.68,1.53-1.56,2.56l-.15,.17c-.35,.05-1.64,.23-1.86,.25-2.05,.19-2.8,.25-3.73,.3-4.14,.22-7.95,.21-7.95,.21-4.03-.01-7.14-.19-8.44-.28-2.16-.14-4.37-.28-7.32-.69-.65-.09-1.33-.18-2.07-.3-1.51-.24-3.24-.56-5.28-1.08,0,0-3.06-.79-7.35-2.72-.25-.11-1.13-.52-2.05-1.25-.43-.34-.86-.74-1.24-1.21-.34-.42-.6-.84-.79-1.34-.39-1.05-.28-1.94-.25-2.17,.13-.91,.52-1.53,.83-2.01,.65-.99,1.4-1.54,2.08-2.03,.51-.37,2.23-1.37,3.24-1.77-.67,.8-1.42,1.81-1.91,2.74-.73,1.4-1.19,2.89-1.38,3.83h-.02Z"/><path class="cls-24" d="M82.16,184.87l.02,.13c-.54,.1-1.58,.34-2.97,.91-1.06,.44-3.24,1.43-5.58,3.39-.8,.67-1.99,2.44-3.05,3.75-1.04-.47-2.3-.88-3.72-1-1.01-.08-2.03-.01-2.19,0-.16,.01-.38,.03-.67,.06-.4-.7-1.58-2.46-2.49-3.42-1.41-1.5-2.8-2.27-3.77-2.81-.56-.3-1.14-.63-1.78-.92,.56-.94,2.15-2.68,3.62-3.99,2.85-2.55,5.62-3.37,6.33-3.53,2.8-.65,5.04-.28,5.6-.17,2.91,.54,4.86,1.91,5.6,2.45,1.68,1.22,3.02,2.77,4.19,4.12,.36,.42,.66,.79,.86,1.04Z"/><path class="cls-24" d="M54.88,218.21c-.3-.2-.61-.42-.91-.67-.4-.33-2.14-1.8-3.3-4.43-.12-.27-.23-.56-.34-.85-.19-.54-.67-2.03-.7-3.99,.01,0,.02,0,.03,0,1.36,.27,2.84,.52,4.55,.75,.78,.11,2.07,.28,3.72,.42,3.49,.3,4.5,.1,8.77,.17,0,0,11.45-.48,11.5-.49,.25-.06,2.54-.16,2.54-.16,.26,0,.5-.01,.74-.02h0l.05,.05-.08,.08c-.09,1.5-.44,2.62-.54,2.96-.14,.43-.35,.99-.65,1.61-.45,.92-1.11,1.98-2.09,2.99-.57,.59-1.15,1.06-1.71,1.44-1.06,.74-2.05,1.15-2.75,1.44-2.38,.97-4.34,1.06-6.58,1.16-1.51,.07-3.78,.16-6.65-.48-2.04-.45-3.84-.85-5.6-2Z"/><path class="cls-24" d="M79.49,227.99c.22-.02,1.51-.21,1.86-.25-.44,.49-.93,.98-1.33,1.69-.14,.25-.37,.69-.38,1.28,0,.19,.02,.34,.04,.45v.07c-1.61,.3-1.65,.12-10.21,2.11-4.13,.96-8.38,2.07-12.86,3.67-.81,.29-1.8,.65-2.89,1.15v-.03c-.09-.06-.19-.16-.32-.27-.23-.21-.94-.87-1.51-1.63-.61-.82-.93-1.6-1.16-2.22-.04-.12-.08-.22-.12-.32-.08-.21-.39-1.13-.58-2.39-.08-.53-.18-1.46-.12-2.63,.03-.5,.04-1.09,.08-1.4v-.05c.75,.12,1.43,.21,2.08,.3,2.95,.41,5.16,.55,7.32,.69,1.3,.08,4.41,.27,8.44,.28,0,0,3.81,0,7.95-.21,.93-.05,1.68-.11,3.73-.3Z"/><path class="cls-24" d="M80.22,223.44c.23,.53,.39,1.21,.5,1.55-2.62,.35-5.03,.49-6.31,.56-3.97,.23-7.01,.18-9.7,.14-1.64-.03-3.39-.06-5.75-.2-3.27-.19-5.59-.34-8.37-.87,.36-.87,.99-1.94,1.3-2.48,.89-1.56,1.79-2.61,2.2-3.06,.24-.27,.62-.69,.8-.87,1.76,1.15,3.56,1.55,5.6,2,2.87,.63,5.14,.55,6.65,.48,2.24-.1,4.21-.19,6.58-1.16,.7-.29,1.69-.7,2.75-1.44,.57,.53,1.37,1.46,1.98,2.28,1.01,1.35,1.56,2.54,1.78,3.06Z"/><path class="cls-24" d="M80.39,234.5h0c-.04,.12-.25,.84-.34,1.02-.36,.72-.8,1.23-1.58,1.97-.89,.85-1.34,1.28-1.98,1.72-.99,.68-1.83,1.01-2.75,1.37-.8,.31-2,.72-3.54,1.01-2.13,.41-3.8,.37-4.9,.35-2.13-.05-3.68-.36-4.92-.6-.8-.16-1.5-.33-2.29-.63-.52-.2-.94-.4-1.24-.54l-.04-.09c.79-.3,1.85-.68,3.25-1.15,1.34-.45,3.11-1.04,5.52-1.71,3.33-.93,5.81-1.45,8.56-2.02,1.87-.39,3.63-.72,5.95-1.15,.08,.08,.18,.25,.3,.46Z"/><path class="cls-24" d="M79.41,200.88l.06,.03c-.43,.76-.9,1.96-.65,3.37,.12,.69,.53,1.61,.72,1.94-1.16,.1-2.05,.16-2.05,.16-5.7,.38-8.57,.57-9.47,.59-1.3,.02-7.35,.1-15.49-.97-.22-.03-1.24-.17-2.63-.4,.03-.13,.06-.26,.09-.39,.45-1.8,1.21-3,2.26-4.66,.66-1.04,1.71-2.68,3.57-4.39,1.14-1.06,2.79-2.57,5.35-3.43,1.09-.36,2.13-.54,2.83-.62,.28-.03,.51-.05,.67-.06,.16-.01,1.18-.08,2.19,0,1.42,.12,2.68,.53,3.72,1,.85,.38,1.56,.8,2.11,1.13,1.31,.78,3.77,2.29,5.83,5.28,.19,.27,.52,.76,.9,1.43Z"/><path class="cls-24" d="M64,192.1c-.7,.08-1.74,.26-2.83,.62-2.56,.85-4.21,2.37-5.35,3.43-1.86,1.71-2.91,3.35-3.57,4.39-1.05,1.67-1.81,2.86-2.26,4.66-.03,.13-.06,.26-.09,.39-2.47-.42-6.09-1.15-8.37-2.13-1.84-.79-3.47-1.68-3.58-1.74-.03-.02-1.51-1-1.58-1.05-.09-.07-.51-.38-.76-.81-.11-.19-.16-.29-.19-.44-.06-.32,.08-.59,.1-.68,.25-1.64,.65-2.83,.75-3.15,.12-.34,.35-.98,.75-1.8,.32-.66,.75-1.43,1.3-2.24,.51-.75,2.18-3.06,5.21-5,1.02-.65,2.69-1.71,5.14-2.26,.8-.18,1.91-.42,3.36-.34,1.55,.08,2.81,.5,3.91,1,.64,.29,1.22,.61,1.78,.92,.97,.54,2.36,1.32,3.77,2.81,.91,.97,2.09,2.73,2.49,3.42Z"/><path class="cls-24" d="M54.88,218.21c-.17,.17-.56,.6-.8,.87-.4,.45-1.31,1.5-2.2,3.06-.31,.54-.94,1.61-1.3,2.48-.27-.05-.54-.1-.83-.17-.59-.13-1.96-.5-4.7-1.25-1.51-.41-3.38-.93-5.36-1.83,0,0-1.47-.67-2.65-1.73-.49-.44-.85-.92-.85-.92-.13-.17-.28-.41-.34-.5h.02c.19-.94,.65-2.44,1.38-3.84,.49-.93,1.24-1.94,1.91-2.74,.39-.47,.76-.86,1.01-1.12,1.2,.75,2.43,1.2,3.5,1.59,1.33,.49,4.34,.91,6.99,.99,1.15,2.62,2.9,4.1,3.3,4.43,.3,.25,.61,.47,.91,.67Z"/><path class="cls-24" d="M50.72,234.02h-.04c-.78,.02-2.11,.09-3.44-.11-1.4-.21-3.38-.53-5.58-1.74-.7-.39-2.01-1.13-3.3-2.56-1.21-1.34-1.8-2.62-2-3.08-.13-.29-.47-1.1-.71-2.21-.14-.63-.31-1.7-.34-2.14,.92,.73,1.81,1.14,2.05,1.25,4.29,1.94,7.35,2.72,7.35,2.72,2.04,.52,3.77,.84,5.28,1.08v.05c-.05,.32-.06,.9-.09,1.4-.06,1.17,.04,2.1,.12,2.63,.18,1.26,.5,2.17,.58,2.39,.04,.1,.08,.21,.12,.32Z"/><path class="cls-24" d="M50.33,212.26c.1,.3,.22,.58,.34,.85-2.65-.08-5.66-.5-6.99-.99-1.07-.4-2.3-.85-3.5-1.59-.93-.58-1.85-1.33-2.66-2.38-1.37-1.76-1.85-3.51-1.99-4.11-.01-.04-.02-.08-.03-.12,1.08,.73,2.3,1.24,3.68,1.73,.8,.28,2.42,.83,6.33,1.73,1.3,.3,2.64,.61,4.13,.9,.02,1.96,.5,3.45,.7,3.99Z"/></g><g><path class="cls-7" d="M49.63,208.27c.02,1.96,.5,3.45,.7,3.99,.1,.3,.22,.58,.34,.85,1.15,2.62,2.9,4.1,3.3,4.43,.3,.25,.61,.47,.91,.67,1.76,1.15,3.56,1.55,5.6,2,2.87,.63,5.14,.55,6.65,.48,2.24-.1,4.21-.19,6.58-1.16,.7-.29,1.69-.7,2.75-1.44,.56-.38,1.14-.85,1.71-1.44,.98-1.01,1.64-2.07,2.09-2.99,.31-.62,.52-1.18,.65-1.61,.11-.34,.45-1.46,.54-2.96"/><path class="cls-7" d="M79.41,200.88c-.38-.67-.71-1.16-.9-1.43-2.06-3-4.52-4.5-5.83-5.28-.54-.33-1.25-.75-2.11-1.13-1.04-.47-2.3-.88-3.72-1-1.01-.08-2.03-.01-2.19,0-.16,.01-.38,.03-.67,.06-.7,.08-1.74,.26-2.83,.62-2.56,.85-4.21,2.37-5.35,3.43-1.86,1.71-2.91,3.35-3.57,4.39-1.05,1.67-1.81,2.86-2.26,4.66-.03,.13-.06,.26-.09,.39"/><path class="cls-7" d="M35.5,203.92s.01,.08,.03,.12c.14,.6,.62,2.35,1.99,4.11,.81,1.05,1.73,1.81,2.66,2.38,1.2,.75,2.43,1.2,3.5,1.59,1.33,.49,4.34,.91,6.99,.99"/><path class="cls-7" d="M49.67,208.28s-.02,0-.03,0c-1.49-.29-2.83-.6-4.13-.9-3.91-.9-5.53-1.45-6.33-1.73-1.38-.49-2.6-1-3.68-1.73-.56-.38-1.09-.82-1.58-1.35-1.07-1.16-1.33-2.03-1.42-2.52-.23-1.25,.17-2.41,.21-2.49,.01-.05,.05-.15,.1-.27,.57-1.31,1.61-2.06,2.18-2.45,.44-.31,1.11-.71,2.03-1.02"/><path class="cls-7" d="M49.9,205.59c1.38,.23,2.41,.37,2.63,.4,8.14,1.07,14.19,.99,15.49,.97,.9-.01,3.77-.21,9.47-.59,0,0,.89-.06,2.05-.16,1.9-.17,4.52-.45,5.11-.77,.02-.01,.12-.07,.24-.05,.21,.03,.34,.27,.41,.4,.19,.37,.19,.72,.18,1.09,0,.41-.01,.66-.16,.93-.13,.23-.31,.37-.38,.42,0,0-.77,.61-3.45,.73-.23,.01-.48,.02-.74,.02,0,0-2.29,.1-2.54,.16-.05,.01-11.5,.49-11.5,.49-4.27-.07-5.28,.13-8.77-.17-1.65-.14-2.94-.31-3.72-.42-1.71-.23-3.19-.49-4.55-.75"/><path class="cls-7" d="M64,192.1c-.4-.7-1.58-2.46-2.49-3.42-1.41-1.5-2.8-2.27-3.77-2.81-.56-.3-1.14-.63-1.78-.92-1.1-.5-2.36-.92-3.91-1-1.45-.08-2.56,.16-3.36,.34-2.45,.55-4.13,1.61-5.14,2.26-3.03,1.95-4.7,4.26-5.21,5-.56,.81-.98,1.58-1.3,2.24-.4,.82-.63,1.46-.75,1.8-.11,.32-.51,1.51-.75,3.15-.01,.09-.16,.36-.1,.68,.03,.15,.08,.25,.19,.44,.25,.43,.67,.74,.76,.81,.07,.05,1.55,1.03,1.58,1.05,.11,.06,1.73,.95,3.58,1.74,2.27,.98,5.9,1.71,8.37,2.13"/><path class="cls-7" d="M55.96,184.95c.56-.94,2.15-2.68,3.62-3.99,2.85-2.55,5.62-3.37,6.33-3.53,2.8-.65,5.04-.28,5.6-.17,2.91,.54,4.86,1.91,5.6,2.45,1.68,1.22,3.02,2.77,4.19,4.12,.36,.42,.66,.79,.86,1.04"/><path class="cls-7" d="M70.57,193.04c1.06-1.31,2.25-3.07,3.05-3.75,2.34-1.96,4.52-2.95,5.58-3.39,1.39-.57,2.43-.81,2.97-.91,.16-.03,.28-.05,.35-.06,1.59-.23,2.79-.08,3.04-.05,.35,.05,1.47,.22,2.88,.83,1.56,.68,2.52,1.48,3.99,2.72,1.24,1.05,2.6,2.2,4.03,4.06,1.48,1.92,2.07,3.34,2.33,4.03,.13,.34,.22,.63,.28,.83"/><path class="cls-7" d="M80.39,234.5c-.12-.21-.22-.38-.3-.46,0,0-.01-.01-.02-.02"/><path class="cls-7" d="M79.54,206.21c-.19-.33-.6-1.25-.72-1.94-.25-1.4,.23-2.61,.65-3.37,.18-.33,.35-.57,.45-.71,1.02-1.45,2.34-2.05,2.88-2.28,1.33-.58,2.47-.6,2.82-.6,.5,0,1.56,.02,2.74,.6,.26,.13,1.56,.79,2.49,2.33,.7,1.15,.86,2.27,.89,2.95,.01,.19,.01,.35,.01,.46,0,.63-.01,1.77-.67,2.89-.02,.03-.03,.05-.05,.08-.56,.92-1.01,.9-2.53,2.58-.58,.65-.88,.97-1.15,1.43-.27,.45-.92,1.58-.88,3.02,.02,.63,.15,.55,.32,1.77,.06,.45,.19,1.32,.17,2.39-.02,1.29-.22,1.5-.28,3.18-.02,.66-.03,.99,0,1.38,.02,.23,.08,.78,.28,1.49,.17,.58,.44,1.26,.86,1.97,.12,.21,.23,.37,.34,.51,.51,.7,.86,.79,1.6,2.01,.12,.2,.24,.39,.35,.59,.26,.45,.47,.9,.62,1.49,.06,.21,.16,.61,.19,1.14,.04,.52,0,1.16-.19,1.87-.03,.1-.06,.21-.1,.33-.25,.73-.79,1.83-1.94,2.67-.28,.21-1.29,.91-2.8,1.04-.64,.05-2.07,.06-3.32-.76-.31-.21-.42-.11-1.36-.96-.26-.23-.57-.83-.82-1.27"/><path class="cls-7" d="M81.48,208.96l.05,.05c.57,.56,1.28,1.19,1.56,1.61,.44,.65,.72,1.08,.87,1.73,.11,.47,.1,.87,.04,1.42-.02,.17-.04,.35-.07,.56-.12,.94-.25,.97-.35,1.83-.11,.91-.06,1.63-.04,2.08,.07,1.04,.2,1.09,.28,2.11,.04,.54,.09,1.29-.04,2.21-.12,.87-.35,1.55-.56,2.05-.06,.15-.12,.28-.17,.4-.23,.54-.68,1.53-1.56,2.56l-.15,.17c-.44,.49-.93,.98-1.33,1.69-.14,.25-.37,.69-.38,1.28,0,.19,.02,.34,.04,.45"/><path class="cls-7" d="M99.55,201.46c.02,.59,0,1.41-.17,2.35-.37,2.13-1.23,3.6-1.49,4.01-1.06,1.73-2.35,2.74-3.09,3.27-.06,.04-.12,.08-.17,.12,0,0-2.39,1.69-5.95,2.28-.89,.15-1.73,.16-1.73,.16-.19,0-.36,0-.46,0"/><path class="cls-7" d="M83.91,213.76s-1.6,.1-2.75,.02c-.23-.02-.67-.05-.79-.06"/><path class="cls-7" d="M91.08,206.54c1.56-.55,3.43-1.41,4.33-1.96,1.88-1.14,3.22-2.36,4.04-3.22,.12-.12,.23-.24,.33-.35,.58-.63,1.16-1.25,1.76-2.22,.85-1.38,.65-1.64,1.69-3.58,.65-1.2,.72-1.07,1.71-2.85,.39-.7,.55-1.02,.93-1.5,.39-.49,.94-1.17,1.9-1.63,.53-.25,.94-.45,1.5-.43,.56,.01,.98,.09,1.34-.17,.15-.1,.27-.24,.39-.45,.22-.4,.19-.62,.22-.99,.03-.5,.05-.8-.16-1.08-.03-.03-.12-.16-.3-.27-.67-.4-1.75-.14-1.97-.09-.83,.21-1.76,.44-2.92,1.21-1.18,.78-1.88,1.63-2.35,2.21-.55,.68-1.01,1.5-1.94,3.14-.68,1.21-1.02,1.81-1.33,2.6-.31,.77-.37,1.1-.73,1.8-.04,.08-.17,.33-.39,.67-.19,.31-.47,.71-.82,1.14-.92,1.13-1.81,1.77-3.06,2.68-1.06,.76-1.75,1.14-2.04,1.29-.58,.31-1.09,.52-1.47,.67"/><path class="cls-7" d="M40.18,210.53c-.26,.26-.62,.66-1.01,1.12-.67,.8-1.42,1.81-1.91,2.74-.73,1.4-1.19,2.89-1.38,3.83"/><path class="cls-7" d="M50.59,224.62c.36-.87,.99-1.94,1.3-2.48,.89-1.56,1.79-2.61,2.2-3.06,.24-.27,.62-.69,.8-.87l.02-.02"/><path class="cls-7" d="M76.46,218.1c.57,.53,1.37,1.46,1.98,2.28,1.01,1.35,1.56,2.54,1.78,3.06,.23,.53,.39,1.21,.5,1.55"/><path class="cls-7" d="M83.23,224.61h0c-.48,.08-.99,.17-1.51,.25-.33,.05-.66,.1-.99,.14-2.62,.35-5.03,.49-6.31,.56-3.97,.23-7.01,.18-9.7,.14-1.64-.03-3.39-.06-5.75-.2-3.27-.19-5.59-.34-8.37-.87-.27-.05-.54-.1-.83-.17-.59-.13-1.96-.5-4.7-1.25-1.51-.41-3.38-.93-5.36-1.83,0,0-1.47-.67-2.65-1.73-.49-.44-.85-.92-.85-.92-.13-.17-.28-.41-.34-.5-.01-.02-.02-.03-.02-.03"/><path class="cls-7" d="M94.81,211.09c.06,.06,.13,.13,.2,.19,.68,.67,1.41,1.49,1.77,2,.16,.23,.74,1.05,1.29,2.24,0,0,.47,.86,.85,2.3,.02,.08,.07,.26,.03,.48-.06,.36-.32,.6-.45,.72-1.19,1.07-1.98,1.53-1.98,1.53-.45,.26-1,.58-1.82,.94-.26,.12-.81,.36-2.55,.94-2.08,.7-1.76,.59-2.35,.76-.85,.24-1.48,.37-2.3,.54-.18,.04-.34,.08-.48,.1"/><path class="cls-7" d="M39.16,211.66c-1.01,.4-2.74,1.4-3.24,1.77-.67,.48-1.43,1.04-2.08,2.03-.31,.48-.7,1.1-.83,2.01-.03,.22-.14,1.12,.25,2.17,.19,.49,.44,.92,.79,1.34,.38,.47,.81,.88,1.24,1.21,.92,.73,1.81,1.14,2.05,1.25,4.29,1.94,7.35,2.72,7.35,2.72,2.04,.52,3.77,.84,5.28,1.08,.74,.12,1.42,.21,2.07,.3,2.95,.41,5.16,.55,7.32,.69,1.3,.08,4.41,.27,8.44,.28,0,0,3.81,0,7.95-.21,.93-.05,1.68-.11,3.73-.3,.22-.02,1.51-.21,1.86-.25,.04,0,.06-.01,.08-.01"/><path class="cls-7" d="M99.39,222.05c-.24,.17-.51,.35-.82,.55-.88,.55-2.25,1.3-5.37,2.37-1.07,.37-3.22,.9-5.04,1.38"/><path class="cls-7" d="M95.01,211.29c1.07,.52,2.95,1.47,3.53,1.86,1.1,.75,1.76,1.24,2.32,2,.31,.44,.85,1.19,.97,2.31,.14,1.25-.33,2.2-.51,2.56-.08,.17-.19,.35-.33,.55-.3,.41-.76,.89-1.59,1.48"/><path class="cls-7" d="M100.98,220.57c.17,.23,.64,.96,.82,1.38,.11,.26,.31,.75,.36,1.37,.08,.88-.2,1.57-.34,1.92-.44,1.06-1.14,1.68-1.78,2.23-.67,.57-1.23,.89-1.95,1.3-.08,.04-.16,.09-.23,.13-.94,.51-1.73,.83-2.69,1.2-.95,.37-1.15,.41-2.76,1.01-.31,.12-1.31,.41-1.48,.48"/><path class="cls-7" d="M99.39,222.05h0c-.01,.25,.01,.94-.08,1.32-.09,.41-.22,.76-.31,.97-.25,.54-.67,.96-1.51,1.52-.47,.31-1.3,.84-2.75,1.47-1.15,.51-2.08,.81-2.69,1.01-.75,.25-1.4,.44-1.89,.57"/><path class="cls-7" d="M80.09,234.04c.99-.18,2.08-.38,3.33-.61,.56-.1,1.05-.1,2-.36,.08-.02,.26-.07,.41-.22,.21-.21,.23-.48,.28-.9,.03-.32,.01-.58,0-.74-.04-.43-.08-.84-.38-1.06,0,0-.08-.12-.19-.1-2.25,.54-5.35,1.09-5.35,1.09-.19,.04-.36,.07-.52,.1-1.62,.3-1.67,.12-10.23,2.11-4.13,.96-8.38,2.07-12.86,3.67-.81,.29-1.8,.65-2.89,1.15-.96,.43-2.01,.97-3.12,1.66-1.74,1.07-2.82,2-4.06,3.06-.59,.51-1.21,1.07-1.84,1.91-.43,.57-.9,1.2-1.22,2.14-.27,.79-.5,1.49-.56,2.12-.06,.64-.14,1.1,.12,1.5,.13,.21,.32,.32,.51,.43,.18,.1,.59,.34,1.13,.29,.11-.01,.75-.08,1.06-.56,.19-.29,.14-.55,.15-1.13,0,0,0-.31,.19-1.59,.16-1.05,.91-1.86,1.73-2.71,.28-.29,1.28-1.3,3.65-2.7,.4-.23,1.59-.92,3.47-1.75,.29-.13,.87-.38,1.9-.77,.79-.3,1.85-.68,3.25-1.15,1.34-.45,3.11-1.04,5.52-1.71,3.33-.93,5.81-1.45,8.56-2.02,1.87-.39,3.63-.72,5.95-1.15Z"/><path class="cls-7" d="M97.85,228.89c-.12,.16-.56,.83-.76,1.07-.12,.14-.58,.67-1.29,1.28-.25,.21-.67,.56-1.25,.93-.71,.46-1.27,.71-1.86,.99-.68,.31-1.07,.44-1.42,.52-.25,.06-.45,.09-.59,.12"/><path class="cls-7" d="M49.98,227.28c-.04,.32-.05,.9-.08,1.4-.06,1.17,.04,2.1,.12,2.63,.18,1.26,.5,2.17,.58,2.39,.04,.1,.08,.21,.12,.32,.23,.62,.56,1.4,1.16,2.22,.57,.76,1.28,1.42,1.51,1.63,.13,.11,.23,.21,.31,.27"/><path class="cls-7" d="M56.85,240.16c.29,.15,.71,.35,1.24,.54,.79,.3,1.49,.47,2.29,.63,1.24,.25,2.79,.55,4.92,.6,1.1,.03,2.76,.06,4.9-.35,1.53-.29,2.74-.7,3.54-1.01,.92-.36,1.76-.69,2.75-1.37,.65-.44,1.09-.87,1.98-1.72,.78-.74,1.22-1.25,1.58-1.97,.09-.18,.3-.9,.34-1.02h0"/><path class="cls-7" d="M35.29,222.18c.04,.44,.21,1.51,.34,2.14,.25,1.11,.58,1.92,.71,2.21,.2,.46,.8,1.74,2,3.08,1.29,1.43,2.61,2.17,3.3,2.56,2.2,1.21,4.18,1.53,5.58,1.74,1.33,.2,2.66,.13,3.44,.12"/></g></g><ellipse class="cls-3" cx="115.69" cy="173.61" rx="25.37" ry="19.22"/><ellipse class="cls-3" cx="125.78" cy="115.75" rx="57.21" ry="24.81"/><g><path class="cls-2" d="M112.65,230.17c5.79,10.47,2.76,23.92-7.23,30.61-10.54,7.07-25.1,4.11-32.25-6.56-1.52-2.26-2.63-4.77-3.29-7.4"/><rect x="99.6" y="228.2" width="26" height="4" transform="translate(-99.14 85.84) rotate(-29.65)"/></g><g><path class="cls-4" d="M120.8,154.2c-.76-13.97,10.1-26.09,24.07-26.85,9.1-.5,17.41,3.94,22.31,10.95"/><polygon points="157.94 135.18 170.66 160.19 172.15 132.17 157.94 135.18"/></g><path class="cls-3" d="M294.09,212.13h-75.47c-1.02,0-1.84-.92-1.84-2.05v-15.7c0-1.13,.82-2.05,1.84-2.05h75.47c.4,0,.8,.15,1.12,.42l9.21,7.85c.96,.82,.96,2.44,0,3.26l-9.21,7.85c-.32,.27-.71,.42-1.12,.42Z"/><line class="cls-6" x1="214.24" y1="136.72" x2="214.24" y2="188.91"/><line class="cls-6" x1="307.16" y1="136.72" x2="307.16" y2="188.91"/></g><g id="Layer_12"><text class="cls-20" transform="translate(102.95 181.09)"><tspan x="0" y="0">TF</tspan></text><text class="cls-20" transform="translate(227.61 209.34)"><tspan x="0" y="0">GENE</tspan></text><text class="cls-20" transform="translate(229.4 183.72)"><tspan class="cls-23" x="0" y="0">P</tspan><tspan class="cls-15" x="12.28" y="0">ol II</tspan></text><text class="cls-20" transform="translate(124.39 275.72)"><tspan x="0" y="0">Co</tspan><tspan class="cls-16" x="26.99" y="0">r</tspan><tspan x="36.86" y="0">e p</tspan><tspan class="cls-16" x="70.3" y="0">r</tspan><tspan class="cls-15" x="80.17" y="0">o</tspan><tspan class="cls-17" x="93.97" y="0">m</tspan><tspan x="113.75" y="0">o</tspan><tspan class="cls-19" x="127.55" y="0">t</tspan><tspan class="cls-13" x="135.3" y="0">er</tspan></text><text class="cls-20" transform="translate(288.81 129.03)"><tspan x="0" y="0">TES</tspan></text><text class="cls-20" transform="translate(257.68 75.54)"><tspan x="0" y="0">RNA</tspan></text><text class="cls-20" transform="translate(194.3 129.03)"><tspan class="cls-21" x="0" y="0">T</tspan><tspan x="12.09" y="0">SS</tspan></text><text class="cls-20" transform="translate(80.36 122.64)"><tspan x="0" y="0">Cofac</tspan><tspan class="cls-19" x="61.17" y="0">t</tspan><tspan x="68.92" y="0">or</tspan></text><polyline class="cls-1" points="167.91 237.51 167.91 254.3 231.78 254.3 231.78 237.51"/></g></svg>