<?xml version="1.0" encoding="UTF-8"?>
<svg data-bbox="0 0.003 394 329.917" viewBox="0 0 394 329.92" xmlns="http://www.w3.org/2000/svg" data-type="color">
    <g>
        <path d="M235.06 63.38c-4 3.38-14.44 8.42-21.19 12.85-11.64 7.66-19.08-1.32-28.08 2.21-6.27 2.45-15.52-9.34-53.36.51-1.51.39-3.45 22.91-5.88 26.81-2.32 3.74 4.64 15.71 4.43 14.9-4.85-18.55-.91 30.88-.6 31.56 4 8.81 11.62 38.42 30.13 47.24l2.43 18.54S40.43 240.79 0 329.92h392c-23.06-81.81-149.53-113.26-149.53-113.26l-4.28-27.53c5.29-4.67 11.68-13.86 17.9-27.45A83.81 83.81 0 0 0 263.4 127a76.75 76.75 0 0 0-3.31-22.09c-.9-2.82 7.5-7.64 5.36-11.62-4.28-8-4.27-10.7-9.45-17.88-2.19-3-18.44-5.33-20.94-12" fill="#fad2b1" data-color="1"/>
        <g>
            <path d="M229.5 67.15c-3.33-1.23-6.81 4.7-17.36 13.62C205.9 86 200.25 90.82 192.06 94c-1.63.64-1.5.49-19.41 4.09 0 0-5.34 1.07-22.12 5.11-4.84 1.16-8.83 2.15-13.28 5.1-2.39 1.59-5.15 3.41-7.15 6.81-3.26 5.53-1.37 9.83-3.74 11.23-2.69 1.59-8.32-2-11.92-5.78-2.56-2.69-9.08-10.72-7.83-36.77.88-18.19 1.39-28.16 7.49-39.79 11.65-22.08 33.45-30.72 47-36.08C169 4.79 183.41-.76 203 .09a96.07 96.07 0 0 1 44.26 13.27c10.18 5.79 21.65 12.32 29.27 25.88 4.24 7.54 5.33 16.49 7.49 34.38 4.2 34.67-1.1 41.67-3.06 43.91-4.38 5-12.27 9.44-17 7.15-2.42-1.16-2.88-3.5-4.77-7.83-1.47-3.37-5.52-9.17-13.62-20.76-8.61-12.34-9.71-12.42-11.57-17.37-2.65-6.86-2-10.65-4.5-11.57z" fill="#061f29" data-color="2"/>
            <path d="M0 329.92c35.85-92 151.72-110.53 151.72-110.53s54.47 48.34 101.45 0c0 0 136.64 36.88 140.83 110.53z" fill="#f1e8e3" data-color="3"/>
            <path d="M317.19 327c-9.36-16.18 9.36-75.75 9.36-75.75-9.87-14-73.71-32.16-73.71-32.16l-47.14 68.39-55.15-67.41-34.72 8.58-28.77 11.92s14.13 72 10.9 88.51z" fill="#895238" data-color="4"/>
        </g>
    </g>
</svg>
