<?xml version="1.0" encoding="UTF-8"?><svg id="_层_2" xmlns="http://www.w3.org/2000/svg" xmlns:xlink="http://www.w3.org/1999/xlink" viewBox="0 0 362 361"><defs><style>.cls-1{fill:#efede4;}.cls-1,.cls-2,.cls-3,.cls-4,.cls-5{stroke:#000;}.cls-1,.cls-2,.cls-4,.cls-5{stroke-miterlimit:10;}.cls-2{fill:#fddddd;}.cls-3{font-family:COCOGOOSE, COCOGOOSE;font-size:61px;stroke-width:2px;}.cls-3,.cls-6{fill:#fff;}.cls-6{filter:url(#drop-shadow-1);}.cls-4{fill:#dff3fe;}.cls-5{fill:#d8e5e0;stroke-width:.5px;}</style><filter id="drop-shadow-1" filterUnits="userSpaceOnUse"><feOffset dx="2" dy="5"/><feGaussianBlur result="blur" stdDeviation="5"/><feFlood flood-color="#6d6d6d" flood-opacity=".5"/><feComposite in2="blur" operator="in"/><feComposite in="SourceGraphic"/></filter></defs><g id="outline"><rect class="cls-6" x="13.9" y="10.3" width="330.21" height="330.21" rx="30.04" ry="30.04"/></g><g id="Layer_12"><path class="cls-2" d="M152.87,133.37c-2.03-.06-9.26,.02-12.58,.67-2.99,.58-9.58,2.25-17.51,8.42-6.34,4.93-9.46,9.58-15.52,18.18-11.41,16.2,1.1-2.3-20.4,28.16-11.68,16.55-14.12,20.23-20.17,24.61-7.35,5.31-15.39,8.28-16.41,8.65-4.58,1.66-8.64,2.57-11.75,3.1l-5.93-.22c5.05-1.96,12.73-5.49,20.66-11.75,11.22-8.84,13.91-16,30.55-40.22,16.51-24.03,22.38-29.39,28.75-33.44,13.31-8.47,24.64-8.6,26.95-8.59,3.54,.02,6.48,.48,8.53,.9l4.82,1.53Z"/><path class="cls-5" d="M220.71,133.37c-2.03-.06-9.26,.02-12.58,.67-2.99,.58-9.58,2.25-17.51,8.42-6.34,4.93-9.46,9.58-15.52,18.18-11.41,16.2,1.1-2.3-20.4,28.16-11.68,16.55-14.12,20.23-20.17,24.61-7.35,5.31-15.39,8.28-16.41,8.65-4.58,1.66-8.64,2.57-11.75,3.1l-5.93-.22c5.05-1.96,12.73-5.49,20.66-11.75,11.22-8.84,13.91-16,30.55-40.22,16.51-24.03,22.38-29.39,28.75-33.44,13.31-8.47,24.64-8.6,26.95-8.59,3.54,.02,6.48,.48,8.53,.9l4.82,1.53Z"/><path class="cls-1" d="M269.48,222.72c-2.03,.06-9.26-.02-12.58-.67-2.99-.58-9.58-2.25-17.51-8.42-6.34-4.93-9.46-9.58-15.52-18.18-11.41-16.2,1.1,2.3-20.4-28.16-11.68-16.55-14.12-20.23-20.17-24.61-7.35-5.31-15.39-8.28-16.41-8.65-4.58-1.66-8.64-2.57-11.75-3.1l-5.93,.22c5.05,1.96,12.73,5.49,20.66,11.75,11.22,8.84,13.91,16,30.55,40.22,16.51,24.03,22.38,29.39,28.75,33.44,13.31,8.47,24.64,8.6,26.95,8.59,3.54-.02,6.48-.48,8.53-.9l4.82-1.53Z"/><path class="cls-4" d="M335.33,222.72c-2.03,.06-9.26-.02-12.58-.67-2.99-.58-9.58-2.25-17.51-8.42-6.34-4.93-9.46-9.58-15.52-18.18-11.41-16.2,1.1,2.3-20.4-28.16-11.68-16.55-14.12-20.23-20.17-24.61-7.35-5.31-15.39-8.28-16.41-8.65-4.58-1.66-8.64-2.57-11.75-3.1l-5.93,.22c5.05,1.96,12.73,5.49,20.66,11.75,11.22,8.84,13.91,16,30.55,40.22,16.51,24.03,22.38,29.39,28.75,33.44,13.31,8.47,24.64,8.6,26.95,8.59,3.54-.02,6.48-.48,8.53-.9l4.82-1.53Z"/><text class="cls-3" transform="translate(90.96 205.53)"><tspan x="0" y="0">PEGR</tspan></text></g></svg>