<?xml version="1.0" encoding="UTF-8"?>
<svg data-bbox="0 -0.001 394.72 342.661" viewBox="0 0 394.72 342.66" xmlns="http://www.w3.org/2000/svg" data-type="ugc">
    <g>
        <g>
            <path d="M236.43 76.13c-4 3.37-14.44 8.41-21.2 12.85-11.64 7.66-20.44 13.5-29.44 17-6.27 2.45-7.94 2.57-45.79 12.43-1.5.39-5.61-.43-7.83 2-2.67 3-1.17 8.34.17 12.93 5.41 18.51 8.2 27.75 8.51 28.43 4 8.8 12.52 22.69 23.45 36.21v32.73S41.79 253.53 1.36 342.66h392C370.3 260.85 243.83 229.4 243.83 229.4l-4.28-27.53c5.3-4.67 11.68-13.85 17.9-27.44a83.94 83.94 0 0 0 7.32-34.73 76.89 76.89 0 0 0-3.32-22.08 54.19 54.19 0 0 0-4.09-10.09c-4.28-8-8.1-9.8-13.27-17a60.62 60.62 0 0 1-7.66-14.42" fill="#fad2b1"/>
            <path d="M227.75 188.39s39.41-7.7 58.1-50.22" fill="none" stroke="#060404" stroke-miterlimit="10" stroke-width="5"/>
            <path fill="#060404" d="M231.197 187.494c.988 3.606-2.654 7.748-8.134 9.25-5.481 1.502-10.726-.203-11.714-3.809-.989-3.606 2.653-7.747 8.134-9.25 5.48-1.502 10.725.203 11.714 3.81z"/>
        </g>
        <path d="M394.72 342.39c-30.89-87.59-149.1-112.91-149.1-112.91-52.09 29.62-91.15 3.15-91.15 3.15S23 261.44 0 342.39z" fill="#b66e6f"/>
        <path d="M232 84.12c-8 .09-3.86 2.4-19.5 14.44-7.58 5.83-21.3 16.38-39.83 19.74-16.7 3-29.37-1.24-34 6.47-.94 1.55-1.27 3.11-1.36 7.83-.17 9 2 18.24 5.7 30.68 1.8 6 8.41 19.62 20 33.06C172 206.9 174.89 210 173.7 213.62c-1.85 5.68-21.82 3.62-23.83 3.4-7.91-.86-24.56-2.67-38.13-15.32-11.66-10.87-14.49-23.62-18.38-41.19a137 137 0 0 1 .68-63A131.17 131.17 0 0 1 114.13 55C121.93 44.1 150.61 4.1 202 .17c3.45-.26 55.15-3.41 87.49 33.7C308.74 56 313.26 83.45 314 88c2.3 15-.86 17.31 2.38 40.85 2.6 18.89 5.71 25.3 4.43 39.49-.86 9.41-1.78 19.57-8.86 28.94-12 15.93-32.71 17.43-41.19 18-15.66 1.14-37-1.95-37.17-5.93-.06-1.45 3.63-5.29 5.81-7.91 2-2.41 4.34-2.32 15.19-24.19 6.71-13.52 6.15-18 6.64-23.81 1.53-18-.3-30-4.39-37.28C250.32 104.59 243.79 84 232 84.12z" fill="#352926"/>
        <path d="M135 223.47a19.41 19.41 0 0 0-11.09 1.8c-1.37.7-5.94 3.06-6.51 7-.65 4.6 4.41 9.37 8.94 11.49 8.25 3.86 13.26-1.75 19.66 2.17 5.32 3.26 3 7.84 8.81 12.38 6.92 5.42 17 4.17 20.68 3.7 8.09-1 8.89-3.78 13.87-2.85 7.17 1.34 7.11 7.38 14.3 9 8.52 1.95 17-4.64 17.53-5.1 4.46-3.59 3.84-6 7-7 6.6-2.11 11.56 7.82 18.21 6.13 5.5-1.4 4.74-8.83 11.41-10.9 5-1.54 7.08 2.06 11.74 0 1.65-.73 3.84-3.61 8.17-9.36s4.56-6.46 4.6-7.49c.14-4.52-4.91-8.48-8.85-10.21-6.26-2.75-12.55-1.17-14-.82-13.63 3.32-33.54 12.94-59.67 12.65-7.31-.06-49.19-10.74-64.8-12.59z" fill="#fef2ef"/>
    </g>
</svg>
