<?xml version="1.0" encoding="UTF-8"?>
<svg data-bbox="0 0.01 480 422.1" viewBox="0 0 480 422.11" xmlns="http://www.w3.org/2000/svg" data-type="ugc">
    <g>
        <path d="M284.55 83.63C279.08 82 273.24 97 258.68 111.88a113.88 113.88 0 0 1-35.06 24.17c-17 7.77-31.94 14.59-50.73 13.62-5.24-.27-12.74-1.25-16 3.06-2.62 3.48-1 8.5 1 16 7.09 25.62 4 21.93 7.49 30.3 7.38 17.9 16.88 23.86 29.27 47.32a52.11 52.11 0 0 1 4.09 10.21c1.72 6.09 4.29 15.2 0 24.17a23.26 23.26 0 0 1-8.51 9.88c-8.4 5.19-15.8 1.16-18.39 5.1-3.26 5 5.55 15.9 6.47 17 6.62 8.08 14.83 11.49 25.19 15.66a124.31 124.31 0 0 0 22.81 6.81 104.2 104.2 0 0 0 36.43 1c12.11-1.88 23.52-3.65 34-12.59 9-7.68 19.66-20 16.34-26.9-1.76-3.63-5.76-2.37-11.23-7.83-3.69-3.66-5.07-7.55-7.83-15.32-3.59-10.08-5.6-15.72-3.41-21.44 1.71-4.44 4.89-6.17 8.51-9.19 9-7.48 12.85-16.4 17.7-27.58 8.05-18.49 7.77-35 7.49-44.93-.39-14.4-.65-23.8-6.8-33.37-4.67-7.25-7.7-6.78-15.32-18A129.55 129.55 0 0 1 291 98.61c-4.38-10.61-3.84-14.21-6.45-14.98z" fill="#fad2b1"/>
        <path d="M297.32 288.73c-65.36 13.28-99.57 0-99.57 0v-14s50.55 11.24 98.29-1z" fill="#040000"/>
        <path fill="none" stroke="#788386" stroke-miterlimit="10" stroke-width="3" d="M256.08 303.91a9.28 9.28 0 1 1-18.56 0 9.28 9.28 0 0 1 18.56 0z"/>
        <path d="M480 422.11c-53.62-115.3-166-127.48-166-127.48-74.55 97.56-142.64 0-142.64 0S50.55 320.59 0 422.11z" fill="#333535"/>
        <path d="M191.62 239.46c5.69 5.88 6.29 8.52 5.44 10.64-1.76 4.4-23.21-.17-34-3.07-15.61-4.18-35-9.37-51.74-26.21-6.9-6.92-15-15.31-17-28.6A43.55 43.55 0 0 1 98 167.71c6.3-13.42 18.46-20.88 23.83-24.17 10.27-6.3 15.93-6.3 19.4-12.93 2.39-4.55 2-8.91 1-16.68-2.8-22.14-4.95-28.38-5.79-37.45-.82-8.74-2.12-22.79 4.76-35.75 7.3-13.65 20.16-19.48 35.8-26.55 17.45-7.9 32-9.8 45.62-11.57 21.53-2.81 32.31-4.22 43.55.39s13.52 10.35 27.58 13.61c6.9 1.61 11.38 1.38 19.4 4.77a58.17 58.17 0 0 1 15 9.19c8 6.84 11.7 14.16 16 22.81A119 119 0 0 1 355 84c1.75 8.71 1.68 13.81 5.79 21.1 3.12 5.55 6.43 8.39 9.53 11.58 10.32 10.62 15.37 22 18.72 29.62a96.82 96.82 0 0 1 7.49 48c-1.32 12.58-2.66 25.42-11.91 36.42-13 15.49-33.8 17.91-61.28 21.11-21.48 2.5-29.59 4.79-31.32 1.36-1.22-2.44 1.39-5.86 4.77-10.55 6.56-9.12 17.76-24.66 22.47-35.07 4.86-10.74 4.59-19.95 4.08-37.78-.42-14.65-.67-23.42-5.78-33.37-5.7-11.08-12.94-8-20.39-22.12-1.49-2.85-3.67-11.27-10.25-20.81-4.11-6-3.74-6.87-4.77-7.11-7.63-1.77-11.11 18.33-27.49 33.7-20.11 18.88-49.32 28.16-56.42 29.28-19.79 3.12-35.52-5.1-40.34 3.74-1.84 3.37.53 7.08 1.53 15.28 1.14 9.42 1.6 17.49 4.59 25.58" fill="#5f7e84"/>
    </g>
</svg>
