<?xml version="1.0" encoding="UTF-8"?>
<svg data-bbox="0 0.003 396.68 347.447" viewBox="0 0 396.68 347.45" xmlns="http://www.w3.org/2000/svg" data-type="color">
    <g>
        <path d="M235.06 80.91c-4 3.38-14.44 8.42-21.19 12.86-11.64 7.65-19.08-1.33-28.08 2.2-6.27 2.45-15.52-9.34-53.36.51-1.51.39-3.45 22.91-5.88 26.81-2.32 3.74 4.64 15.71 4.43 14.9-4.85-18.55-.91 30.88-.6 31.57 4 8.8 11.62 38.41 30.13 47.23l2.43 18.56S40.43 258.32 0 347.45h392c-23.06-81.81-149.53-113.26-149.53-113.26l-4.28-27.53c5.29-4.67 11.68-13.86 17.9-27.45a83.81 83.81 0 0 0 7.31-34.72 76.75 76.75 0 0 0-3.31-22.09c-.9-2.82 7.5-7.64 5.36-11.62-4.28-8-4.27-10.7-9.45-17.88-2.19-3-18.44-5.33-20.94-12" fill="#fad2b1" data-color="1"/>
        <g>
            <path d="M259.49 245.82v-15.66c-73.87 28.26-122.55-.68-124.93-1.7v17.36s57.87 28.23 124.93 0z" fill="#ffffff" data-color="2"/>
            <path d="M217.84 253.58c22.54-12.21 17.83 36.88 17.83 36.88s-36.24-26.91-17.83-36.88z" fill="#ffffff" data-color="2"/>
            <path d="M208 253.69c24.21 8.45-15.26 38-15.26 38s-4.52-44.89 15.26-38z" fill="#ffffff" data-color="2"/>
        </g>
        <path d="M396.68 341.54c-29.68-48.34-46.07-56.17-46.07-56.17-144.59 40.85-304.75 0-304.75 0S14 303 1.59 347.45h395.09z" fill="#366b63" data-color="3"/>
        <path d="M133.39 100.45c8.08-7.85 20.17 2.38 49 4.76 39.25 3.24 67.25-11.56 74.21 0 .42.69.84 2.84 1.7 7.15a135 135 0 0 1 2.39 26.21c.28 17.7.42 26.55.34 26.9-1.67 7.17-7.07 22.57-19.75 33.36-3 2.54-6.19 4.68-7.83 9.19-2.63 7.27.74 15.39 1.7 17.7 3.29 7.9 7.36 9.41 6.47 13.28-.94 4.09-5.72 3.44-9.19 9.19-2.35 3.91-2.37 7.89-2.38 12.94a46.84 46.84 0 0 0 2.38 14.3c2.88 9 5.58 9.34 6.81 15.66 1.5 7.7-2.16 9-1.36 16 1.22 10.63 11.09 18.9 19.4 22.46 1.26.54 15.27 6.55 20.43 1 3.89-4.17-1.4-10.5-2.39-26.89-.39-6.6-.92-17.4 4.43-28.59 2-4.16 6-12.56 14-15 4.58-1.4 6 .54 10.21-.68 8.49-2.49 13.22-13.71 14.64-21.11 1.74-9.08-.77-16.95-5.79-32.68-1.22-3.84-4.6-6.64-3.74-10.55 1-4.52 5.57-5.86 9.53-9.54 7.6-7.06 8-18.24 8.17-22.8.27-7.53-2.06-10.32-15-39.15-4.15-9.26-6.22-13.89-6.81-15.66-6.18-18.77-1.07-25.4-4.76-40.17A61.73 61.73 0 0 0 274.66 32C263.92 25.16 260 28.42 242 20.11c-17-7.88-17-12.47-27.23-16.68-26.42-10.92-57.47 7.05-71.15 15-16 9.28-32.75 19-39.49 37.79-6 16.71 2.2 23.08-6.13 42.56-6.67 15.61-14.68 18-15.32 31.31-.47 10 3.76 14.64.34 24.17-2.1 5.87-4.21 5.57-8.85 15a85.11 85.11 0 0 0-6.47 18.39c-2.05 9-3.08 13.55-2 18C69 220 87.14 223.57 85.73 231.17c-.56 3-3.43 2.51-10.9 10.21-4.93 5.09-7.39 7.63-8.51 11.24-1.57 5.08.72 7.57 5.11 22.81a147.27 147.27 0 0 1 4.08 17.7c2.07 12.63.73 15.67 0 17-2.84 5.24-7.83 5.65-8.17 9.87-.24 3.1 2.18 6.34 4.77 7.83 8.07 4.63 25.27-3.43 29.62-15.66a30.24 30.24 0 0 0 0-18c-1.81-5.81-4.76-8.59-3.41-10.89 1.58-2.69 6.61-.68 13.62-2.05a31.09 31.09 0 0 0 17.7-10.89c7.89-10 2.14-19.26 9.19-24.51 5.74-4.27 10.89.82 18-3.75 6.31-4 9.41-12.51 8.85-19.4s-4.42-9.56-11.58-19.06c-2.09-2.78-12-16.19-17.36-29.62-3.44-8.69-4.11-16.8-5.45-33-1.9-23.83-2.88-35.72 2.1-40.55z" fill="#d0a08a" data-color="4"/>
    </g>
</svg>
