<svg width="22" height="22" viewBox="0 0 22 22" fill="none" xmlns="http://www.w3.org/2000/svg">
<path d="M18.168 16.816C18.808 16.816 19.3413 16.8693 19.768 16.976C20.1947 17.0613 20.5253 17.2213 20.76 17.456C21.016 17.6693 21.1867 17.9253 21.272 18.224C21.3787 18.5227 21.432 18.896 21.432 19.344C21.432 20.432 21.0907 21.1467 20.408 21.488C19.7253 21.8293 18.5413 22 16.856 22H4.856C4.25867 22 3.65067 21.8293 3.032 21.488C2.43467 21.1253 1.93333 20.6347 1.528 20.016C1.12267 19.376 0.92 18.704 0.92 18C0.92 17.36 0.952 16.8373 1.016 16.432C1.10133 16.0053 1.28267 15.568 1.56 15.12C1.83733 14.672 2.08267 14.32 2.296 14.064C2.53067 13.7867 2.94667 13.3387 3.544 12.72L11.704 5.296H5.208C3.77867 5.296 2.744 5.09333 2.104 4.688C1.464 4.26133 1.144 3.55733 1.144 2.576C1.144 1.65867 1.4 1.01867 1.912 0.655998C2.44533 0.271998 3.224 0.079998 4.248 0.079998H17.336C17.976 0.079998 18.5413 0.197332 19.032 0.431999C19.5227 0.645332 19.896 0.933332 20.152 1.296C20.408 1.63733 20.6 1.97867 20.728 2.32C20.856 2.66133 20.92 2.98133 20.92 3.28C20.92 3.664 20.9093 4.00533 20.888 4.304C20.8667 4.60267 20.8027 4.89067 20.696 5.168C20.6107 5.424 20.5467 5.62667 20.504 5.776C20.4613 5.92533 20.3333 6.128 20.12 6.384C19.928 6.64 19.7893 6.81067 19.704 6.896C19.6187 6.98133 19.416 7.19467 19.096 7.536C18.776 7.856 18.552 8.08 18.424 8.208L9.08 16.816H18.168Z" fill="black"/>
</svg>
